{"glyphs":{"0":{"ha":788,"x_min":97,"x_max":690,"o":"m 468 1103 l 322 1103 q 247 1088 286 1103 q 172 1049 208 1072 l 174 1049 q 117 980 138 1022 q 97 882 97 938 l 97 222 q 117 123 97 164 q 174 54 138 82 q 248 13 210 28 q 322 -1 286 -1 l 468 -1 q 542 13 504 -1 q 615 54 579 28 q 671 123 651 82 q 690 222 690 164 l 690 882 q 671 980 690 938 q 615 1049 651 1022 l 617 1049 q 542 1088 581 1072 q 468 1103 503 1103 m 432 139 l 356 139 q 283 168 304 139 q 261 233 261 197 l 261 869 q 283 933 261 904 q 356 963 304 963 l 432 963 q 505 933 483 963 q 526 869 526 904 l 526 233 q 505 168 526 197 q 432 139 483 139 "},"1":{"ha":788,"x_min":111,"x_max":511,"o":"m 147 850 l 347 850 l 347 43 q 429 -22 347 -22 q 511 43 511 -22 l 511 1057 q 446 1125 511 1122 q 394 1113 414 1126 q 367 1076 375 1099 q 329 1006 356 1036 q 268 964 303 976 q 200 949 231 954 q 147 943 169 943 q 113 896 111 943 q 147 850 114 850 "},"2":{"ha":788,"x_min":101,"x_max":717,"o":"m 471 1103 l 325 1103 q 249 1088 289 1103 q 174 1049 210 1072 l 175 1049 q 121 980 140 1022 q 101 882 101 938 l 101 814 q 182 749 101 749 q 264 814 264 749 l 264 869 q 285 933 264 904 q 358 963 307 963 l 435 963 q 508 933 486 963 q 529 869 529 904 l 529 757 q 473 661 529 710 q 314 569 417 613 q 156 456 210 522 q 101 303 101 390 l 101 83 q 118 24 101 50 q 188 -1 135 -1 l 660 -1 q 714 71 717 -1 q 660 139 713 139 l 264 139 l 264 290 q 319 397 264 344 q 479 499 374 450 q 638 610 582 547 q 693 746 693 674 l 693 882 q 674 980 693 938 q 618 1049 654 1022 l 619 1049 q 544 1088 583 1072 q 471 1103 504 1103 "},"3":{"ha":788,"x_min":97,"x_max":690,"o":"m 322 -1 l 468 -1 q 542 13 504 -1 q 615 54 579 28 q 671 123 651 82 q 690 222 690 164 l 690 413 q 668 518 690 483 l 654 533 l 635 567 q 649 586 640 574 q 665 610 657 599 q 690 717 690 650 l 690 882 q 671 980 690 938 q 615 1049 651 1022 l 617 1049 q 542 1088 581 1072 q 468 1103 503 1103 l 322 1103 q 247 1088 286 1103 q 172 1049 208 1072 l 174 1049 q 117 980 138 1022 q 97 882 97 938 l 97 814 q 179 749 97 749 q 261 814 261 749 l 261 869 q 283 933 261 904 q 356 963 304 963 l 432 963 q 505 933 483 963 q 526 869 526 904 l 526 728 q 508 663 526 692 q 432 635 489 635 l 333 635 q 281 564 281 635 q 333 496 281 496 l 432 496 q 506 466 485 496 q 526 401 526 436 l 526 233 q 505 168 526 197 q 432 139 483 139 l 356 139 q 283 168 304 139 q 261 233 261 197 l 261 317 q 179 382 261 382 q 97 317 97 382 l 97 222 q 117 123 97 164 q 174 54 138 82 q 248 13 210 28 q 322 -1 286 -1 "},"4":{"ha":788,"x_min":33,"x_max":742,"o":"m 124 201 l 460 201 l 460 43 q 540 -22 460 -22 q 624 43 624 -22 l 624 201 l 686 201 q 740 271 738 201 q 686 340 742 340 l 624 340 l 624 1043 q 540 1110 624 1110 q 460 1043 460 1110 l 460 340 l 219 340 l 404 1007 l 403 1006 q 395 1062 413 1040 q 339 1092 378 1083 q 238 1035 254 1107 l 38 313 q 34 294 35 306 q 33 274 33 283 q 55 222 33 240 q 124 201 76 203 "},"5":{"ha":788,"x_min":92,"x_max":697,"o":"m 314 -1 l 475 -1 q 548 13 510 -1 q 622 54 586 28 q 678 123 658 82 q 697 222 697 164 l 697 463 q 622 631 697 581 q 475 685 547 685 l 269 685 l 269 963 l 636 963 q 690 1033 693 963 q 636 1103 688 1103 l 192 1103 q 115 1069 132 1103 l 115 1072 q 107 1043 110 1056 q 104 1019 104 1031 l 104 626 q 127 564 104 582 q 192 546 150 546 l 439 546 q 513 516 492 546 q 533 451 533 486 l 533 233 q 512 168 533 197 q 439 139 490 139 l 349 139 q 276 168 297 139 q 254 233 254 197 l 254 317 q 174 382 254 382 q 92 317 92 382 l 92 222 q 165 54 92 108 q 240 13 201 28 q 314 -1 278 -1 "},"6":{"ha":788,"x_min":103,"x_max":696,"o":"m 532 450 l 532 233 q 510 168 532 197 q 438 139 489 139 l 361 139 q 288 168 310 139 q 267 233 267 197 l 267 450 q 288 515 267 485 q 361 544 310 544 l 438 544 q 510 515 489 544 q 532 450 532 485 m 267 665 l 267 869 q 288 933 267 904 q 361 963 310 963 l 438 963 q 510 933 489 963 q 532 869 532 904 l 532 814 q 614 749 532 749 q 696 814 696 749 l 696 882 q 676 980 696 938 q 621 1049 657 1022 l 622 1049 q 547 1088 586 1072 q 474 1103 508 1103 l 328 1103 q 253 1088 292 1103 q 178 1047 214 1072 l 179 1047 q 123 978 143 1019 q 103 882 103 938 l 103 222 q 179 53 103 106 l 178 53 q 328 -1 256 -1 l 474 -1 q 547 13 510 -1 q 621 54 585 28 q 676 123 657 82 q 696 222 696 164 l 696 461 q 676 560 696 517 q 621 628 657 603 l 622 628 q 548 668 586 653 q 474 683 510 683 l 340 683 q 313 678 332 683 q 267 665 293 674 "},"7":{"ha":788,"x_min":47,"x_max":740,"o":"m 719 967 q 736 1007 732 983 q 738 1053 740 1031 q 642 1103 731 1103 l 100 1103 q 47 1033 47 1103 q 100 963 50 963 l 547 963 q 391 684 451 813 q 304 456 331 556 q 265 248 281 351 q 243 43 250 144 q 325 -25 236 -19 q 391 -11 367 -28 q 418 43 415 6 q 441 262 425 150 q 481 476 457 374 q 565 707 506 583 q 719 967 625 831 "},"8":{"ha":788,"x_min":85,"x_max":718,"o":"m 85 413 l 85 222 q 158 54 85 108 q 233 13 194 28 q 307 -1 271 -1 l 494 -1 q 569 13 531 -1 q 643 54 607 28 q 718 222 718 110 l 718 413 q 676 518 718 485 l 625 565 l 667 611 q 697 717 697 649 l 697 882 q 678 980 697 938 q 622 1049 658 1022 l 624 1049 q 549 1088 588 1072 q 475 1103 510 1103 l 329 1103 q 254 1088 293 1103 q 179 1049 215 1072 l 181 1049 q 125 978 144 1021 q 104 882 106 936 l 104 717 q 135 611 104 646 l 178 567 l 126 519 q 97 476 107 501 q 85 413 86 450 m 268 728 l 268 869 q 290 933 268 904 q 363 963 311 963 l 439 963 q 512 933 490 963 q 533 869 533 904 l 533 728 q 513 663 533 692 q 439 635 492 635 l 363 635 q 289 663 310 635 q 268 728 268 692 m 249 233 l 249 401 q 253 435 249 418 q 267 466 257 453 q 296 488 278 479 q 342 496 314 496 l 460 496 q 506 488 488 496 q 534 466 524 479 q 549 435 544 453 q 553 401 553 418 l 553 233 q 532 168 553 197 q 460 139 511 139 l 342 139 q 269 168 290 139 q 249 233 249 197 "},"9":{"ha":788,"x_min":103,"x_max":696,"o":"m 696 222 l 696 882 q 621 1050 696 997 l 622 1050 q 474 1103 546 1103 l 328 1103 q 253 1088 292 1103 q 178 1049 214 1072 l 179 1049 q 123 980 143 1022 q 103 882 103 938 l 103 642 q 123 543 103 585 q 179 474 143 501 q 253 434 215 449 q 328 419 292 419 l 458 419 q 532 436 479 419 l 532 233 q 510 168 532 197 q 438 139 489 139 l 361 139 q 288 168 310 139 q 267 233 267 197 l 267 288 q 185 356 267 356 q 103 288 103 356 l 103 222 q 123 123 103 164 q 179 54 143 82 q 253 13 215 28 q 328 -1 292 -1 l 474 -1 q 548 15 510 -1 q 622 56 586 31 l 621 56 q 676 123 657 82 q 696 222 696 164 m 532 869 l 532 653 q 510 589 532 618 q 438 560 489 560 l 361 560 q 288 589 310 560 q 267 653 267 618 l 267 869 q 288 933 267 904 q 361 963 310 963 l 438 963 q 510 933 489 963 q 532 869 532 904 "},"!":{"ha":454,"x_min":117,"x_max":342,"o":"m 311 363 l 311 1043 q 228 1110 311 1110 q 147 1043 147 1110 l 147 363 q 228 297 147 297 q 311 363 311 297 m 342 113 q 309 192 342 160 q 229 224 276 224 q 149 192 182 224 q 117 113 117 160 q 149 31 117 64 q 229 -1 182 -1 q 309 31 276 -1 q 342 113 342 64 "},"\"":{"ha":460,"x_min":88,"x_max":385,"o":"m 190 799 l 190 1128 q 139 1167 190 1167 q 88 1128 88 1167 l 88 799 q 139 756 88 756 q 190 799 190 756 m 385 799 l 385 1128 q 333 1167 385 1167 q 282 1128 282 1167 l 282 799 q 333 756 282 756 q 385 799 385 756 "},"#":{"ha":1079,"x_min":29,"x_max":1051,"o":"m 261 15 l 371 346 l 569 346 l 468 39 q 506 -21 451 -11 q 576 15 565 -29 l 688 346 l 931 346 q 982 400 982 346 q 931 457 982 457 l 724 457 l 793 664 l 999 664 q 1051 719 1051 664 q 999 775 1051 775 l 832 775 l 928 1063 q 890 1121 942 1106 l 892 1121 q 818 1082 840 1133 l 818 1083 l 715 775 l 515 775 l 611 1063 q 572 1121 626 1107 q 531 1115 549 1126 q 503 1083 513 1103 l 400 775 l 172 775 q 117 719 115 775 q 172 664 119 664 l 361 664 l 293 457 l 89 457 q 32 400 29 457 q 89 346 33 346 l 254 346 l 153 39 q 189 -21 132 -10 q 261 15 247 -32 m 408 457 l 476 664 l 676 664 l 608 457 l 408 457 "},"$":{"ha":838,"x_min":99,"x_max":750,"o":"m 394 1138 l 394 1075 l 321 1075 q 246 1060 285 1075 q 171 1021 207 1044 l 172 1021 q 99 853 99 967 l 99 717 q 172 549 99 606 q 321 496 249 496 l 394 496 l 394 168 l 356 168 q 283 197 304 168 q 263 261 263 226 l 263 314 q 179 379 263 379 q 99 314 99 379 l 99 250 q 172 82 99 136 q 247 42 208 56 q 321 28 285 28 l 394 28 l 394 -43 q 426 -72 394 -72 q 460 -43 460 -75 l 460 28 l 528 28 q 675 82 600 28 q 750 250 750 136 l 750 413 q 731 511 750 468 q 675 579 711 554 l 676 579 q 602 619 640 604 q 528 635 564 635 l 460 635 l 460 936 l 492 936 q 565 907 543 936 q 586 842 586 878 l 586 772 q 667 706 586 706 q 750 772 750 706 l 750 853 q 731 953 750 911 q 675 1021 711 994 l 676 1021 q 602 1060 640 1044 q 528 1075 564 1075 l 460 1075 l 460 1138 q 426 1165 460 1167 q 394 1138 394 1164 m 460 496 l 492 496 q 565 466 543 496 q 586 401 586 436 l 586 261 q 565 197 586 226 q 492 168 543 168 l 460 168 l 460 496 m 263 728 l 263 842 q 283 907 263 878 q 356 936 304 936 l 394 936 l 394 635 l 356 635 q 283 663 304 635 q 263 728 263 692 "},"%":{"ha":1179,"x_min":58,"x_max":1136,"o":"m 1136 264 q 1120 369 1136 321 q 1071 456 1104 417 q 899 532 1008 532 q 729 456 797 532 q 661 264 661 379 q 681 159 663 206 q 731 74 699 113 q 899 -3 793 -3 q 997 18 953 -3 q 1072 76 1040 39 q 1118 165 1100 115 q 1136 264 1136 214 m 347 -14 l 922 1094 q 923 1117 929 1106 q 901 1136 917 1129 q 846 1107 871 1147 q 706 836 778 975 q 562 557 635 697 q 417 278 489 417 q 278 7 346 139 l 278 8 q 296 -33 263 -21 q 325 -34 311 -40 q 347 -14 339 -28 m 535 819 q 469 1011 535 933 q 297 1089 407 1089 q 128 1011 197 1089 q 58 819 58 933 q 78 715 60 763 q 129 629 97 668 q 202 572 160 590 q 297 553 244 553 q 395 574 351 553 q 471 632 439 594 q 517 721 499 672 q 535 819 535 769 m 1007 264 q 978 156 1007 192 q 899 119 950 119 q 818 162 844 119 q 792 264 792 204 q 818 368 792 325 q 899 411 844 411 q 978 371 950 411 q 1007 264 1007 331 m 404 819 q 376 710 404 747 q 297 674 347 674 q 217 717 243 674 q 190 819 190 761 q 217 924 190 881 q 297 967 243 967 q 376 926 347 967 q 404 819 404 886 "},"&":{"ha":914,"x_min":85,"x_max":903,"o":"m 339 513 l 628 176 q 594 149 614 160 q 547 139 574 139 l 342 139 q 269 168 290 139 q 249 233 249 197 l 249 376 q 251 412 249 393 q 261 450 254 431 l 261 449 q 290 482 268 465 q 339 513 311 499 m 885 115 l 806 210 l 806 489 q 722 543 806 543 q 642 489 642 543 l 642 401 l 476 592 q 403 676 435 640 q 351 735 372 711 q 310 783 326 763 q 303 825 303 794 l 303 869 q 324 933 303 904 q 397 963 346 963 l 478 963 q 551 933 529 963 q 572 869 572 904 l 572 807 q 653 742 572 742 q 736 807 736 742 l 736 882 q 717 980 736 938 q 661 1049 697 1022 l 663 1049 q 587 1088 626 1072 q 514 1103 547 1103 l 363 1103 q 288 1088 326 1103 q 213 1049 249 1072 l 214 1049 q 140 882 140 994 l 140 821 q 141 806 140 818 q 143 778 142 794 q 182 700 149 735 l 208 667 l 250 619 q 187 579 215 601 q 136 533 158 557 q 85 386 85 483 l 85 222 q 158 54 85 108 q 233 13 194 28 q 307 -1 271 -1 l 582 -1 q 653 10 615 -1 q 732 47 692 22 l 749 32 l 767 13 q 814 -12 788 -12 q 869 13 838 -12 q 892 42 882 25 q 903 72 903 58 q 899 92 903 81 q 885 115 894 104 "},"'":{"ha":239,"x_min":68,"x_max":169,"o":"m 169 785 l 169 1128 q 119 1169 169 1169 q 68 1128 68 1169 l 68 785 q 119 739 68 739 q 169 785 169 739 "},"(":{"ha":514,"x_min":132,"x_max":451,"o":"m 340 1128 q 184 830 236 994 q 132 490 132 665 q 144 321 132 406 q 185 151 157 236 q 250 -8 208 69 q 340 -151 292 -86 q 385 -190 364 -178 q 421 -193 406 -201 l 419 -193 q 431 -136 449 -175 q 333 153 364 -3 q 301 490 301 308 q 330 828 301 676 q 431 1114 358 979 q 419 1172 451 1153 q 340 1128 390 1188 "},")":{"ha":514,"x_min":68,"x_max":389,"o":"m 389 490 q 336 830 389 665 q 178 1128 283 994 q 135 1169 154 1157 q 100 1172 115 1182 q 89 1114 68 1154 q 189 828 161 979 q 217 490 217 676 q 188 152 217 304 q 89 -136 160 0 q 81 -170 78 -157 q 100 -193 85 -183 q 178 -151 131 -212 q 270 -8 229 -85 q 336 151 311 68 q 389 490 389 322 "},"*":{"ha":694,"x_min":72,"x_max":622,"o":"m 426 872 l 622 928 q 606 983 613 956 q 588 1043 599 1011 q 492 1007 543 1026 q 400 972 440 988 l 400 1183 l 294 1183 l 294 972 l 108 1042 l 72 929 q 170 900 115 917 q 269 869 225 883 l 132 693 q 177 660 158 674 q 224 626 196 646 l 350 810 l 468 624 l 563 694 q 494 784 531 736 q 426 872 458 832 "},"+":{"ha":1157,"x_min":139,"x_max":1019,"o":"m 638 492 l 971 492 q 1019 546 1019 492 q 1007 586 1019 571 q 971 601 994 601 l 638 601 l 638 951 q 578 1000 638 1000 q 538 985 550 1000 q 525 947 525 971 l 525 597 l 186 601 q 150 586 161 601 q 140 546 139 571 q 186 492 143 492 l 525 488 l 525 121 q 576 71 525 72 q 638 125 638 68 l 638 492 "},",":{"ha":394,"x_min":79,"x_max":318,"o":"m 101 -110 q 92 -142 79 -122 q 102 -147 96 -144 q 113 -150 108 -150 q 153 -142 132 -150 q 206 -113 178 -133 q 261 -64 235 -93 q 311 114 318 -10 q 276 194 308 163 q 199 225 244 225 q 119 192 151 225 q 88 114 88 160 q 119 39 88 71 q 199 -1 151 7 q 171 -63 196 -40 q 101 -110 146 -86 "},"-":{"ha":464,"x_min":29,"x_max":439,"o":"m 93 479 l 374 479 q 436 549 439 479 q 374 619 436 619 l 93 619 q 47 602 64 619 q 29 549 31 585 q 93 479 29 479 "},".":{"ha":394,"x_min":88,"x_max":310,"o":"m 310 114 q 278 192 310 160 q 199 225 246 225 q 119 192 151 225 q 88 114 88 160 q 119 34 88 67 q 199 1 151 1 q 278 34 246 1 q 310 114 310 67 "},"/":{"ha":514,"x_min":36,"x_max":481,"o":"m 153 -157 l 481 1138 l 364 1138 q 201 491 281 810 q 36 -157 121 172 l 153 -157 "},":":{"ha":426,"x_min":103,"x_max":326,"o":"m 326 113 q 293 192 326 160 q 214 224 260 224 q 135 192 167 224 q 103 113 103 160 q 135 31 103 64 q 214 -1 167 -1 q 293 31 260 -1 q 326 113 326 64 m 326 724 q 293 803 326 771 q 214 836 260 836 q 135 803 167 836 q 103 724 103 771 q 135 644 103 676 q 214 611 167 611 q 293 644 260 611 q 326 724 326 676 "},";":{"ha":426,"x_min":96,"x_max":335,"o":"m 118 -110 q 108 -142 96 -122 q 119 -147 113 -144 q 129 -150 125 -150 q 171 -140 143 -150 l 169 -142 q 223 -114 194 -133 q 279 -64 251 -94 q 329 114 335 -6 q 292 194 325 163 q 215 225 260 225 q 136 192 168 225 q 104 114 104 160 q 136 39 104 71 q 215 -1 168 7 q 187 -62 211 -39 q 118 -110 163 -86 m 326 724 q 293 803 326 771 q 214 836 260 836 q 135 803 167 836 q 103 724 103 771 q 135 644 103 676 q 214 611 167 611 q 293 644 260 611 q 326 724 326 676 "},"<":{"ha":1157,"x_min":193,"x_max":964,"o":"m 193 478 l 964 144 l 964 268 q 697 382 803 336 q 521 458 590 428 q 409 507 451 489 q 335 539 367 525 l 964 808 l 964 932 q 578 765 767 847 q 193 600 390 683 l 193 478 "},"=":{"ha":1157,"x_min":186,"x_max":971,"o":"m 186 638 l 971 638 l 971 749 l 186 749 l 186 638 m 186 329 l 971 329 l 971 442 l 186 442 l 186 329 "},">":{"ha":1157,"x_min":193,"x_max":964,"o":"m 193 144 l 964 478 l 964 600 q 769 683 865 642 q 579 765 674 724 q 389 847 485 806 q 193 932 293 889 l 193 808 q 349 742 268 776 q 510 672 429 707 q 670 603 590 638 q 825 538 750 569 l 193 268 l 193 144 "},"?":{"ha":751,"x_min":71,"x_max":676,"o":"m 454 1103 l 293 1103 q 218 1088 257 1103 q 143 1049 179 1072 l 144 1049 q 71 882 71 994 l 71 814 q 151 749 71 749 q 235 814 235 749 l 235 869 q 256 933 235 904 q 328 963 276 963 l 418 963 q 491 933 469 963 q 513 869 513 904 l 513 826 q 480 731 513 774 q 386 661 447 689 q 295 576 328 632 q 263 442 263 521 l 263 338 q 343 275 263 275 q 426 338 426 278 l 426 444 q 551 606 426 526 q 676 815 676 686 l 676 882 q 657 980 676 938 q 601 1049 638 1022 l 603 1049 q 527 1088 567 1072 q 454 1103 488 1103 m 457 113 q 424 192 457 160 q 344 224 392 224 q 265 192 297 224 q 232 113 232 160 q 265 31 232 64 q 344 -1 297 -1 q 424 31 392 -1 q 457 113 457 64 "},"@":{"ha":1389,"x_min":50,"x_max":1347,"o":"m 1347 619 q 1334 737 1347 681 q 1300 840 1321 793 q 1215 964 1268 907 q 1092 1061 1161 1021 q 937 1122 1021 1101 q 761 1143 853 1143 q 440 1074 583 1143 q 193 875 296 1004 q 86 674 122 783 q 50 446 50 565 q 64 308 50 371 q 104 186 78 244 q 195 49 139 111 q 328 -61 251 -12 q 707 -158 481 -158 q 951 -116 833 -158 q 1189 15 1068 -74 l 1188 15 q 1215 65 1215 38 q 1199 108 1215 88 q 1172 127 1185 119 q 1147 135 1158 135 q 1118 124 1131 135 q 919 11 1018 46 q 704 -24 821 -24 q 338 107 472 -24 q 203 447 203 236 q 219 584 203 513 q 261 708 236 656 q 466 924 340 847 q 756 1000 592 1000 q 1072 893 949 1000 q 1163 772 1133 839 q 1193 622 1193 706 q 1165 463 1193 539 q 1078 331 1136 388 q 1025 294 1050 306 q 976 281 1000 283 q 937 289 946 276 q 928 318 928 301 q 928 329 928 321 q 933 351 929 338 l 932 350 l 1032 764 q 1022 799 1035 783 q 976 822 1008 814 q 890 786 914 842 q 888 769 888 779 q 888 753 888 760 q 889 735 888 743 l 856 724 q 817 771 828 758 q 801 786 806 783 l 807 785 q 755 803 785 794 q 701 811 725 811 q 626 800 667 811 q 457 689 524 774 q 385 556 410 631 q 360 394 360 482 q 422 202 363 264 q 593 140 481 140 q 688 161 638 140 q 783 221 738 182 q 852 158 813 176 q 940 139 892 139 q 1067 161 1008 139 q 1171 224 1126 183 q 1303 400 1258 300 q 1347 619 1347 500 m 625 269 q 554 303 576 269 q 532 392 532 336 q 547 505 532 453 q 586 599 561 557 q 688 676 628 668 q 781 651 746 682 q 801 617 793 636 q 814 575 808 599 l 779 421 q 719 312 761 354 q 625 269 678 269 "},"A":{"ha":953,"x_min":-7,"x_max":958,"o":"m 476 967 l 782 33 l 782 35 q 805 1 789 14 q 840 -12 821 -12 q 860 -10 851 -12 q 881 -6 869 -8 q 939 83 958 19 q 781 565 861 322 q 624 1046 701 807 q 595 1082 614 1064 q 557 1103 576 1100 q 511 1108 533 1106 q 476 1110 489 1110 q 442 1108 464 1110 q 396 1101 419 1106 q 355 1083 372 1099 q 331 1046 338 1068 l 14 83 q 72 -6 -7 19 l 71 -6 q 92 -10 82 -8 q 114 -12 103 -12 q 149 1 135 -12 q 172 35 164 14 l 172 33 l 476 967 m 581 333 q 549 409 581 378 q 474 440 518 440 q 399 409 429 440 q 368 333 368 378 q 399 258 368 289 q 474 226 429 226 q 549 258 518 226 q 581 333 581 289 "},"B":{"ha":950,"x_min":111,"x_max":853,"o":"m 688 410 l 688 233 q 667 168 688 197 q 594 139 646 139 l 404 139 q 346 69 346 139 q 359 18 346 38 q 396 -1 372 -1 l 601 -1 q 680 13 640 -1 q 764 54 719 26 q 853 222 853 108 l 853 421 q 842 483 853 457 q 814 529 832 510 q 786 555 803 543 q 751 578 769 567 q 801 634 778 599 q 825 725 825 669 l 825 882 q 808 982 825 939 q 754 1051 790 1025 l 756 1051 q 678 1089 719 1075 q 601 1103 638 1103 l 199 1103 q 137 1086 163 1103 q 111 1019 111 1069 l 111 56 q 193 -11 111 -11 q 249 3 224 -11 q 275 46 275 18 l 276 963 l 567 963 q 640 933 618 963 q 661 869 661 904 l 661 729 q 660 699 661 714 q 651 672 658 683 q 626 651 643 660 q 579 642 610 643 q 535 675 560 661 q 486 689 511 689 q 406 656 439 689 q 372 574 372 622 q 406 492 372 525 q 486 458 439 458 q 581 506 542 458 q 664 472 640 501 q 688 410 688 442 "},"C":{"ha":950,"x_min":110,"x_max":860,"o":"m 860 222 l 860 314 q 776 379 860 379 q 694 314 694 379 l 694 233 q 674 168 694 197 q 601 139 653 139 l 368 139 q 296 168 317 139 q 275 233 275 197 l 275 869 q 296 933 275 904 q 368 963 317 963 l 601 963 q 674 933 653 963 q 694 869 694 904 l 694 786 q 776 719 694 719 q 860 786 860 719 l 860 882 q 840 980 860 938 q 785 1049 821 1022 l 786 1049 q 711 1088 750 1072 q 636 1103 672 1103 l 333 1103 q 258 1088 297 1103 q 183 1049 219 1072 l 185 1049 q 129 980 149 1022 q 110 882 110 938 l 110 222 q 129 123 110 164 q 185 54 149 82 q 259 13 221 28 q 333 -1 297 -1 l 636 -1 q 710 13 672 -1 q 785 54 749 28 q 860 222 860 110 "},"D":{"ha":958,"x_min":111,"x_max":860,"o":"m 601 139 l 413 139 q 353 69 353 139 q 366 18 353 38 q 403 -1 379 -1 l 636 -1 q 710 13 672 -1 q 785 54 749 28 q 860 222 860 110 l 860 882 q 840 980 860 938 q 785 1049 821 1022 l 786 1049 q 711 1088 750 1072 q 636 1103 672 1103 l 199 1103 q 137 1086 163 1103 q 111 1019 111 1069 l 111 57 q 193 -10 111 -10 q 251 8 228 -10 q 275 57 275 26 l 276 963 l 601 963 q 674 933 653 963 q 694 869 694 904 l 694 233 q 674 168 694 197 q 601 139 653 139 "},"E":{"ha":800,"x_min":113,"x_max":764,"o":"m 200 -1 l 708 -1 q 761 71 764 -1 q 708 139 760 139 l 276 139 l 276 963 l 683 963 q 738 1033 740 963 q 683 1103 735 1103 l 200 1103 q 131 1077 149 1103 q 113 1019 113 1051 l 113 83 q 131 25 113 51 q 200 -1 149 -1 m 632 574 q 598 656 632 622 q 515 689 564 689 q 435 656 468 689 q 401 574 401 622 q 435 492 401 525 q 515 458 468 458 q 598 492 564 458 q 632 574 632 525 "},"F":{"ha":765,"x_min":113,"x_max":728,"o":"m 276 58 l 276 963 l 672 963 q 725 1033 728 963 q 672 1103 722 1103 l 200 1103 q 131 1077 149 1103 q 113 1019 113 1051 l 113 58 q 194 -8 113 -8 q 276 58 276 -8 m 632 574 q 623 618 632 597 q 598 655 614 639 q 561 680 582 671 q 515 689 540 689 q 435 656 468 689 q 401 574 401 622 q 435 492 401 525 q 515 458 468 458 q 561 467 540 458 q 598 492 582 476 q 623 528 614 507 q 632 574 632 550 "},"G":{"ha":950,"x_min":111,"x_max":847,"o":"m 682 501 l 682 233 q 661 168 682 197 q 589 139 640 139 l 371 139 q 326 147 344 139 q 297 169 308 156 q 281 199 286 182 q 276 233 276 215 l 276 869 q 297 933 276 904 q 371 963 318 963 l 575 963 q 647 933 626 963 q 668 869 668 904 l 668 786 q 750 719 668 719 q 832 786 832 719 l 832 882 q 758 1049 832 994 l 760 1049 q 685 1088 724 1072 q 610 1103 646 1103 l 335 1103 q 260 1088 299 1103 q 185 1049 221 1072 l 186 1049 q 131 981 151 1022 q 111 882 111 939 l 111 222 q 131 123 111 164 q 186 54 150 82 q 260 13 222 28 q 335 -1 299 -1 l 624 -1 q 698 13 660 -1 q 772 54 736 28 q 847 222 847 110 l 847 504 q 765 569 847 569 q 682 501 682 569 m 617 517 q 608 561 617 540 q 583 597 599 582 q 546 622 567 613 q 500 631 525 631 q 419 597 453 631 q 386 517 386 564 q 419 435 386 468 q 500 401 453 401 q 546 410 525 401 q 583 435 567 419 q 608 472 599 450 q 617 517 617 493 "},"H":{"ha":956,"x_min":111,"x_max":864,"o":"m 699 1043 l 699 58 q 781 -8 699 -8 q 864 58 864 -8 l 864 1043 q 781 1110 864 1110 q 699 1043 699 1110 m 276 58 l 276 1043 q 193 1110 276 1110 q 111 1043 111 1110 l 111 58 q 193 -8 111 -8 q 276 58 276 -8 m 601 574 q 568 656 601 622 q 486 689 535 689 q 406 656 439 689 q 372 574 372 622 q 406 492 372 525 q 486 458 439 458 q 568 492 535 458 q 601 574 601 525 "},"I":{"ha":393,"x_min":117,"x_max":282,"o":"m 282 58 l 282 1043 q 199 1110 282 1110 q 117 1043 117 1110 l 117 58 q 199 -8 117 -8 q 282 58 282 -8 "},"J":{"ha":750,"x_min":58,"x_max":638,"o":"m 638 222 l 638 1043 q 554 1110 638 1110 q 472 1043 472 1110 l 472 233 q 451 168 472 197 q 379 139 431 139 l 315 139 q 243 168 264 139 q 222 233 222 197 l 222 314 q 139 379 222 379 q 58 314 58 379 l 58 222 q 132 54 58 108 q 206 13 168 28 q 281 -1 244 -1 l 414 -1 q 488 13 450 -1 q 563 54 526 28 q 638 222 638 110 "},"K":{"ha":904,"x_min":110,"x_max":900,"o":"m 699 1086 l 275 589 l 275 1043 q 192 1110 275 1110 q 110 1043 110 1110 l 110 58 q 192 -8 110 -8 q 275 58 275 -8 l 275 338 l 638 764 l 824 981 q 842 1024 842 999 q 831 1054 842 1039 q 806 1085 821 1069 q 746 1111 775 1111 q 699 1086 719 1111 m 501 426 l 765 42 q 788 21 776 29 q 811 13 800 13 q 836 18 822 13 q 865 33 850 24 l 864 33 q 900 97 900 61 q 888 139 900 119 l 889 138 l 621 529 q 576 560 603 560 q 521 540 549 560 l 522 540 q 488 474 488 515 q 501 426 488 446 "},"L":{"ha":806,"x_min":111,"x_max":792,"o":"m 199 -1 l 739 -1 q 789 71 792 -1 q 739 139 789 139 l 275 139 l 275 1043 q 192 1110 275 1110 q 111 1043 111 1110 l 111 83 q 129 25 111 51 q 199 -1 147 -1 "},"M":{"ha":1193,"x_min":103,"x_max":1108,"o":"m 963 1110 q 920 1104 942 1110 q 879 1088 899 1099 q 844 1063 860 1078 q 821 1028 829 1047 q 770 848 797 944 q 715 653 743 751 q 661 458 688 554 q 611 281 635 363 l 393 1024 q 369 1060 385 1044 q 335 1087 354 1076 q 293 1103 315 1097 q 250 1108 271 1108 q 151 1089 203 1110 q 103 1015 103 1068 l 103 58 q 185 -8 103 -8 q 267 58 267 -8 l 267 776 l 307 782 q 374 562 343 661 q 435 367 404 463 l 535 43 q 561 7 542 19 q 607 -7 581 -6 q 682 40 667 -8 l 849 596 l 904 776 l 944 772 l 944 58 q 1026 -8 944 -8 q 1108 58 1108 -8 l 1108 1015 q 1060 1089 1108 1069 q 963 1110 1007 1110 "},"N":{"ha":986,"x_min":111,"x_max":890,"o":"m 726 1043 l 726 292 l 688 288 l 388 1040 q 331 1095 368 1081 q 258 1110 294 1110 q 161 1092 207 1110 q 111 1015 111 1072 l 111 58 q 193 -8 111 -8 q 276 58 276 -8 l 276 808 l 314 813 l 615 61 q 638 28 624 42 q 670 8 653 15 q 707 -3 688 0 q 744 -7 726 -7 q 793 -1 768 -7 q 840 14 818 4 l 839 14 q 890 85 890 36 l 890 1043 q 808 1110 890 1110 q 726 1043 726 1110 "},"O":{"ha":958,"x_min":110,"x_max":860,"o":"m 636 1103 l 333 1103 q 258 1088 297 1103 q 183 1049 219 1072 l 185 1049 q 129 980 149 1022 q 110 882 110 938 l 110 222 q 129 123 110 164 q 185 54 149 82 q 259 13 221 28 q 333 -1 297 -1 l 636 -1 q 710 13 672 -1 q 785 54 749 28 q 860 222 860 110 l 860 882 q 840 980 860 938 q 785 1049 821 1022 l 786 1049 q 711 1088 750 1072 q 636 1103 672 1103 m 601 139 l 368 139 q 296 168 317 139 q 275 233 275 197 l 275 869 q 296 933 275 904 q 368 963 317 963 l 601 963 q 674 933 653 963 q 694 869 694 904 l 694 233 q 674 168 694 197 q 601 139 653 139 "},"P":{"ha":926,"x_min":113,"x_max":826,"o":"m 413 408 l 604 408 q 678 422 640 408 q 751 463 715 436 q 826 631 826 518 l 826 882 q 807 980 826 938 q 751 1049 788 1022 l 753 1049 q 678 1088 717 1072 q 604 1103 639 1103 l 199 1103 q 138 1086 163 1103 q 113 1019 113 1069 l 113 56 q 193 -11 113 -11 q 276 56 276 -11 l 276 963 l 568 963 q 641 933 619 963 q 663 869 663 904 l 663 642 q 641 578 663 607 q 568 549 619 549 l 421 549 q 363 478 363 549 q 376 427 363 446 q 413 408 389 408 "},"Q":{"ha":974,"x_min":111,"x_max":929,"o":"m 597 139 l 368 139 q 295 168 317 139 q 274 233 274 197 l 274 869 q 295 933 274 904 q 368 963 317 963 l 601 963 q 675 933 654 963 q 696 869 696 904 l 699 226 q 667 159 699 179 q 597 139 635 139 m 608 322 q 575 403 608 369 q 493 436 542 436 q 413 403 446 436 q 379 322 379 369 q 413 240 379 274 q 493 207 446 207 q 575 240 542 207 q 608 322 608 274 m 915 11 l 826 101 q 851 158 842 128 q 860 222 860 189 l 860 882 q 840 980 860 938 q 785 1049 821 1022 l 786 1049 q 711 1088 750 1072 q 638 1103 672 1103 l 335 1103 q 259 1088 299 1103 q 185 1049 219 1072 l 186 1049 q 131 980 150 1022 q 111 882 111 938 l 111 222 q 186 54 111 110 q 260 13 222 28 q 335 -1 299 -1 l 638 -1 q 732 19 678 -1 l 828 -76 q 861 -94 846 -94 q 906 -68 881 -94 q 924 -46 918 -57 q 929 -24 929 -35 q 915 11 929 -3 "},"R":{"ha":936,"x_min":111,"x_max":918,"o":"m 504 457 l 767 17 l 765 18 q 817 -14 785 -14 q 871 6 839 -14 l 871 4 q 918 68 918 35 q 914 86 918 75 q 906 104 910 97 l 683 471 q 719 490 701 481 q 751 511 736 500 q 826 679 826 567 l 826 882 q 807 980 826 938 q 751 1049 788 1022 l 753 1049 q 678 1088 717 1072 q 603 1103 639 1103 l 199 1103 q 137 1086 163 1103 q 111 1019 111 1069 l 111 57 q 193 -10 111 -10 q 275 57 275 -10 l 275 963 l 568 963 q 640 933 619 963 q 661 869 661 904 l 661 690 q 640 626 661 656 q 568 597 619 597 l 406 597 q 347 526 347 597 q 360 476 347 494 q 397 457 374 457 l 504 457 "},"S":{"ha":968,"x_min":111,"x_max":861,"o":"m 638 635 l 369 635 q 297 663 318 635 q 276 728 276 692 l 276 869 q 297 933 276 904 q 369 963 318 963 l 603 963 q 675 933 654 963 q 696 869 696 904 l 696 800 q 778 735 696 735 q 861 800 861 735 l 861 882 q 842 980 861 938 q 786 1049 822 1022 l 788 1049 q 713 1088 751 1072 q 638 1103 674 1103 l 335 1103 q 260 1088 299 1103 q 185 1049 221 1072 l 186 1049 q 131 980 150 1022 q 111 882 111 938 l 111 717 q 186 549 111 607 q 335 496 263 496 l 603 496 q 675 466 654 496 q 696 401 696 436 l 696 233 q 675 168 696 197 q 603 139 654 139 l 369 139 q 297 168 318 139 q 276 233 276 197 l 276 314 q 193 379 276 379 q 111 314 111 379 l 111 222 q 186 54 111 110 q 260 13 222 28 q 335 -1 299 -1 l 638 -1 q 712 13 674 -1 q 786 54 750 28 q 861 222 861 110 l 861 413 q 842 511 861 468 q 786 579 822 554 l 788 579 q 713 619 751 604 q 638 635 674 635 "},"T":{"ha":788,"x_min":21,"x_max":778,"o":"m 482 56 l 482 963 l 725 963 q 775 1033 775 963 q 725 1103 778 1103 l 74 1103 q 21 1033 21 1103 q 74 963 24 963 l 317 963 l 317 56 q 399 -11 317 -11 q 482 56 482 -11 "},"U":{"ha":961,"x_min":110,"x_max":860,"o":"m 860 222 l 860 1043 q 776 1110 860 1110 q 694 1043 694 1110 l 694 233 q 674 168 694 197 q 601 139 653 139 l 368 139 q 296 168 317 139 q 275 233 275 197 l 275 1043 q 192 1110 275 1110 q 110 1043 110 1110 l 110 222 q 129 123 110 164 q 185 54 149 82 q 259 13 221 28 q 333 -1 297 -1 l 636 -1 q 710 13 672 -1 q 785 54 749 28 q 860 222 860 110 "},"V":{"ha":863,"x_min":22,"x_max":858,"o":"m 438 -7 q 498 1 468 -7 q 539 36 528 8 q 690 528 614 281 q 842 1018 767 775 q 782 1106 858 1085 q 743 1111 760 1111 q 683 1064 699 1111 q 624 870 656 974 q 559 661 592 767 q 495 453 526 556 q 438 264 464 351 q 401 378 421 317 q 363 503 382 440 q 324 625 343 565 q 292 735 306 685 l 189 1064 q 128 1111 175 1111 q 92 1106 113 1111 q 40 1072 58 1094 q 31 1018 22 1049 q 114 751 69 890 q 197 482 158 611 q 267 258 232 372 q 333 36 301 144 q 378 2 347 11 q 438 -7 410 -7 "},"W":{"ha":1276,"x_min":28,"x_max":1271,"o":"m 1100 1057 l 921 313 l 738 1056 q 704 1098 731 1088 q 650 1108 678 1108 q 594 1099 619 1108 q 563 1058 569 1089 l 385 308 q 344 464 363 394 q 311 592 326 533 q 283 703 296 651 q 258 806 271 756 l 196 1057 l 197 1056 q 103 1107 181 1119 q 47 1080 67 1100 q 35 1032 28 1060 l 285 35 l 283 36 q 312 -1 290 10 q 369 -11 333 -11 q 426 0 399 -11 q 461 35 454 11 l 631 711 l 668 711 l 839 33 l 838 35 q 872 -2 844 7 q 929 -11 899 -11 q 980 1 956 -11 q 1011 38 1004 14 l 1011 36 l 1261 1032 q 1253 1082 1271 1064 q 1196 1107 1236 1100 q 1131 1100 1156 1114 q 1099 1056 1107 1086 l 1100 1057 "},"X":{"ha":854,"x_min":38,"x_max":831,"o":"m 679 1078 l 436 667 l 192 1078 q 168 1103 181 1093 q 138 1113 156 1113 q 93 1100 115 1113 q 38 1038 38 1075 q 42 1019 38 1031 q 50 1000 46 1008 l 315 549 q 183 325 250 438 q 51 103 115 213 l 51 104 q 44 87 47 94 q 42 69 42 79 q 89 6 42 32 q 143 -11 119 -11 q 171 -3 160 -11 q 193 21 182 6 q 251 118 219 67 q 313 223 282 169 q 375 328 344 276 q 432 425 406 379 l 671 21 q 721 -11 693 -11 q 776 6 743 -11 q 821 69 821 29 q 814 103 821 86 l 553 544 l 821 1000 l 821 999 q 828 1016 826 1006 q 831 1036 831 1026 q 778 1100 831 1075 q 733 1113 753 1113 q 702 1103 714 1113 q 679 1078 690 1093 "},"Y":{"ha":864,"x_min":33,"x_max":836,"o":"m 517 56 l 517 421 q 656 687 601 583 q 744 855 710 790 q 797 956 778 919 q 828 1017 815 992 q 835 1035 833 1026 q 836 1053 836 1044 q 788 1114 836 1093 l 789 1114 q 743 1125 763 1125 q 710 1115 724 1125 q 686 1089 697 1106 q 625 974 657 1035 q 560 850 593 913 q 496 727 528 788 q 436 614 464 667 l 183 1089 q 128 1125 164 1125 q 79 1114 110 1125 l 81 1114 q 33 1054 33 1094 q 42 1017 33 1035 l 353 425 l 353 56 q 435 -11 353 -11 q 517 56 517 -11 "},"Z":{"ha":835,"x_min":25,"x_max":806,"o":"m 96 963 l 588 963 q 438 736 504 836 q 319 556 372 636 q 226 414 267 476 q 151 301 185 351 q 91 210 118 251 q 39 129 64 168 q 28 98 31 118 q 28 54 25 78 q 126 -1 35 -1 l 749 -1 q 800 71 803 -1 q 749 139 800 139 l 246 139 l 793 971 q 803 1003 801 982 q 804 1049 806 1025 q 776 1088 801 1074 q 706 1103 751 1103 l 96 1103 q 44 1033 44 1103 q 96 963 47 963 "},"[":{"ha":531,"x_min":168,"x_max":492,"o":"m 447 -64 l 322 -64 l 322 1044 l 447 1044 q 489 1104 488 1044 q 447 1165 492 1165 l 256 1165 q 188 1140 207 1165 q 168 1083 168 1115 l 168 -103 q 188 -160 168 -135 q 256 -185 207 -185 l 447 -185 q 489 -124 492 -185 q 447 -64 488 -64 "},"\\":{"ha":500,"x_min":25,"x_max":469,"o":"m 25 1138 l 353 -157 l 469 -157 q 305 491 385 172 q 142 1138 225 810 l 25 1138 "},"]":{"ha":531,"x_min":42,"x_max":364,"o":"m 364 -103 l 364 1083 q 346 1140 364 1115 q 278 1165 328 1165 l 86 1165 q 44 1104 42 1165 q 86 1044 46 1044 l 210 1044 l 210 -64 l 86 -64 q 44 -124 46 -64 q 86 -185 42 -185 l 278 -185 q 346 -160 328 -185 q 364 -103 364 -135 "},"^":{"ha":1389,"x_min":343,"x_max":1043,"o":"m 1032 772 l 786 1101 q 743 1136 767 1124 q 692 1147 719 1149 q 601 1101 639 1144 q 479 938 542 1022 q 356 772 417 853 q 347 756 350 765 q 343 739 343 746 q 356 711 343 724 q 429 732 392 694 l 696 1001 l 960 732 q 996 710 978 713 q 1029 717 1014 707 q 1043 742 1043 722 q 1032 772 1043 757 "},"_":{"ha":694,"x_min":15,"x_max":679,"o":"m 15 -226 l 679 -226 l 679 -111 l 15 -111 l 15 -226 "},"a":{"ha":847,"x_min":83,"x_max":767,"o":"m 308 0 l 490 0 q 529 19 517 0 q 542 65 542 38 q 490 131 542 131 l 335 131 q 260 149 282 131 q 239 204 239 168 l 239 258 q 244 288 239 275 q 260 325 249 301 q 286 347 269 340 q 333 354 303 354 l 614 354 l 615 50 q 622 19 615 31 q 638 1 628 7 q 662 -7 649 -6 q 690 -8 675 -8 q 767 58 767 -8 l 767 615 q 747 713 767 671 q 692 782 728 756 l 693 782 q 619 821 658 806 q 544 836 579 836 l 333 836 q 258 821 297 836 q 182 782 218 806 l 183 782 q 128 717 149 756 q 108 621 108 678 l 108 608 q 186 536 108 536 q 264 608 264 536 l 264 619 q 284 680 264 654 q 357 706 304 706 l 519 706 q 592 677 571 706 q 614 614 614 649 l 614 485 l 307 485 q 232 473 271 485 q 158 438 193 461 l 160 438 q 103 370 124 413 q 83 271 83 328 l 83 203 q 151 44 83 88 l 151 46 q 226 12 188 24 q 308 0 265 0 "},"b":{"ha":839,"x_min":99,"x_max":767,"o":"m 250 58 l 251 706 l 519 706 q 593 672 575 706 l 592 674 q 614 604 614 640 l 614 204 q 592 149 614 168 q 518 131 569 131 l 379 131 q 326 65 326 131 q 379 0 329 0 l 543 0 q 699 44 631 0 q 767 203 767 88 l 767 617 q 692 783 767 731 q 544 836 615 836 l 251 836 l 251 1044 q 175 1111 251 1111 q 99 1044 99 1111 l 99 58 q 175 -8 99 -8 q 226 8 203 -8 q 250 58 250 25 "},"c":{"ha":842,"x_min":99,"x_max":767,"o":"m 767 221 l 767 286 q 690 351 767 351 q 614 286 614 351 l 614 222 q 592 160 614 189 q 519 131 571 131 l 346 131 q 273 160 294 131 q 251 222 251 189 l 251 615 q 273 678 251 650 q 346 707 294 707 l 519 707 q 592 678 571 707 q 614 615 614 650 l 614 556 q 690 489 614 489 q 767 556 767 489 l 767 625 q 747 724 767 682 q 693 789 726 765 q 618 824 658 811 q 544 838 578 838 l 311 838 q 240 823 276 838 q 168 783 203 808 q 99 617 99 729 l 99 221 q 117 123 99 165 q 168 53 135 81 q 311 0 238 0 l 544 0 q 692 53 618 0 q 767 221 767 107 "},"d":{"ha":851,"x_min":99,"x_max":767,"o":"m 614 706 l 614 49 q 638 2 614 13 q 690 -8 661 -8 q 767 58 767 -8 l 767 1044 q 690 1111 767 1111 q 614 1044 614 1111 l 614 836 l 321 836 q 174 783 247 836 q 117 715 135 757 q 99 617 99 674 l 99 203 q 167 44 99 86 q 322 0 235 0 l 490 0 q 528 19 517 0 q 540 65 540 38 q 490 131 540 131 l 347 131 q 274 149 296 131 q 251 204 251 168 l 251 604 q 271 672 251 643 q 346 706 289 706 l 614 706 "},"e":{"ha":844,"x_min":99,"x_max":767,"o":"m 251 222 l 251 615 q 273 678 251 650 q 346 707 294 707 l 519 707 q 592 678 571 707 q 614 615 614 650 l 615 486 l 379 486 q 326 421 326 486 q 379 356 329 356 l 679 356 q 748 381 729 356 q 767 438 767 406 l 767 625 q 747 724 767 682 q 693 789 726 765 q 618 824 658 811 q 544 838 578 838 l 311 838 q 240 823 276 838 q 168 783 203 808 q 99 617 99 729 l 99 221 q 117 123 99 165 q 168 53 135 81 q 311 0 238 0 l 544 0 q 692 53 618 0 q 748 118 729 81 q 767 214 767 156 l 767 231 q 690 296 767 296 q 614 231 614 296 l 614 215 q 592 156 614 182 q 519 131 571 131 l 346 131 q 273 160 294 131 q 251 222 251 189 "},"f":{"ha":467,"x_min":18,"x_max":450,"o":"m 292 58 l 292 706 l 396 706 q 447 771 447 706 q 396 836 450 836 l 292 836 l 292 901 q 294 932 292 918 q 306 956 297 946 q 330 970 314 965 q 372 975 346 975 l 394 975 q 446 1040 449 975 q 394 1106 446 1106 l 361 1106 q 280 1093 318 1106 q 206 1058 242 1081 l 206 1060 q 153 999 169 1039 q 138 903 138 960 l 138 836 l 71 836 q 18 771 18 836 q 71 706 21 706 l 138 706 l 138 58 q 214 -8 138 -8 q 292 58 292 -8 "},"g":{"ha":854,"x_min":99,"x_max":767,"o":"m 322 97 l 490 97 q 528 115 517 97 q 540 163 540 133 q 490 226 540 226 l 346 226 q 273 256 294 226 q 251 321 251 286 l 251 614 q 273 677 251 649 q 346 706 294 706 l 519 706 q 592 677 571 706 q 614 614 614 649 l 614 28 q 592 -37 614 -8 q 519 -67 571 -67 l 346 -67 q 273 -49 294 -67 q 251 -15 251 -31 l 251 0 q 174 61 251 53 q 117 44 135 61 q 99 0 99 28 l 99 -17 q 116 -97 99 -62 q 172 -154 133 -132 q 321 -197 247 -197 l 554 -197 q 627 -183 590 -197 q 696 -142 664 -168 q 748 -73 729 -114 q 767 26 767 -32 l 767 615 q 747 713 767 669 q 696 782 728 756 q 626 821 664 806 q 554 836 589 836 l 321 836 q 247 824 285 836 q 174 789 210 811 q 119 724 139 765 q 99 624 99 682 l 99 310 q 174 146 99 194 q 248 110 210 122 q 322 97 286 97 "},"h":{"ha":851,"x_min":99,"x_max":767,"o":"m 251 58 l 251 706 l 519 706 q 593 672 575 706 l 592 674 q 614 604 614 640 l 614 58 q 690 -8 614 -8 q 767 58 767 -8 l 767 617 q 692 783 767 731 q 544 836 615 836 l 251 836 l 251 1044 q 175 1111 251 1111 q 99 1044 99 1111 l 99 58 q 175 -8 99 -8 q 251 58 251 -8 "},"i":{"ha":350,"x_min":72,"x_max":285,"o":"m 256 58 l 256 775 q 179 842 256 842 q 101 775 101 842 l 101 58 q 179 -8 101 -8 q 256 58 256 -8 m 285 1017 q 254 1093 285 1063 q 179 1124 224 1124 q 103 1093 135 1124 q 72 1017 72 1063 q 103 942 72 972 q 179 911 135 911 q 254 942 224 911 q 285 1017 285 972 "},"j":{"ha":376,"x_min":-32,"x_max":303,"o":"m 279 -32 l 279 776 q 201 843 279 843 q 125 776 125 843 l 125 -32 q 109 -85 125 -65 q 43 -106 93 -106 l 21 -106 q -18 -122 -4 -106 q -31 -171 -32 -139 q 21 -235 -31 -235 l 54 -235 q 137 -223 99 -235 q 211 -190 175 -211 l 211 -192 q 279 -32 279 -147 m 303 1017 q 272 1093 303 1063 q 196 1124 240 1124 q 121 1093 151 1124 q 90 1017 90 1063 q 121 942 90 972 q 196 911 151 911 q 272 942 240 911 q 303 1017 303 972 "},"k":{"ha":740,"x_min":99,"x_max":725,"o":"m 251 232 l 694 736 q 708 756 704 744 q 713 778 713 768 q 679 833 713 806 l 681 833 q 652 851 665 844 q 625 857 639 857 q 575 828 600 857 l 575 829 q 497 740 539 788 q 413 642 456 692 q 328 545 371 593 q 251 456 286 497 l 251 1044 q 175 1111 251 1111 q 99 1044 99 1111 l 99 56 q 175 -10 99 -10 q 251 56 251 -10 l 251 232 m 715 93 l 563 382 q 539 404 553 396 q 510 410 525 413 q 487 401 497 407 q 467 389 476 396 q 431 331 431 365 q 443 289 431 310 l 582 21 q 604 -5 590 6 q 633 -15 618 -15 q 683 1 656 -15 q 725 56 725 19 q 715 93 725 75 "},"l":{"ha":350,"x_min":103,"x_max":257,"o":"m 257 54 l 257 1050 q 181 1115 257 1115 q 103 1050 103 1115 l 103 54 q 181 -11 103 -11 q 257 54 257 -11 "},"m":{"ha":1186,"x_min":97,"x_max":1115,"o":"m 529 604 l 529 54 q 607 -11 529 -11 q 683 54 683 -11 l 683 604 q 701 672 683 642 q 778 706 719 706 l 865 706 q 914 698 897 706 q 942 672 931 690 l 940 674 q 956 640 951 658 q 960 604 960 622 l 960 54 q 1038 -11 960 -11 q 1115 54 1115 -11 l 1115 617 q 1039 783 1115 732 q 892 836 965 836 l 753 836 q 680 824 718 836 q 607 785 642 811 q 532 824 571 811 q 461 836 493 836 l 321 836 q 172 783 249 836 q 97 617 97 731 l 97 54 q 176 -11 97 -11 q 253 54 253 -11 l 253 604 q 269 672 253 640 q 346 706 289 706 l 435 706 q 510 672 492 706 q 524 640 518 657 q 529 604 529 622 "},"n":{"ha":847,"x_min":99,"x_max":767,"o":"m 251 58 l 251 604 q 271 672 251 643 q 346 706 289 706 l 519 706 q 593 672 575 706 l 592 674 q 614 604 614 640 l 614 58 q 690 -8 614 -8 q 767 58 767 -8 l 767 617 q 692 783 767 731 q 544 836 615 836 l 321 836 q 174 783 247 836 q 117 715 135 757 q 99 617 99 674 l 99 58 q 175 -8 99 -8 q 251 58 251 -8 "},"o":{"ha":842,"x_min":99,"x_max":765,"o":"m 543 836 l 321 836 q 246 821 285 836 q 172 782 207 806 l 174 782 q 118 713 138 756 q 99 615 99 671 l 99 221 q 174 53 99 106 q 247 13 210 25 q 321 0 285 0 l 543 0 q 690 53 617 0 q 765 221 765 107 l 765 615 q 746 713 765 671 q 690 782 726 756 l 692 782 q 617 821 656 806 q 543 836 579 836 m 518 131 l 346 131 q 273 160 294 131 q 251 222 251 189 l 251 614 q 273 677 251 649 q 346 706 294 706 l 518 706 q 591 677 569 706 q 613 614 613 649 l 613 222 q 591 160 613 189 q 518 131 569 131 "},"p":{"ha":842,"x_min":99,"x_max":767,"o":"m 379 0 l 544 0 q 693 50 615 0 q 767 213 767 99 l 767 624 q 747 723 767 681 q 693 789 726 765 q 617 824 654 811 q 544 836 581 836 l 185 836 q 124 819 149 836 q 99 754 99 803 l 99 -128 q 175 -194 99 -194 q 251 -129 251 -194 l 251 706 l 518 706 q 592 678 571 708 q 614 614 614 649 l 614 222 q 592 160 614 189 q 519 131 571 131 l 379 131 q 326 65 326 131 q 379 0 329 0 "},"q":{"ha":844,"x_min":99,"x_max":767,"o":"m 322 0 l 490 0 q 528 19 517 0 q 540 65 540 38 q 490 131 540 131 l 346 131 q 273 160 294 131 q 251 222 251 189 l 251 614 q 273 677 251 649 q 346 706 294 706 l 519 706 q 592 677 571 706 q 614 614 614 649 l 614 -133 q 690 -199 614 -199 q 767 -132 767 -199 l 767 624 q 747 723 767 681 q 693 789 726 765 q 617 824 654 811 q 544 836 581 836 l 321 836 q 247 824 285 836 q 174 789 210 811 q 119 724 139 765 q 99 624 99 682 l 99 213 q 113 109 99 154 q 167 40 128 64 q 244 8 203 17 q 322 0 286 0 "},"r":{"ha":547,"x_min":93,"x_max":531,"o":"m 249 58 l 249 632 q 264 686 249 667 q 329 706 279 706 l 476 706 q 528 771 531 706 q 476 836 528 836 l 318 836 q 161 792 229 836 q 93 633 93 747 l 93 58 q 172 -8 93 -8 q 249 58 249 -8 "},"s":{"ha":854,"x_min":92,"x_max":772,"o":"m 550 486 l 346 486 q 273 515 294 486 q 251 581 251 544 l 251 614 q 273 677 251 649 q 346 706 294 706 l 518 706 q 591 677 569 706 q 613 614 613 649 l 613 603 q 689 546 613 544 q 746 560 726 547 q 765 603 765 574 l 765 615 q 746 713 765 671 q 690 782 726 756 l 692 782 q 617 821 656 806 q 543 836 579 836 l 321 836 q 246 821 285 836 q 172 782 207 806 l 174 782 q 118 713 138 756 q 99 615 99 671 l 99 568 q 172 406 99 453 q 321 356 250 356 l 524 356 q 568 347 550 356 q 597 326 586 339 q 613 296 608 313 q 618 261 618 279 l 618 222 q 597 160 618 189 q 524 131 576 131 l 340 131 q 267 160 288 131 q 246 222 246 189 l 246 238 q 168 296 246 296 q 92 238 92 297 l 92 221 q 167 53 92 106 q 240 13 203 25 q 314 0 278 0 l 550 0 q 624 13 586 0 q 697 53 661 25 q 772 221 772 107 l 772 263 q 753 363 772 321 q 697 431 733 404 l 699 431 q 624 470 664 454 q 550 486 585 486 "},"t":{"ha":471,"x_min":18,"x_max":451,"o":"m 281 706 l 396 706 q 447 771 447 706 q 396 836 450 836 l 281 836 l 281 985 q 204 1051 281 1051 q 125 985 125 1051 l 125 836 l 71 836 q 18 771 18 836 q 71 706 21 706 l 125 706 l 125 199 q 193 40 125 85 l 193 42 q 268 8 229 19 q 351 -4 307 -4 l 397 -4 q 449 61 449 -4 q 397 125 451 125 l 361 125 q 296 144 311 125 q 281 200 281 164 l 281 706 "},"u":{"ha":842,"x_min":99,"x_max":767,"o":"m 767 221 l 767 778 q 690 844 767 844 q 614 778 614 844 l 614 232 q 592 163 614 196 l 593 164 q 519 131 575 131 l 346 131 q 271 164 289 131 q 251 232 251 193 l 251 778 q 175 844 251 844 q 99 778 99 844 l 99 221 q 118 122 99 165 q 174 53 138 79 l 172 53 q 247 15 207 29 q 321 0 286 0 l 544 0 q 619 15 581 0 q 693 53 658 29 l 692 53 q 747 122 728 79 q 767 221 767 165 "},"v":{"ha":767,"x_min":19,"x_max":751,"o":"m 382 -8 l 397 -8 q 413 -8 404 -8 q 432 -7 421 -8 q 438 -6 435 -7 q 444 -6 442 -6 q 510 36 497 -3 l 742 753 q 738 806 751 783 q 688 839 724 829 q 649 846 664 846 q 593 797 608 846 l 385 151 l 278 482 l 176 797 q 117 844 160 844 q 100 843 110 844 q 81 839 90 842 q 34 805 49 828 q 26 753 19 782 l 260 36 q 283 8 267 19 q 324 -6 300 -4 q 347 -7 335 -7 q 367 -7 360 -7 q 375 -8 371 -7 q 382 -8 379 -8 "},"w":{"ha":997,"x_min":10,"x_max":1004,"o":"m 390 43 l 489 433 l 526 433 l 625 43 l 624 44 q 661 3 633 13 q 715 -7 689 -7 q 772 3 743 -7 q 808 44 800 13 l 807 43 l 988 763 q 933 840 1004 824 q 846 793 865 858 l 847 794 q 791 567 819 682 q 735 340 763 453 l 697 340 l 667 458 q 647 539 656 500 q 628 618 638 578 q 608 701 618 658 q 585 794 597 744 q 553 831 576 821 q 507 842 531 842 q 462 833 486 842 q 431 794 438 824 l 318 342 l 281 342 l 168 794 l 168 793 q 81 840 149 858 q 26 763 10 821 l 208 43 l 207 44 q 244 3 215 13 q 299 -7 272 -7 q 354 3 326 -7 q 392 44 382 13 l 390 43 "},"x":{"ha":699,"x_min":14,"x_max":688,"o":"m 444 425 l 661 735 q 678 775 678 758 q 638 829 678 804 l 639 829 q 614 841 625 836 q 590 846 603 846 q 525 806 554 846 l 350 557 l 175 806 q 110 846 147 846 q 87 841 99 846 q 61 829 75 836 l 63 829 q 24 775 24 804 q 28 756 24 768 q 39 735 33 744 q 147 579 90 660 q 256 425 204 499 l 25 96 q 14 64 14 81 q 24 34 14 47 q 54 7 35 21 q 104 -11 78 -11 q 161 24 135 -11 q 206 88 182 53 q 256 158 231 122 q 305 228 281 193 q 350 292 329 263 l 540 24 q 567 -1 553 8 q 596 -11 582 -11 q 646 7 619 -11 q 688 65 688 36 q 678 96 688 82 l 444 425 "},"y":{"ha":688,"x_min":13,"x_max":676,"o":"m 143 -194 l 215 -194 q 296 -185 261 -194 q 354 -162 331 -176 q 392 -131 378 -147 q 414 -100 407 -115 q 541 326 476 111 q 668 754 606 542 q 662 807 676 785 q 614 839 647 829 q 578 846 589 846 q 519 796 532 846 l 371 297 l 278 525 l 168 799 q 118 846 158 846 q 78 839 103 846 q 28 804 44 828 q 24 747 13 781 l 24 749 l 294 39 l 288 17 l 268 -35 q 204 -64 253 -64 l 143 -64 q 92 -129 92 -64 q 143 -194 94 -194 "},"z":{"ha":694,"x_min":25,"x_max":678,"o":"m 89 706 l 467 706 l 39 132 q 29 53 25 101 q 126 0 36 0 l 625 0 q 664 16 650 0 q 675 65 678 32 q 625 131 675 131 l 232 131 l 658 704 q 669 738 667 715 q 669 782 671 760 q 641 822 667 807 q 571 836 615 836 l 89 836 q 36 771 36 836 q 89 706 39 706 "},"{":{"ha":694,"x_min":85,"x_max":633,"o":"m 519 -187 l 585 -187 q 632 -128 633 -187 q 585 -69 632 -69 l 539 -69 q 463 -54 489 -69 q 442 -25 450 -46 q 435 33 435 -4 l 435 274 q 395 408 435 356 q 289 486 356 460 q 395 569 356 515 q 435 701 435 622 l 435 942 q 442 994 435 972 q 456 1026 449 1015 q 539 1044 492 1044 l 583 1044 q 626 1103 628 1044 q 585 1163 626 1163 l 519 1163 q 424 1155 464 1163 q 363 1131 383 1147 q 301 961 301 1090 l 301 742 q 263 592 301 636 q 132 549 224 549 q 88 486 85 549 q 132 426 90 426 q 213 416 181 426 q 265 383 246 406 q 293 323 285 360 q 301 233 301 286 l 301 14 q 350 -149 301 -107 l 349 -149 q 519 -187 396 -187 "},"|":{"ha":694,"x_min":292,"x_max":404,"o":"m 292 -226 l 404 -226 l 404 1203 l 292 1203 l 292 -226 "},"}":{"ha":694,"x_min":64,"x_max":614,"o":"m 563 426 q 607 486 606 426 q 563 549 614 549 q 433 592 471 549 q 394 742 394 636 l 394 961 q 342 1125 394 1088 q 175 1163 292 1163 l 110 1163 q 67 1103 68 1163 q 110 1044 67 1044 l 156 1044 q 201 1040 183 1044 q 232 1029 219 1036 q 260 942 260 1013 l 260 701 q 300 567 260 619 q 407 486 340 514 q 299 408 338 460 q 260 274 260 357 l 260 33 q 253 -25 260 -4 q 232 -54 246 -46 q 201 -65 219 -61 q 156 -69 183 -69 l 110 -69 q 64 -128 64 -69 q 110 -187 64 -187 l 175 -187 q 347 -149 297 -187 l 346 -149 q 382 -88 369 -128 q 394 14 394 -49 l 394 233 q 402 323 394 286 q 429 383 410 360 q 481 416 449 406 q 563 426 514 426 "},"가":{"ha":1354,"x_min":17,"x_max":1328,"o":"m 1328 649 q 1297 724 1328 693 q 1221 756 1265 756 q 1145 724 1176 756 q 1114 649 1114 693 q 1145 573 1114 604 q 1221 542 1176 542 q 1297 573 1265 542 q 1328 649 1328 604 m 1068 31 l 1068 1078 q 985 1144 1068 1144 q 903 1078 903 1144 l 903 31 q 985 -36 903 -36 q 1068 31 1068 -36 m 153 101 q 588 405 447 208 q 728 747 728 601 l 728 1031 q 709 1088 728 1063 q 640 1114 690 1114 l 121 1114 q 69 1044 68 1114 q 121 974 69 974 l 550 974 q 561 969 560 974 q 563 960 563 965 l 563 790 q 394 441 563 593 q 72 224 225 289 q 45 136 17 200 q 153 101 74 72 "},"각":{"ha":1389,"x_min":17,"x_max":1328,"o":"m 1321 -19 l 1321 342 q 1302 399 1321 374 q 1233 425 1283 425 l 532 425 q 480 355 479 425 q 532 285 481 285 l 1143 285 q 1154 281 1153 285 q 1156 271 1156 276 l 1156 -19 q 1238 -86 1156 -86 q 1321 -19 1321 -86 m 1328 818 q 1297 894 1328 863 q 1221 925 1265 925 q 1145 894 1176 925 q 1114 818 1114 863 q 1145 742 1114 774 q 1221 711 1176 711 q 1297 742 1265 711 q 1328 818 1328 774 m 1068 521 l 1068 1078 q 985 1144 1068 1144 q 903 1078 903 1144 l 903 521 q 985 454 903 454 q 1068 521 1068 454 m 728 853 l 728 1031 q 709 1088 728 1063 q 640 1114 690 1114 l 121 1114 q 69 1044 68 1114 q 121 974 69 974 l 550 974 q 561 969 560 974 q 563 960 563 965 l 563 868 q 395 595 563 722 q 72 413 228 468 q 45 328 17 393 q 153 290 74 264 q 593 563 458 393 q 728 853 728 732 "},"간":{"ha":1389,"x_min":17,"x_max":1328,"o":"m 585 -68 l 1272 -68 q 1324 2 1325 -68 q 1272 72 1324 72 l 675 72 q 664 76 665 72 q 663 86 663 81 l 663 358 q 580 425 663 425 q 497 358 497 425 l 497 15 q 516 -42 497 -17 q 585 -68 535 -68 m 728 853 l 728 1031 q 709 1088 728 1063 q 640 1114 690 1114 l 121 1114 q 69 1044 68 1114 q 121 974 69 974 l 550 974 q 561 969 560 974 q 563 960 563 965 l 563 868 q 395 595 563 722 q 72 413 228 468 q 45 328 17 393 q 153 290 74 264 q 593 563 458 393 q 728 853 728 732 m 1328 760 q 1297 835 1328 804 q 1221 867 1265 867 q 1145 835 1176 867 q 1114 760 1114 804 q 1145 684 1114 715 q 1221 653 1176 653 q 1297 684 1265 653 q 1328 760 1328 715 m 1068 358 l 1068 1078 q 985 1144 1068 1144 q 903 1078 903 1144 l 903 358 q 985 292 903 292 q 1068 358 1068 292 "},"갇":{"ha":1389,"x_min":17,"x_max":1358,"o":"m 583 -68 l 1303 -68 q 1357 2 1358 -68 q 1303 72 1356 72 l 674 72 q 663 76 664 72 q 661 86 661 81 l 661 271 q 663 281 661 276 q 674 285 664 285 l 1271 285 q 1325 355 1326 285 q 1271 425 1324 425 l 583 425 q 515 399 533 425 q 496 342 496 374 l 496 15 q 515 -42 496 -17 q 583 -68 533 -68 m 728 853 l 728 1031 q 709 1088 728 1063 q 640 1114 690 1114 l 121 1114 q 69 1044 68 1114 q 121 974 69 974 l 550 974 q 561 969 560 974 q 563 960 563 965 l 563 868 q 395 595 563 722 q 72 413 228 468 q 45 328 17 393 q 153 290 74 264 q 593 563 458 393 q 728 853 728 732 m 1068 521 l 1068 1078 q 985 1144 1068 1144 q 903 1078 903 1144 l 903 521 q 985 454 903 454 q 1068 521 1068 454 m 1328 818 q 1297 894 1328 863 q 1221 925 1265 925 q 1145 894 1176 925 q 1114 818 1114 863 q 1145 742 1114 774 q 1221 711 1176 711 q 1297 742 1265 711 q 1328 818 1328 774 "},"갈":{"ha":1389,"x_min":17,"x_max":1357,"o":"m 1328 843 q 1297 919 1328 888 q 1221 950 1265 950 q 1145 919 1176 950 q 1114 843 1114 888 q 1145 767 1114 799 q 1221 736 1176 736 q 1297 767 1265 736 q 1328 843 1328 799 m 1068 581 l 1068 1079 q 985 1146 1068 1146 q 903 1079 903 1146 l 903 581 q 985 514 903 514 q 1068 581 1068 514 m 1321 208 l 1321 407 q 1302 465 1321 439 q 1233 490 1283 490 l 547 490 q 495 420 494 490 q 547 350 496 350 l 1143 350 q 1154 346 1153 350 q 1156 336 1156 342 l 1156 279 q 1154 269 1156 274 q 1143 265 1153 265 l 583 265 q 515 240 533 265 q 496 182 496 214 l 496 -17 q 515 -74 496 -49 q 583 -100 533 -100 l 1304 -100 q 1356 -30 1356 -100 q 1304 40 1357 40 l 674 40 q 663 44 664 40 q 661 54 661 49 l 661 111 q 663 121 661 117 q 674 125 664 125 l 1233 125 q 1302 151 1283 125 q 1321 208 1321 176 m 728 853 l 728 1031 q 709 1088 728 1063 q 640 1114 690 1114 l 121 1114 q 69 1044 68 1114 q 121 974 69 974 l 550 974 q 561 969 560 974 q 563 960 563 965 l 563 868 q 395 595 563 722 q 72 413 228 468 q 45 328 17 393 q 153 290 74 264 q 593 563 458 393 q 728 853 728 732 "},"갉":{"ha":1389,"x_min":17,"x_max":1328,"o":"m 801 208 l 801 407 q 783 465 801 439 q 714 490 764 490 l 419 490 q 593 625 526 551 q 728 894 728 774 l 728 1031 q 709 1088 728 1063 q 640 1114 690 1114 l 121 1114 q 69 1044 68 1114 q 121 974 69 974 l 550 974 q 561 969 560 974 q 563 960 563 965 l 563 910 q 395 658 563 764 q 72 496 228 551 q 45 412 17 476 q 153 374 74 347 q 274 419 217 394 q 326 350 275 350 l 624 350 q 635 346 633 350 q 636 336 636 342 l 636 279 q 635 269 636 274 q 624 265 633 265 l 369 265 q 301 240 319 265 q 282 182 282 214 l 282 -17 q 301 -74 282 -49 q 369 -100 319 -100 l 799 -100 q 851 -30 850 -100 q 799 40 851 40 l 460 40 q 449 44 450 40 q 447 54 447 49 l 447 111 q 449 121 447 117 q 460 125 450 125 l 714 125 q 783 151 764 125 q 801 208 801 176 m 1321 -39 l 1321 407 q 1302 465 1321 439 q 1233 490 1283 490 l 871 490 q 819 420 818 490 q 871 350 819 350 l 1143 350 q 1154 346 1153 350 q 1156 336 1156 342 l 1156 -39 q 1238 -106 1156 -106 q 1321 -39 1321 -106 m 1068 581 l 1068 1079 q 985 1146 1068 1146 q 903 1079 903 1146 l 903 581 q 985 514 903 514 q 1068 581 1068 514 m 1328 843 q 1297 919 1328 888 q 1221 950 1265 950 q 1145 919 1176 950 q 1114 843 1114 888 q 1145 767 1114 799 q 1221 736 1176 736 q 1297 767 1265 736 q 1328 843 1328 799 "},"갊":{"ha":1389,"x_min":17,"x_max":1328,"o":"m 774 208 l 774 407 q 755 465 774 439 q 686 490 736 490 l 419 490 q 593 625 526 551 q 728 894 728 774 l 728 1031 q 709 1088 728 1063 q 640 1114 690 1114 l 121 1114 q 69 1044 68 1114 q 121 974 69 974 l 550 974 q 561 969 560 974 q 563 960 563 965 l 563 910 q 395 658 563 764 q 72 496 228 551 q 45 412 17 476 q 153 374 74 347 q 274 419 217 394 q 326 350 275 350 l 596 350 q 607 346 606 350 q 608 336 608 342 l 608 279 q 607 269 608 274 q 596 265 606 265 l 369 265 q 301 240 319 265 q 282 182 282 214 l 282 -17 q 301 -74 282 -49 q 369 -100 319 -100 l 757 -100 q 809 -30 808 -100 q 757 40 810 40 l 460 40 q 449 44 450 40 q 447 54 447 49 l 447 111 q 449 121 447 117 q 460 125 450 125 l 686 125 q 755 151 736 125 q 774 208 774 176 m 1321 -17 l 1321 407 q 1302 465 1321 439 q 1233 490 1283 490 l 917 490 q 848 465 867 490 q 829 407 829 439 l 829 -17 q 848 -74 829 -49 q 917 -100 867 -100 l 1233 -100 q 1302 -74 1283 -100 q 1321 -17 1321 -49 m 1068 581 l 1068 1079 q 985 1146 1068 1146 q 903 1079 903 1146 l 903 581 q 985 514 903 514 q 1068 581 1068 514 m 1156 336 l 1156 54 q 1154 44 1156 49 q 1143 40 1153 40 l 1007 40 q 996 44 997 40 q 994 54 994 49 l 994 336 q 996 346 994 342 q 1007 350 997 350 l 1143 350 q 1154 346 1153 350 q 1156 336 1156 342 m 1328 843 q 1297 919 1328 888 q 1221 950 1265 950 q 1145 919 1176 950 q 1114 843 1114 888 q 1145 767 1114 799 q 1221 736 1176 736 q 1297 767 1265 736 q 1328 843 1328 799 "},"감":{"ha":1389,"x_min":17,"x_max":1328,"o":"m 1068 521 l 1068 1078 q 985 1144 1068 1144 q 903 1078 903 1144 l 903 521 q 985 454 903 454 q 1068 521 1068 454 m 1321 15 l 1321 342 q 1302 399 1321 374 q 1233 425 1283 425 l 583 425 q 515 399 533 425 q 496 342 496 374 l 496 15 q 515 -42 496 -17 q 583 -68 533 -68 l 1233 -68 q 1302 -42 1283 -68 q 1321 15 1321 -17 m 1156 271 l 1156 86 q 1154 76 1156 81 q 1143 72 1153 72 l 674 72 q 663 76 664 72 q 661 86 661 81 l 661 271 q 663 281 661 276 q 674 285 664 285 l 1143 285 q 1154 281 1153 285 q 1156 271 1156 276 m 728 853 l 728 1031 q 709 1088 728 1063 q 640 1114 690 1114 l 121 1114 q 69 1044 68 1114 q 121 974 69 974 l 550 974 q 561 969 560 974 q 563 960 563 965 l 563 868 q 395 595 563 722 q 72 413 228 468 q 45 328 17 393 q 153 290 74 264 q 593 563 458 393 q 728 853 728 732 m 1328 818 q 1297 894 1328 863 q 1221 925 1265 925 q 1145 894 1176 925 q 1114 818 1114 863 q 1145 742 1114 774 q 1221 711 1176 711 q 1297 742 1265 711 q 1328 818 1328 774 "},"갑":{"ha":1389,"x_min":17,"x_max":1328,"o":"m 1321 -1 l 1321 400 q 1238 467 1321 467 q 1156 400 1156 467 l 1156 319 l 735 319 q 683 249 682 319 q 735 179 683 179 l 1156 179 l 1156 69 q 1154 60 1156 64 q 1143 56 1153 56 l 674 56 q 663 60 664 56 q 661 69 661 64 l 661 400 q 578 467 661 467 q 496 400 496 467 l 496 -1 q 515 -59 496 -33 q 583 -85 533 -85 l 1233 -85 q 1301 -59 1283 -85 q 1321 -1 1319 -33 m 728 853 l 728 1031 q 709 1088 728 1063 q 640 1114 690 1114 l 121 1114 q 69 1044 68 1114 q 121 974 69 974 l 550 974 q 561 969 560 974 q 563 960 563 965 l 563 868 q 395 595 563 722 q 72 413 228 468 q 46 328 17 393 q 153 290 75 263 q 591 566 454 400 q 728 853 728 732 m 1068 496 l 1068 1078 q 985 1144 1068 1144 q 903 1078 903 1144 l 903 496 q 985 429 903 429 q 1068 496 1068 429 m 1328 804 q 1297 880 1328 849 q 1221 911 1265 911 q 1145 880 1176 911 q 1114 804 1114 849 q 1145 728 1114 760 q 1221 697 1176 697 q 1297 728 1265 697 q 1328 804 1328 760 "},"값":{"ha":1389,"x_min":17,"x_max":1372,"o":"m 1332 35 l 1101 446 q 1029 486 1074 494 q 958 446 985 494 l 774 117 l 774 417 q 691 483 774 483 q 608 417 608 483 l 608 336 l 493 336 q 447 307 458 336 l 447 417 q 400 479 447 467 q 593 625 521 546 q 728 894 728 774 l 728 1031 q 709 1088 728 1063 q 640 1114 690 1114 l 121 1114 q 69 1044 68 1114 q 121 974 69 974 l 550 974 q 561 969 560 974 q 563 960 563 965 l 563 910 q 395 658 563 764 q 72 496 228 551 q 45 412 17 476 q 153 374 74 347 q 282 422 221 396 l 282 417 l 282 15 q 301 -42 282 -17 q 369 -68 319 -68 l 686 -68 q 739 -56 721 -68 q 761 -67 749 -61 q 864 -44 835 -96 l 1029 247 l 1196 -44 q 1299 -67 1225 -96 q 1332 35 1372 -37 m 1068 554 l 1068 1078 q 985 1144 1068 1144 q 903 1078 903 1144 l 903 554 q 985 488 903 488 q 1068 554 1068 488 m 1328 804 q 1297 880 1328 849 q 1221 911 1265 911 q 1145 880 1176 911 q 1114 804 1114 849 q 1145 728 1114 760 q 1221 697 1176 697 q 1297 728 1265 697 q 1328 804 1328 760 m 493 196 l 608 196 l 608 86 q 607 76 608 81 q 596 72 606 72 l 460 72 q 449 76 450 72 q 447 86 447 81 l 447 225 q 493 196 460 196 "},"갓":{"ha":1389,"x_min":17,"x_max":1328,"o":"m 1328 815 q 1297 891 1328 860 q 1221 922 1265 922 q 1145 891 1176 922 q 1114 815 1114 860 q 1145 740 1114 771 q 1221 708 1176 708 q 1297 740 1265 708 q 1328 815 1328 771 m 1068 475 l 1068 1078 q 985 1144 1068 1144 q 903 1078 903 1144 l 903 475 q 985 408 903 408 q 1068 475 1068 408 m 728 853 l 728 1031 q 709 1088 728 1063 q 640 1114 690 1114 l 121 1114 q 69 1044 68 1114 q 121 974 69 974 l 550 974 q 561 969 560 974 q 563 960 563 965 l 563 868 q 395 595 563 722 q 72 413 228 468 q 45 328 17 393 q 153 290 74 264 q 593 563 458 393 q 728 853 728 732 m 457 -64 l 796 271 l 1133 -64 q 1249 -63 1186 -114 q 1260 39 1313 -12 l 869 415 q 834 436 854 431 q 794 442 814 442 q 756 436 775 442 q 721 415 736 431 l 331 39 q 341 -62 276 -11 q 457 -64 406 -114 "},"갔":{"ha":1389,"x_min":17,"x_max":1356,"o":"m 1328 832 q 1297 908 1328 876 q 1221 939 1265 939 q 1145 908 1176 939 q 1114 832 1114 876 q 1145 756 1114 788 q 1221 725 1176 725 q 1297 756 1265 725 q 1328 832 1328 788 m 1068 554 l 1068 1078 q 985 1144 1068 1144 q 903 1078 903 1144 l 903 554 q 985 488 903 488 q 1068 554 1068 488 m 728 894 l 728 1031 q 709 1088 728 1063 q 640 1114 690 1114 l 121 1114 q 69 1044 68 1114 q 121 974 69 974 l 550 974 q 561 969 560 974 q 563 960 563 965 l 563 910 q 395 658 563 764 q 72 496 228 551 q 45 412 17 476 q 153 374 74 347 q 593 625 458 476 q 728 894 728 774 m 782 -86 q 819 -81 801 -87 q 847 -56 838 -74 l 1014 244 l 1179 -56 q 1282 -78 1208 -107 q 1315 24 1356 -49 l 1092 428 q 1058 463 1078 453 q 1013 472 1039 472 q 968 463 988 472 q 935 428 949 453 l 779 147 l 624 428 q 590 463 610 453 q 544 472 571 472 q 500 463 519 472 q 467 428 481 453 l 243 24 q 276 -78 203 -49 q 379 -56 350 -107 l 546 244 l 711 -56 q 741 -81 722 -74 q 782 -86 760 -87 "},"강":{"ha":1389,"x_min":17,"x_max":1328,"o":"m 1068 547 l 1068 1078 q 985 1144 1068 1144 q 903 1078 903 1144 l 903 547 q 985 481 903 481 q 1068 547 1068 481 m 728 853 l 728 1031 q 709 1088 728 1063 q 640 1114 690 1114 l 121 1114 q 69 1044 68 1114 q 121 974 69 974 l 550 974 q 561 969 560 974 q 563 960 563 965 l 563 868 q 395 595 563 722 q 72 413 228 468 q 45 328 17 393 q 153 290 74 264 q 593 563 458 393 q 728 853 728 732 m 1328 832 q 1297 908 1328 876 q 1221 939 1265 939 q 1145 908 1176 939 q 1114 832 1114 876 q 1145 756 1114 788 q 1221 725 1176 725 q 1297 756 1265 725 q 1328 832 1328 788 m 1289 157 q 1193 362 1289 276 q 960 447 1097 447 q 724 363 821 447 q 628 157 628 278 q 724 -49 628 36 q 960 -133 821 -133 q 1193 -48 1097 -133 q 1289 157 1289 38 m 1124 157 q 1076 51 1124 94 q 960 8 1028 8 q 844 51 892 8 q 796 157 796 94 q 844 263 796 219 q 960 306 892 306 q 1076 263 1028 306 q 1124 157 1124 219 "},"갖":{"ha":1389,"x_min":17,"x_max":1328,"o":"m 457 301 l 653 301 l 400 39 q 410 -62 346 -11 q 526 -64 475 -114 l 829 257 l 1133 -64 q 1250 -62 1186 -114 q 1260 39 1314 -11 l 1007 301 l 1226 301 q 1280 372 1279 301 q 1226 442 1281 442 l 857 442 q 828 444 842 447 q 803 442 815 446 l 458 442 q 589 563 536 497 q 728 853 728 732 l 728 1031 q 709 1088 728 1063 q 640 1114 690 1114 l 121 1114 q 69 1044 68 1114 q 121 974 69 974 l 550 974 q 561 969 560 974 q 563 960 563 965 l 563 868 q 395 595 563 722 q 72 413 228 468 q 45 328 17 393 q 153 290 74 264 q 408 408 300 340 q 404 371 404 393 q 457 301 406 301 m 1068 538 l 1068 1078 q 985 1144 1068 1144 q 903 1078 903 1144 l 903 538 q 985 471 903 471 q 1068 538 1068 471 m 1328 818 q 1297 894 1328 863 q 1221 925 1265 925 q 1145 894 1176 925 q 1114 818 1114 863 q 1145 742 1114 774 q 1221 711 1176 711 q 1297 742 1265 711 q 1328 818 1328 774 "},"갗":{"ha":1389,"x_min":17,"x_max":1357,"o":"m 404 274 l 642 274 l 358 39 q 365 -60 307 -4 q 485 -64 424 -115 l 832 229 l 1178 -64 q 1298 -60 1239 -115 q 1304 39 1357 -4 l 1021 274 l 1256 274 q 1309 344 1308 274 q 1256 414 1310 414 l 913 414 l 913 494 q 830 561 913 561 q 747 494 747 561 l 747 414 l 422 414 q 593 563 528 481 q 728 853 728 732 l 728 1031 q 709 1088 728 1063 q 640 1114 690 1114 l 121 1114 q 69 1044 68 1114 q 121 974 69 974 l 550 974 q 561 969 560 974 q 563 960 563 965 l 563 868 q 395 595 563 722 q 72 413 228 468 q 45 328 17 393 q 153 290 74 264 q 354 375 265 328 q 351 343 351 361 q 404 274 353 274 m 1068 582 l 1068 1078 q 985 1144 1068 1144 q 903 1078 903 1144 l 903 582 q 985 515 903 515 q 1068 582 1068 515 m 1328 832 q 1297 908 1328 876 q 1221 939 1265 939 q 1145 908 1176 939 q 1114 832 1114 876 q 1145 756 1114 788 q 1221 725 1176 725 q 1297 756 1265 725 q 1328 832 1328 788 "},"같":{"ha":1389,"x_min":17,"x_max":1358,"o":"m 583 -100 l 1303 -100 q 1357 -30 1358 -100 q 1303 40 1356 40 l 674 40 q 663 44 664 40 q 661 54 661 49 l 661 126 l 1268 126 q 1320 197 1319 126 q 1268 267 1321 267 l 661 267 l 661 328 q 663 338 661 333 q 674 342 664 342 l 1271 342 q 1325 412 1326 342 q 1271 482 1324 482 l 583 482 q 515 456 533 482 q 496 399 496 431 l 496 -17 q 515 -74 496 -49 q 583 -100 533 -100 m 728 853 l 728 1031 q 709 1088 728 1063 q 640 1114 690 1114 l 121 1114 q 69 1044 68 1114 q 121 974 69 974 l 550 974 q 561 969 560 974 q 563 960 563 965 l 563 868 q 395 595 563 722 q 72 413 228 468 q 45 328 17 393 q 153 290 74 264 q 593 563 458 393 q 728 853 728 732 m 1068 581 l 1068 1079 q 985 1146 1068 1146 q 903 1079 903 1146 l 903 581 q 985 514 903 514 q 1068 581 1068 514 m 1328 843 q 1297 919 1328 888 q 1221 950 1265 950 q 1145 919 1176 950 q 1114 843 1114 888 q 1145 767 1114 799 q 1221 736 1176 736 q 1297 767 1265 736 q 1328 843 1328 799 "},"갚":{"ha":1389,"x_min":17,"x_max":1336,"o":"m 443 318 l 1240 318 q 1294 388 1293 318 q 1240 458 1294 458 l 486 458 q 593 563 549 507 q 728 853 728 732 l 728 1031 q 709 1088 728 1063 q 640 1114 690 1114 l 121 1114 q 69 1044 68 1114 q 121 974 69 974 l 550 974 q 561 969 560 974 q 563 960 563 965 l 563 868 q 395 595 563 722 q 72 413 228 468 q 45 328 17 393 q 153 290 74 264 q 390 394 289 336 l 390 388 q 443 318 392 318 m 401 -85 l 1282 -85 q 1335 -15 1335 -85 q 1282 56 1336 56 l 1124 56 l 1124 239 q 1041 306 1124 306 q 958 239 958 306 l 958 56 l 728 56 l 728 239 q 645 306 728 306 q 563 239 563 306 l 563 56 l 401 56 q 349 -15 349 56 q 401 -85 350 -85 m 1068 540 l 1068 1078 q 985 1144 1068 1144 q 903 1078 903 1144 l 903 540 q 985 474 903 474 q 1068 540 1068 474 m 1328 818 q 1297 894 1328 863 q 1221 925 1265 925 q 1145 894 1176 925 q 1114 818 1114 863 q 1145 742 1114 774 q 1221 711 1176 711 q 1297 742 1265 711 q 1328 818 1328 774 "},"갛":{"ha":1389,"x_min":17,"x_max":1328,"o":"m 471 269 l 628 269 q 581 126 581 206 q 665 -57 581 19 q 872 -133 750 -133 q 1076 -56 992 -133 q 1161 126 1161 21 q 1113 269 1161 207 l 1268 269 q 1322 340 1321 269 q 1268 410 1322 410 l 954 410 l 954 490 q 949 519 954 507 q 985 515 965 515 q 1068 582 1068 515 l 1068 1078 q 985 1144 1068 1144 q 903 1078 903 1144 l 903 582 q 907 553 903 565 q 871 557 892 557 q 789 490 789 557 l 789 410 l 471 410 q 419 340 418 410 q 471 269 419 269 m 728 853 l 728 1031 q 709 1088 728 1063 q 640 1114 690 1114 l 121 1114 q 69 1044 68 1114 q 121 974 69 974 l 550 974 q 561 969 560 974 q 563 960 563 965 l 563 868 q 395 595 563 722 q 72 413 228 468 q 45 328 17 393 q 153 290 74 264 q 593 563 458 393 q 728 853 728 732 m 996 126 q 959 42 996 76 q 872 7 922 7 q 784 42 821 7 q 747 126 747 76 q 784 211 747 176 q 872 246 821 246 q 959 211 922 246 q 996 126 996 176 m 1328 832 q 1297 908 1328 876 q 1221 939 1265 939 q 1145 908 1176 939 q 1114 832 1114 876 q 1145 756 1114 788 q 1221 725 1176 725 q 1297 756 1265 725 q 1328 832 1328 788 "},"개":{"ha":1354,"x_min":17,"x_max":1222,"o":"m 942 31 l 942 551 l 1024 551 q 1057 563 1044 551 l 1057 31 q 1140 -36 1057 -36 q 1222 31 1222 -36 l 1222 1078 q 1140 1144 1222 1144 q 1057 1078 1057 1144 l 1057 681 q 1024 692 1044 692 l 942 692 l 942 1078 q 859 1144 942 1144 q 776 1078 776 1144 l 776 31 q 859 -36 776 -36 q 942 31 942 -36 m 153 101 q 549 431 442 221 q 657 761 657 642 l 657 1031 q 638 1088 657 1063 q 569 1114 619 1114 l 121 1114 q 69 1044 68 1114 q 121 974 69 974 l 479 974 q 490 969 489 974 q 492 960 492 965 l 492 790 q 358 442 492 594 q 72 224 225 289 q 47 135 17 200 q 153 101 76 69 "},"객":{"ha":1389,"x_min":17,"x_max":1321,"o":"m 942 525 l 942 732 l 1024 732 q 1057 743 1044 732 l 1057 525 q 1140 458 1057 458 q 1222 525 1222 458 l 1222 1078 q 1140 1144 1222 1144 q 1057 1078 1057 1144 l 1057 861 q 1024 872 1044 872 l 942 872 l 942 1078 q 859 1144 942 1144 q 776 1078 776 1144 l 776 525 q 859 458 776 458 q 942 525 942 458 m 656 867 l 656 1031 q 637 1088 656 1063 q 568 1114 618 1114 l 121 1114 q 69 1044 68 1114 q 121 974 69 974 l 478 974 q 489 969 488 974 q 490 960 490 965 l 490 868 q 359 593 490 718 q 72 413 228 468 q 47 328 17 393 q 153 290 76 263 q 558 583 461 401 q 656 867 656 765 m 1321 -17 l 1321 342 q 1302 399 1321 374 q 1233 425 1283 425 l 518 425 q 466 355 465 425 q 518 285 467 285 l 1143 285 q 1154 281 1153 285 q 1156 271 1156 276 l 1156 -17 q 1238 -83 1156 -83 q 1321 -17 1321 -83 "},"갠":{"ha":1389,"x_min":17,"x_max":1325,"o":"m 942 360 l 942 676 l 1024 676 q 1057 688 1044 676 l 1057 360 q 1140 293 1057 293 q 1222 360 1222 293 l 1222 1078 q 1140 1144 1222 1144 q 1057 1078 1057 1144 l 1057 806 q 1024 817 1044 817 l 942 817 l 942 1078 q 859 1144 942 1144 q 776 1078 776 1144 l 776 360 q 859 293 776 293 q 942 360 942 293 m 656 867 l 656 1031 q 637 1088 656 1063 q 568 1114 618 1114 l 121 1114 q 69 1044 68 1114 q 121 974 69 974 l 478 974 q 489 969 488 974 q 490 960 490 965 l 490 868 q 359 593 490 718 q 72 413 228 468 q 47 328 17 393 q 153 290 76 263 q 558 578 461 401 q 656 867 656 754 m 585 -68 l 1272 -68 q 1324 2 1325 -68 q 1272 72 1324 72 l 675 72 q 664 76 665 72 q 663 86 663 81 l 663 358 q 580 425 663 425 q 497 358 497 425 l 497 15 q 516 -42 497 -17 q 585 -68 535 -68 "},"갤":{"ha":1389,"x_min":17,"x_max":1357,"o":"m 1321 208 l 1321 407 q 1302 465 1321 439 q 1233 490 1283 490 l 540 490 q 488 420 488 490 q 540 350 489 350 l 1143 350 q 1154 346 1153 350 q 1156 336 1156 342 l 1156 279 q 1154 269 1156 274 q 1143 265 1153 265 l 583 265 q 515 240 533 265 q 496 182 496 214 l 496 -17 q 515 -74 496 -49 q 583 -100 533 -100 l 1304 -100 q 1356 -30 1356 -100 q 1304 40 1357 40 l 674 40 q 663 44 664 40 q 661 54 661 49 l 661 111 q 663 121 661 117 q 674 125 664 125 l 1233 125 q 1302 151 1283 125 q 1321 208 1321 176 m 656 867 l 656 1031 q 637 1088 656 1063 q 568 1114 618 1114 l 121 1114 q 69 1044 68 1114 q 121 974 69 974 l 478 974 q 489 969 488 974 q 490 960 490 965 l 490 868 q 359 593 490 718 q 72 413 228 468 q 47 328 17 393 q 153 290 76 263 q 558 579 461 404 q 656 867 656 754 m 942 588 l 942 765 l 1024 765 q 1057 776 1044 765 l 1057 588 q 1140 521 1057 521 q 1222 588 1222 521 l 1222 1078 q 1140 1144 1222 1144 q 1057 1078 1057 1144 l 1057 894 q 1024 906 1044 906 l 942 906 l 942 1078 q 859 1144 942 1144 q 776 1078 776 1144 l 776 588 q 859 521 776 521 q 942 588 942 521 "},"갬":{"ha":1389,"x_min":17,"x_max":1321,"o":"m 1321 15 l 1321 342 q 1302 399 1321 374 q 1233 425 1283 425 l 583 425 q 515 399 533 425 q 496 342 496 374 l 496 15 q 515 -42 496 -17 q 583 -68 533 -68 l 1233 -68 q 1302 -42 1283 -68 q 1321 15 1321 -17 m 942 524 l 942 732 l 1024 732 q 1057 743 1044 732 l 1057 524 q 1140 457 1057 457 q 1222 524 1222 457 l 1222 1078 q 1140 1144 1222 1144 q 1057 1078 1057 1144 l 1057 861 q 1024 872 1044 872 l 942 872 l 942 1078 q 859 1144 942 1144 q 776 1078 776 1144 l 776 524 q 859 457 776 457 q 942 524 942 457 m 656 867 l 656 1031 q 637 1088 656 1063 q 568 1114 618 1114 l 121 1114 q 69 1044 68 1114 q 121 974 69 974 l 478 974 q 489 969 488 974 q 490 960 490 965 l 490 868 q 359 593 490 718 q 72 413 228 468 q 47 328 17 393 q 153 290 76 263 q 558 578 461 401 q 656 867 656 754 m 1156 271 l 1156 86 q 1154 76 1156 81 q 1143 72 1153 72 l 674 72 q 663 76 664 72 q 661 86 661 81 l 661 271 q 663 281 661 276 q 674 285 664 285 l 1143 285 q 1154 281 1153 285 q 1156 271 1156 276 "},"갭":{"ha":1389,"x_min":17,"x_max":1321,"o":"m 1321 -1 l 1321 400 q 1238 467 1321 467 q 1156 400 1156 467 l 1156 319 l 735 319 q 683 249 682 319 q 735 179 683 179 l 1156 179 l 1156 69 q 1154 60 1156 64 q 1143 56 1153 56 l 674 56 q 663 60 664 56 q 661 69 661 64 l 661 400 q 578 467 661 467 q 496 400 496 467 l 496 -1 q 515 -59 496 -33 q 583 -85 533 -85 l 1233 -85 q 1301 -59 1283 -85 q 1321 -1 1319 -33 m 942 549 l 942 746 l 1024 746 q 1057 757 1044 746 l 1057 549 q 1140 482 1057 482 q 1222 549 1222 482 l 1222 1078 q 1140 1144 1222 1144 q 1057 1078 1057 1144 l 1057 875 q 1024 886 1044 886 l 942 886 l 942 1078 q 859 1144 942 1144 q 776 1078 776 1144 l 776 549 q 859 482 776 482 q 942 549 942 482 m 656 867 l 656 1031 q 637 1088 656 1063 q 568 1114 618 1114 l 121 1114 q 69 1044 68 1114 q 121 974 69 974 l 478 974 q 489 969 488 974 q 490 960 490 965 l 490 868 q 359 593 490 718 q 72 413 228 468 q 47 328 17 393 q 153 290 76 263 q 558 581 461 404 q 656 867 656 757 "},"갯":{"ha":1389,"x_min":17,"x_max":1368,"o":"m 942 517 l 942 746 l 1024 746 q 1057 757 1044 746 l 1057 461 q 1140 394 1057 394 q 1222 461 1222 394 l 1222 1078 q 1140 1144 1222 1144 q 1057 1078 1057 1144 l 1057 875 q 1024 886 1044 886 l 942 886 l 942 1078 q 859 1144 942 1144 q 776 1078 776 1144 l 776 517 q 859 450 776 450 q 942 517 942 450 m 656 867 l 656 1031 q 637 1088 656 1063 q 568 1114 618 1114 l 121 1114 q 69 1044 68 1114 q 121 974 69 974 l 478 974 q 489 969 488 974 q 490 960 490 965 l 490 868 q 359 593 490 718 q 72 413 228 468 q 47 328 17 393 q 153 290 76 263 q 558 577 461 401 q 656 867 656 753 m 513 -64 l 851 271 l 1189 -64 q 1305 -63 1242 -114 q 1315 39 1368 -12 l 925 415 q 890 436 910 431 q 850 442 869 442 q 811 436 831 442 q 776 415 792 431 l 386 39 q 397 -62 332 -11 q 513 -64 461 -114 "},"갰":{"ha":1389,"x_min":17,"x_max":1397,"o":"m 824 -83 q 861 -78 843 -85 q 889 -53 879 -71 l 1056 247 l 1221 -53 q 1324 -75 1250 -104 q 1357 26 1397 -46 l 1133 431 q 1100 465 1119 456 q 1054 475 1081 475 q 1010 465 1029 475 q 976 431 990 456 l 821 150 l 665 431 q 632 465 651 456 q 586 475 613 475 q 542 465 561 475 q 508 431 522 456 l 285 26 q 318 -75 244 -46 q 421 -53 392 -104 l 588 247 l 753 -53 q 783 -78 764 -71 q 824 -83 801 -85 m 942 565 l 942 760 l 1024 760 q 1057 771 1044 760 l 1057 565 q 1140 499 1057 499 q 1222 565 1222 499 l 1222 1078 q 1140 1144 1222 1144 q 1057 1078 1057 1144 l 1057 889 q 1024 900 1044 900 l 942 900 l 942 1078 q 859 1144 942 1144 q 776 1078 776 1144 l 776 565 q 859 499 776 499 q 942 565 942 499 m 656 867 l 656 1031 q 637 1088 656 1063 q 568 1114 618 1114 l 121 1114 q 69 1044 68 1114 q 121 974 69 974 l 478 974 q 489 969 488 974 q 490 960 490 965 l 490 868 q 359 593 490 718 q 72 413 228 468 q 47 327 17 393 q 153 290 76 261 q 558 581 461 410 q 656 867 656 753 "},"갱":{"ha":1389,"x_min":17,"x_max":1289,"o":"m 1289 157 q 1193 362 1289 276 q 960 447 1097 447 q 724 363 821 447 q 628 157 628 278 q 724 -49 628 36 q 960 -133 821 -133 q 1193 -48 1097 -133 q 1289 157 1289 38 m 942 536 l 942 760 l 1024 760 q 1057 771 1044 760 l 1057 522 q 1140 456 1057 456 q 1222 522 1222 456 l 1222 1078 q 1140 1144 1222 1144 q 1057 1078 1057 1144 l 1057 889 q 1024 900 1044 900 l 942 900 l 942 1078 q 859 1144 942 1144 q 776 1078 776 1144 l 776 536 q 859 469 776 469 q 942 536 942 469 m 656 867 l 656 1031 q 637 1088 656 1063 q 568 1114 618 1114 l 121 1114 q 69 1044 68 1114 q 121 974 69 974 l 478 974 q 489 969 488 974 q 490 960 490 965 l 490 868 q 359 593 490 718 q 72 413 228 468 q 47 328 17 393 q 153 290 76 263 q 558 581 461 401 q 656 867 656 761 m 1124 157 q 1076 51 1124 94 q 960 8 1028 8 q 844 51 892 8 q 796 157 796 94 q 844 263 796 219 q 960 306 892 306 q 1076 263 1028 306 q 1124 157 1124 219 "},"갸":{"ha":1354,"x_min":17,"x_max":1328,"o":"m 1328 399 q 1297 474 1328 443 q 1221 506 1265 506 q 1145 474 1176 506 q 1114 399 1114 443 q 1145 323 1114 354 q 1221 292 1176 292 q 1297 323 1265 292 q 1328 399 1328 354 m 1068 31 l 1068 1078 q 985 1144 1068 1144 q 903 1078 903 1144 l 903 31 q 985 -36 903 -36 q 1068 31 1068 -36 m 153 101 q 598 405 447 208 q 749 747 749 601 l 749 1031 q 730 1088 749 1063 q 661 1114 711 1114 l 121 1114 q 69 1044 68 1114 q 121 974 69 974 l 571 974 q 582 969 581 974 q 583 960 583 965 l 583 790 q 404 441 583 593 q 72 224 225 289 q 45 136 17 200 q 153 101 74 72 m 1328 801 q 1297 877 1328 846 q 1221 908 1265 908 q 1145 877 1176 908 q 1114 801 1114 846 q 1145 726 1114 757 q 1221 694 1176 694 q 1297 726 1265 694 q 1328 801 1328 757 "},"갹":{"ha":1389,"x_min":17,"x_max":1328,"o":"m 1321 -19 l 1321 342 q 1302 399 1321 374 q 1233 425 1283 425 l 532 425 q 480 355 479 425 q 532 285 481 285 l 1143 285 q 1154 281 1153 285 q 1156 271 1156 276 l 1156 -19 q 1238 -86 1156 -86 q 1321 -19 1321 -86 m 1068 521 l 1068 1078 q 985 1144 1068 1144 q 903 1078 903 1144 l 903 521 q 985 454 903 454 q 1068 521 1068 454 m 749 853 l 749 1031 q 730 1088 749 1063 q 661 1114 711 1114 l 121 1114 q 69 1044 68 1114 q 121 974 69 974 l 571 974 q 582 969 581 974 q 583 960 583 965 l 583 868 q 406 595 583 722 q 72 413 228 468 q 45 328 17 393 q 153 290 74 264 q 603 563 458 393 q 749 853 749 732 m 1328 663 q 1297 738 1328 707 q 1221 769 1265 769 q 1145 738 1176 769 q 1114 663 1114 707 q 1145 587 1114 618 q 1221 556 1176 556 q 1297 587 1265 556 q 1328 663 1328 618 m 1328 940 q 1297 1016 1328 985 q 1221 1047 1265 1047 q 1145 1016 1176 1047 q 1114 940 1114 985 q 1145 865 1114 896 q 1221 833 1176 833 q 1297 865 1265 833 q 1328 940 1328 896 "},"갼":{"ha":1389,"x_min":17,"x_max":1328,"o":"m 585 -68 l 1272 -68 q 1324 2 1325 -68 q 1272 72 1324 72 l 675 72 q 664 76 665 72 q 663 86 663 81 l 663 358 q 580 425 663 425 q 497 358 497 425 l 497 15 q 516 -42 497 -17 q 585 -68 535 -68 m 749 853 l 749 1031 q 730 1088 749 1063 q 661 1114 711 1114 l 121 1114 q 69 1044 68 1114 q 121 974 69 974 l 571 974 q 582 969 581 974 q 583 960 583 965 l 583 868 q 406 595 583 722 q 72 413 228 468 q 45 328 17 393 q 153 290 74 264 q 603 563 458 393 q 749 853 749 732 m 1068 358 l 1068 1078 q 985 1144 1068 1144 q 903 1078 903 1144 l 903 358 q 985 292 903 292 q 1068 358 1068 292 m 1328 579 q 1297 655 1328 624 q 1221 686 1265 686 q 1145 655 1176 686 q 1114 579 1114 624 q 1145 503 1114 535 q 1221 472 1176 472 q 1297 503 1265 472 q 1328 579 1328 535 m 1328 899 q 1297 974 1328 943 q 1221 1006 1265 1006 q 1145 974 1176 1006 q 1114 899 1114 943 q 1145 823 1114 854 q 1221 792 1176 792 q 1297 823 1265 792 q 1328 899 1328 854 "},"걀":{"ha":1389,"x_min":17,"x_max":1357,"o":"m 749 853 l 749 1031 q 730 1088 749 1063 q 661 1114 711 1114 l 121 1114 q 69 1044 68 1114 q 121 974 69 974 l 571 974 q 582 969 581 974 q 583 960 583 965 l 583 868 q 406 595 583 722 q 72 413 228 468 q 45 328 17 393 q 153 290 74 264 q 494 461 361 360 q 488 419 488 444 q 540 350 489 350 l 1143 350 q 1154 346 1153 350 q 1156 336 1156 342 l 1156 279 q 1154 269 1156 274 q 1143 265 1153 265 l 583 265 q 515 240 533 265 q 496 182 496 214 l 496 -17 q 515 -74 496 -49 q 583 -100 533 -100 l 1304 -100 q 1356 -30 1356 -100 q 1304 40 1357 40 l 674 40 q 663 44 664 40 q 661 54 661 49 l 661 111 q 663 121 661 117 q 674 125 664 125 l 1233 125 q 1302 151 1283 125 q 1321 208 1321 176 l 1321 407 q 1302 465 1321 439 q 1233 490 1283 490 l 540 490 q 529 489 535 490 q 603 563 571 524 q 749 853 749 732 m 1068 581 l 1068 1079 q 985 1146 1068 1146 q 903 1079 903 1146 l 903 581 q 985 514 903 514 q 1068 581 1068 514 m 1328 718 q 1297 794 1328 763 q 1221 825 1265 825 q 1145 794 1176 825 q 1114 718 1114 763 q 1145 642 1114 674 q 1221 611 1176 611 q 1297 642 1265 611 q 1328 718 1328 674 m 1328 968 q 1297 1044 1328 1013 q 1221 1075 1265 1075 q 1145 1044 1176 1075 q 1114 968 1114 1013 q 1145 892 1114 924 q 1221 861 1176 861 q 1297 892 1265 861 q 1328 968 1328 924 "},"걋":{"ha":1389,"x_min":17,"x_max":1328,"o":"m 1068 489 l 1068 1078 q 985 1144 1068 1144 q 903 1078 903 1144 l 903 489 q 985 422 903 422 q 1068 489 1068 422 m 749 853 l 749 1031 q 730 1088 749 1063 q 661 1114 711 1114 l 121 1114 q 69 1044 68 1114 q 121 974 69 974 l 571 974 q 582 969 581 974 q 583 960 583 965 l 583 868 q 406 595 583 722 q 72 413 228 468 q 45 328 17 393 q 153 290 74 264 q 603 563 458 393 q 749 853 749 732 m 457 -64 l 796 271 l 1133 -64 q 1249 -63 1186 -114 q 1260 39 1313 -12 l 869 415 q 834 436 854 431 q 794 442 814 442 q 756 436 775 442 q 721 415 736 431 l 331 39 q 341 -62 276 -11 q 457 -64 406 -114 m 1328 621 q 1297 697 1328 665 q 1221 728 1265 728 q 1145 697 1176 728 q 1114 621 1114 665 q 1145 545 1114 576 q 1221 514 1176 514 q 1297 545 1265 514 q 1328 621 1328 576 m 1328 926 q 1297 1002 1328 971 q 1221 1033 1265 1033 q 1145 1002 1176 1033 q 1114 926 1114 971 q 1145 851 1114 882 q 1221 819 1176 819 q 1297 851 1265 819 q 1328 926 1328 882 "},"걍":{"ha":1389,"x_min":17,"x_max":1328,"o":"m 1068 540 l 1068 1078 q 985 1144 1068 1144 q 903 1078 903 1144 l 903 540 q 985 474 903 474 q 1068 540 1068 474 m 749 853 l 749 1031 q 730 1088 749 1063 q 661 1114 711 1114 l 121 1114 q 69 1044 68 1114 q 121 974 69 974 l 571 974 q 582 969 581 974 q 583 960 583 965 l 583 868 q 406 595 583 722 q 72 413 228 468 q 45 328 17 393 q 153 290 74 264 q 603 563 458 393 q 749 853 749 732 m 1289 157 q 1193 362 1289 276 q 960 447 1097 447 q 724 363 821 447 q 628 157 628 278 q 724 -49 628 36 q 960 -133 821 -133 q 1193 -48 1097 -133 q 1289 157 1289 38 m 1124 157 q 1076 51 1124 94 q 960 8 1028 8 q 844 51 892 8 q 796 157 796 94 q 844 263 796 219 q 960 306 892 306 q 1076 263 1028 306 q 1124 157 1124 219 m 1328 663 q 1297 738 1328 707 q 1221 769 1265 769 q 1145 738 1176 769 q 1114 663 1114 707 q 1145 587 1114 618 q 1221 556 1176 556 q 1297 587 1265 556 q 1328 663 1328 618 m 1328 954 q 1297 1030 1328 999 q 1221 1061 1265 1061 q 1145 1030 1176 1061 q 1114 954 1114 999 q 1145 878 1114 910 q 1221 847 1176 847 q 1297 878 1265 847 q 1328 954 1328 910 "},"걔":{"ha":1354,"x_min":17,"x_max":1222,"o":"m 935 31 l 935 357 l 1024 357 q 1057 368 1044 357 l 1057 31 q 1140 -36 1057 -36 q 1222 31 1222 -36 l 1222 1078 q 1140 1144 1222 1144 q 1057 1078 1057 1144 l 1057 847 q 1024 858 1044 858 l 935 858 l 935 1078 q 852 1144 935 1144 q 769 1078 769 1144 l 769 31 q 852 -36 769 -36 q 935 31 935 -36 m 153 101 q 549 431 442 221 q 657 761 657 642 l 657 1031 q 638 1088 657 1063 q 569 1114 619 1114 l 121 1114 q 69 1044 68 1114 q 121 974 69 974 l 479 974 q 490 969 489 974 q 492 960 492 965 l 492 790 q 358 442 492 594 q 72 224 225 289 q 47 135 17 200 q 153 101 76 69 m 935 718 l 1024 718 q 1057 729 1044 718 l 1057 486 q 1024 497 1044 497 l 935 497 l 935 718 "},"걘":{"ha":1389,"x_min":17,"x_max":1325,"o":"m 942 360 l 942 524 l 1024 524 q 1057 535 1044 524 l 1057 360 q 1140 293 1057 293 q 1222 360 1222 293 l 1222 1078 q 1140 1144 1222 1144 q 1057 1078 1057 1144 l 1057 944 q 1024 956 1044 956 l 942 956 l 942 1078 q 859 1144 942 1144 q 776 1078 776 1144 l 776 360 q 859 293 776 293 q 942 360 942 293 m 656 867 l 656 1031 q 637 1088 656 1063 q 568 1114 618 1114 l 121 1114 q 69 1044 68 1114 q 121 974 69 974 l 478 974 q 489 969 488 974 q 490 960 490 965 l 490 868 q 359 593 490 718 q 72 413 228 468 q 47 328 17 393 q 153 290 76 263 q 558 578 461 401 q 656 867 656 754 m 585 -68 l 1272 -68 q 1324 2 1325 -68 q 1272 72 1324 72 l 675 72 q 664 76 665 72 q 663 86 663 81 l 663 358 q 580 425 663 425 q 497 358 497 425 l 497 15 q 516 -42 497 -17 q 585 -68 535 -68 m 942 815 l 1024 815 q 1057 826 1044 815 l 1057 653 q 1024 664 1044 664 l 942 664 l 942 815 "},"걜":{"ha":1389,"x_min":17,"x_max":1357,"o":"m 1321 208 l 1321 407 q 1302 465 1321 439 q 1233 490 1283 490 l 540 490 q 488 420 488 490 q 540 350 489 350 l 1143 350 q 1154 346 1153 350 q 1156 336 1156 342 l 1156 279 q 1154 269 1156 274 q 1143 265 1153 265 l 583 265 q 515 240 533 265 q 496 182 496 214 l 496 -17 q 515 -74 496 -49 q 583 -100 533 -100 l 1304 -100 q 1356 -30 1356 -100 q 1304 40 1357 40 l 674 40 q 663 44 664 40 q 661 54 661 49 l 661 111 q 663 121 661 117 q 674 125 664 125 l 1233 125 q 1302 151 1283 125 q 1321 208 1321 176 m 942 588 l 942 649 l 1024 649 q 1057 660 1044 649 l 1057 588 q 1140 521 1057 521 q 1222 588 1222 521 l 1222 1078 q 1140 1144 1222 1144 q 1057 1078 1057 1144 l 1057 1000 q 1024 1011 1044 1011 l 942 1011 l 942 1078 q 859 1144 942 1144 q 776 1078 776 1144 l 776 588 q 859 521 776 521 q 942 588 942 521 m 656 867 l 656 1031 q 637 1088 656 1063 q 568 1114 618 1114 l 121 1114 q 69 1044 68 1114 q 121 974 69 974 l 478 974 q 489 969 488 974 q 490 960 490 965 l 490 868 q 359 593 490 718 q 72 413 228 468 q 47 328 17 393 q 153 290 76 263 q 558 579 461 404 q 656 867 656 754 m 942 871 l 1024 871 q 1057 882 1044 871 l 1057 778 q 1024 789 1044 789 l 942 789 l 942 871 "},"거":{"ha":1321,"x_min":17,"x_max":1156,"o":"m 957 635 q 926 710 957 679 q 850 742 894 742 q 774 710 806 742 q 743 635 743 679 q 774 559 743 590 q 850 528 806 528 q 926 559 894 528 q 957 635 957 590 m 153 101 q 578 415 447 215 q 710 761 710 615 l 710 1031 q 691 1088 710 1063 q 622 1114 672 1114 l 121 1114 q 69 1044 68 1114 q 121 974 69 974 l 532 974 q 543 969 542 974 q 544 960 544 965 l 544 790 q 385 441 544 593 q 72 224 225 289 q 46 135 17 200 q 153 101 75 71 m 1156 31 l 1156 1078 q 1073 1144 1156 1144 q 990 1078 990 1144 l 990 31 q 1073 -36 990 -36 q 1156 31 1156 -36 "},"걱":{"ha":1321,"x_min":17,"x_max":1254,"o":"m 1254 -19 l 1254 342 q 1235 399 1254 374 q 1167 425 1217 425 l 465 425 q 413 355 413 425 q 465 285 414 285 l 1076 285 q 1088 281 1086 285 q 1089 271 1089 276 l 1089 -19 q 1172 -86 1089 -86 q 1254 -19 1254 -86 m 707 853 l 707 1031 q 688 1088 707 1063 q 619 1114 669 1114 l 121 1114 q 69 1044 68 1114 q 121 974 69 974 l 529 974 q 540 969 539 974 q 542 960 542 965 l 542 868 q 385 595 542 722 q 72 413 228 468 q 45 328 17 393 q 153 290 74 264 q 581 564 456 396 q 707 853 707 732 m 954 801 q 923 877 954 846 q 847 908 892 908 q 772 877 803 908 q 740 801 740 846 q 772 726 740 757 q 847 694 803 694 q 923 726 892 694 q 954 801 954 757 m 1156 522 l 1156 1078 q 1073 1144 1156 1144 q 990 1078 990 1144 l 990 522 q 1073 456 990 456 q 1156 522 1156 456 "},"건":{"ha":1321,"x_min":17,"x_max":1272,"o":"m 518 -68 l 1219 -68 q 1272 2 1272 -68 q 1219 72 1271 72 l 608 72 q 597 76 599 72 q 596 86 596 81 l 596 358 q 513 425 596 425 q 431 358 431 425 l 431 15 q 449 -42 431 -17 q 518 -68 468 -68 m 707 853 l 707 1031 q 688 1088 707 1063 q 619 1114 669 1114 l 121 1114 q 69 1044 68 1114 q 121 974 69 974 l 529 974 q 540 969 539 974 q 542 960 542 965 l 542 868 q 385 595 542 722 q 72 413 228 468 q 45 328 17 393 q 153 290 74 264 q 583 563 458 393 q 707 853 707 732 m 1156 358 l 1156 1078 q 1073 1144 1156 1144 q 990 1078 990 1144 l 990 358 q 1073 292 990 292 q 1156 358 1156 292 m 957 760 q 926 835 957 804 q 850 867 894 867 q 774 835 806 867 q 743 760 743 804 q 774 684 743 715 q 850 653 806 653 q 926 684 894 653 q 957 760 957 715 "},"걷":{"ha":1321,"x_min":17,"x_max":1292,"o":"m 518 -68 l 1236 -68 q 1290 2 1292 -68 q 1236 72 1289 72 l 608 72 q 597 76 599 72 q 596 86 596 81 l 596 271 q 597 281 596 276 q 608 285 599 285 l 1204 285 q 1258 355 1260 285 q 1204 425 1257 425 l 518 425 q 449 399 468 425 q 431 342 431 374 l 431 15 q 449 -42 431 -17 q 518 -68 468 -68 m 710 853 l 710 1031 q 691 1088 710 1063 q 622 1114 672 1114 l 121 1114 q 69 1044 68 1114 q 121 974 69 974 l 532 974 q 543 969 542 974 q 544 960 544 965 l 544 868 q 386 595 544 722 q 72 413 228 468 q 45 328 17 393 q 153 290 74 264 q 584 563 458 393 q 710 853 710 732 m 1156 521 l 1156 1078 q 1073 1144 1156 1144 q 990 1078 990 1144 l 990 521 q 1073 454 990 454 q 1156 521 1156 454 m 957 815 q 926 891 957 860 q 850 922 894 922 q 774 891 806 922 q 743 815 743 860 q 774 740 743 771 q 850 708 806 708 q 926 740 894 708 q 957 815 957 771 "},"걸":{"ha":1321,"x_min":17,"x_max":1292,"o":"m 710 853 l 710 1031 q 691 1088 710 1063 q 622 1114 672 1114 l 121 1114 q 69 1044 68 1114 q 121 974 69 974 l 532 974 q 543 969 542 974 q 544 960 544 965 l 544 868 q 386 595 544 722 q 72 413 228 468 q 45 328 17 393 q 153 290 74 263 q 422 419 311 346 q 475 350 424 350 l 1078 350 q 1089 346 1088 350 q 1090 336 1090 342 l 1090 279 q 1089 269 1090 274 q 1078 265 1088 265 l 518 265 q 449 240 468 265 q 431 182 431 214 l 431 -17 q 449 -74 431 -49 q 518 -100 468 -100 l 1239 -100 q 1291 -30 1290 -100 q 1239 40 1292 40 l 608 40 q 597 44 599 40 q 596 54 596 49 l 596 111 q 597 121 596 117 q 608 125 599 125 l 1168 125 q 1237 151 1218 125 q 1256 208 1256 176 l 1256 407 q 1237 465 1256 439 q 1168 490 1218 490 l 511 490 q 578 563 549 525 q 710 853 710 732 m 1156 581 l 1156 1079 q 1073 1146 1156 1146 q 990 1079 990 1146 l 990 581 q 1073 514 990 514 q 1156 581 1156 514 m 957 843 q 926 919 957 888 q 850 950 894 950 q 774 919 806 950 q 743 843 743 888 q 774 767 743 799 q 850 736 806 736 q 926 767 894 736 q 957 843 957 799 "},"걺":{"ha":1321,"x_min":17,"x_max":1256,"o":"m 708 208 l 708 407 q 690 465 708 439 q 621 490 671 490 l 417 490 q 582 625 521 551 q 707 894 707 774 l 707 1031 q 688 1088 707 1063 q 619 1114 669 1114 l 121 1114 q 69 1044 68 1114 q 121 974 69 974 l 529 974 q 540 969 539 974 q 542 960 542 965 l 542 910 q 385 658 542 764 q 72 496 228 551 q 45 412 17 476 q 153 374 74 347 q 211 394 183 383 q 261 350 219 350 l 531 350 q 542 346 540 350 q 543 336 543 342 l 543 279 q 542 269 543 274 q 531 265 540 265 l 304 265 q 235 240 254 265 q 217 182 217 214 l 217 -17 q 235 -74 217 -49 q 304 -100 254 -100 l 692 -100 q 744 -30 743 -100 q 692 40 744 40 l 394 40 q 383 44 385 40 q 382 54 382 49 l 382 111 q 383 121 382 117 q 394 125 385 125 l 621 125 q 690 151 671 125 q 708 208 708 176 m 1256 -17 l 1256 407 q 1237 465 1256 439 q 1168 490 1218 490 l 851 490 q 783 465 801 490 q 764 407 764 439 l 764 -17 q 783 -74 764 -49 q 851 -100 801 -100 l 1168 -100 q 1237 -74 1218 -100 q 1256 -17 1256 -49 m 1156 581 l 1156 1079 q 1073 1146 1156 1146 q 990 1079 990 1146 l 990 581 q 1073 514 990 514 q 1156 581 1156 514 m 1090 336 l 1090 54 q 1089 44 1090 49 q 1078 40 1088 40 l 942 40 q 931 44 932 40 q 929 54 929 49 l 929 336 q 931 346 929 342 q 942 350 932 350 l 1078 350 q 1089 346 1088 350 q 1090 336 1090 342 m 954 843 q 923 919 954 888 q 847 950 892 950 q 772 919 803 950 q 740 843 740 888 q 772 767 740 799 q 847 736 803 736 q 923 767 892 736 q 954 843 954 799 "},"검":{"ha":1321,"x_min":17,"x_max":1256,"o":"m 1256 15 l 1256 342 q 1237 399 1256 374 q 1168 425 1218 425 l 518 425 q 449 399 468 425 q 431 342 431 374 l 431 15 q 449 -42 431 -17 q 518 -68 468 -68 l 1168 -68 q 1237 -42 1218 -68 q 1256 15 1256 -17 m 1090 271 l 1090 86 q 1089 76 1090 81 q 1078 72 1088 72 l 608 72 q 597 76 599 72 q 596 86 596 81 l 596 271 q 597 281 596 276 q 608 285 599 285 l 1078 285 q 1089 281 1088 285 q 1090 271 1090 276 m 710 853 l 710 1031 q 691 1088 710 1063 q 622 1114 672 1114 l 121 1114 q 69 1044 68 1114 q 121 974 69 974 l 532 974 q 543 969 542 974 q 544 960 544 965 l 544 868 q 386 595 544 722 q 72 413 228 468 q 45 328 17 393 q 153 290 74 264 q 578 562 447 392 q 710 853 710 732 m 1156 521 l 1156 1078 q 1073 1144 1156 1144 q 990 1078 990 1144 l 990 521 q 1073 454 990 454 q 1156 521 1156 454 m 957 801 q 926 877 957 846 q 850 908 894 908 q 774 877 806 908 q 743 801 743 846 q 774 726 743 757 q 850 694 806 694 q 926 726 894 694 q 957 801 957 757 "},"겁":{"ha":1321,"x_min":17,"x_max":1256,"o":"m 1256 -1 l 1256 400 q 1173 467 1256 467 q 1090 400 1090 467 l 1090 319 l 668 319 q 616 249 615 319 q 668 179 617 179 l 1090 179 l 1090 69 q 1089 60 1090 64 q 1078 56 1088 56 l 608 56 q 597 60 599 56 q 596 69 596 64 l 596 400 q 513 467 596 467 q 488 464 499 467 q 583 565 544 511 q 710 853 710 739 l 710 1031 q 691 1088 710 1063 q 622 1114 672 1114 l 121 1114 q 69 1044 68 1114 q 121 974 69 974 l 532 974 q 543 969 542 974 q 544 960 544 965 l 544 868 q 386 595 544 722 q 72 413 228 468 q 45 328 17 393 q 153 290 74 264 q 433 424 321 346 q 431 400 431 413 l 431 -1 q 449 -59 431 -33 q 518 -85 468 -85 l 1168 -85 q 1236 -59 1218 -85 q 1256 -1 1254 -33 m 1156 556 l 1156 1079 q 1073 1146 1156 1146 q 990 1079 990 1146 l 990 556 q 1073 489 990 489 q 1156 556 1156 489 m 957 829 q 926 905 957 874 q 850 936 894 936 q 774 905 806 936 q 743 829 743 874 q 774 753 743 785 q 850 722 806 722 q 926 753 894 722 q 957 829 957 785 "},"것":{"ha":1321,"x_min":17,"x_max":1343,"o":"m 710 853 l 710 1031 q 691 1088 710 1063 q 622 1114 672 1114 l 121 1114 q 69 1044 68 1114 q 121 974 69 974 l 532 974 q 543 969 542 974 q 544 960 544 965 l 544 868 q 386 595 544 722 q 72 413 228 468 q 45 328 17 393 q 153 290 74 264 q 584 569 458 393 q 710 853 710 744 m 488 -64 l 826 271 l 1164 -64 q 1280 -63 1217 -114 q 1290 39 1343 -12 l 900 415 q 865 436 885 431 q 825 442 844 442 q 786 436 806 442 q 751 415 767 431 l 361 39 q 372 -62 307 -11 q 488 -64 436 -114 m 957 788 q 926 863 957 832 q 850 894 894 894 q 774 863 806 894 q 743 788 743 832 q 774 712 743 743 q 850 681 806 681 q 926 712 894 681 q 957 788 957 743 m 1156 442 l 1156 1078 q 1073 1144 1156 1144 q 990 1078 990 1144 l 990 442 q 1073 375 990 375 q 1156 442 1156 375 "},"겄":{"ha":1321,"x_min":17,"x_max":1339,"o":"m 710 894 l 710 1031 q 691 1088 710 1063 q 622 1114 672 1114 l 121 1114 q 69 1044 68 1114 q 121 974 69 974 l 532 974 q 543 969 542 974 q 544 960 544 965 l 544 910 q 386 658 544 764 q 72 496 228 551 q 45 412 17 476 q 153 374 74 347 q 584 628 458 476 q 710 894 710 781 m 1156 544 l 1156 1079 q 1073 1146 1156 1146 q 990 1079 990 1146 l 990 544 q 1073 478 990 478 q 1156 544 1156 478 m 957 829 q 926 905 957 874 q 850 936 894 936 q 774 905 806 936 q 743 829 743 874 q 774 753 743 785 q 850 722 806 722 q 926 753 894 722 q 957 829 957 785 m 765 -85 q 803 -79 785 -86 q 831 -54 821 -72 l 997 246 l 1163 -54 q 1265 -76 1192 -106 q 1299 25 1339 -47 l 1075 429 q 1042 464 1061 454 q 996 474 1022 474 q 951 464 971 474 q 918 429 932 454 l 763 149 l 607 429 q 574 464 593 454 q 528 474 554 474 q 483 464 503 474 q 450 429 464 454 l 226 25 q 260 -76 186 -47 q 363 -54 333 -106 l 529 246 l 694 -54 q 724 -79 706 -72 q 765 -85 743 -86 "},"겅":{"ha":1321,"x_min":17,"x_max":1222,"o":"m 710 853 l 710 1031 q 691 1088 710 1063 q 622 1114 672 1114 l 121 1114 q 69 1044 68 1114 q 121 974 69 974 l 532 974 q 543 969 542 974 q 544 960 544 965 l 544 868 q 386 595 544 722 q 72 413 228 468 q 45 328 17 393 q 153 290 74 264 q 584 568 458 393 q 710 853 710 743 m 1222 157 q 1126 362 1222 276 q 893 447 1031 447 q 658 363 754 447 q 561 157 561 278 q 658 -49 561 36 q 893 -133 754 -133 q 1126 -48 1031 -133 q 1222 157 1222 38 m 1057 157 q 1009 51 1057 94 q 893 8 961 8 q 777 51 825 8 q 729 157 729 94 q 777 263 729 219 q 893 306 825 306 q 1009 263 961 306 q 1057 157 1057 219 m 1156 533 l 1156 1078 q 1073 1144 1156 1144 q 990 1078 990 1144 l 990 533 q 1073 467 990 467 q 1156 533 1156 467 m 957 815 q 926 891 957 860 q 850 922 894 922 q 774 891 806 922 q 743 815 743 860 q 774 740 743 771 q 850 708 806 708 q 926 740 894 708 q 957 815 957 771 "},"겆":{"ha":1321,"x_min":17,"x_max":1328,"o":"m 443 318 l 665 318 l 386 39 q 397 -62 332 -11 q 513 -64 461 -114 l 829 258 l 1147 -64 q 1264 -62 1200 -114 q 1274 39 1328 -11 l 994 318 l 1240 318 q 1294 388 1293 318 q 1240 458 1294 458 l 490 458 q 603 563 556 507 q 749 853 749 732 l 749 1031 q 730 1088 749 1063 q 661 1114 711 1114 l 121 1114 q 69 1044 68 1114 q 121 974 69 974 l 571 974 q 582 969 581 974 q 583 960 583 965 l 583 868 q 406 595 583 722 q 72 413 228 468 q 45 328 17 393 q 153 290 74 264 q 390 393 288 335 l 390 388 q 443 318 392 318 m 1222 558 l 1222 1079 q 1140 1146 1222 1146 q 1057 1079 1057 1146 l 1057 558 q 1140 492 1057 492 q 1222 558 1222 492 m 1024 829 q 992 905 1024 874 q 917 936 961 936 q 841 905 872 936 q 810 829 810 874 q 841 753 810 785 q 917 722 872 722 q 992 753 961 722 q 1024 829 1024 785 "},"겉":{"ha":1321,"x_min":17,"x_max":1293,"o":"m 710 853 l 710 1031 q 691 1088 710 1063 q 622 1114 672 1114 l 121 1114 q 69 1044 68 1114 q 121 974 69 974 l 532 974 q 543 969 542 974 q 544 960 544 965 l 544 868 q 386 595 544 722 q 72 413 228 468 q 45 328 17 393 q 153 290 74 264 q 435 425 321 347 q 431 397 431 411 l 431 15 q 449 -42 431 -17 q 518 -68 468 -68 l 1238 -68 q 1292 2 1293 -68 q 1238 72 1290 72 l 608 72 q 597 76 599 72 q 596 86 596 81 l 596 142 l 1203 142 q 1255 212 1254 142 q 1203 282 1256 282 l 596 282 l 596 326 q 597 336 596 332 q 608 340 599 340 l 1206 340 q 1260 410 1261 340 q 1206 481 1258 481 l 518 481 q 504 479 511 481 q 583 568 550 521 q 710 853 710 743 m 1156 581 l 1156 1079 q 1073 1146 1156 1146 q 990 1079 990 1146 l 990 581 q 1073 514 990 514 q 1156 581 1156 514 m 957 829 q 926 905 957 874 q 850 936 894 936 q 774 905 806 936 q 743 829 743 874 q 774 753 743 785 q 850 722 806 722 q 926 753 894 722 q 957 829 957 785 "},"겊":{"ha":1321,"x_min":17,"x_max":1269,"o":"m 376 318 l 1174 318 q 1227 388 1226 318 q 1174 458 1228 458 l 479 458 q 583 568 542 510 q 710 853 710 744 l 710 1031 q 691 1088 710 1063 q 622 1114 672 1114 l 121 1114 q 69 1044 68 1114 q 121 974 69 974 l 532 974 q 543 969 542 974 q 544 960 544 965 l 544 868 q 386 595 544 722 q 72 413 228 468 q 45 328 17 393 q 153 290 74 264 q 326 361 249 322 q 376 318 335 318 m 335 -85 l 1215 -85 q 1269 -15 1268 -85 q 1215 56 1269 56 l 1057 56 l 1057 239 q 974 306 1057 306 q 892 239 892 306 l 892 56 l 661 56 l 661 239 q 578 306 661 306 q 496 239 496 306 l 496 56 l 335 56 q 283 -15 282 56 q 335 -85 283 -85 m 1156 558 l 1156 1079 q 1073 1146 1156 1146 q 990 1079 990 1146 l 990 558 q 1073 492 990 492 q 1156 558 1156 492 m 957 829 q 926 905 957 874 q 850 936 894 936 q 774 905 806 936 q 743 829 743 874 q 774 753 743 785 q 850 722 806 722 q 926 753 894 722 q 957 829 957 785 "},"겋":{"ha":1321,"x_min":17,"x_max":1311,"o":"m 432 269 l 603 269 q 556 126 556 206 q 640 -57 556 19 q 847 -133 725 -133 q 1051 -56 967 -133 q 1136 126 1136 21 q 1088 269 1136 207 l 1257 269 q 1310 340 1310 269 q 1257 410 1311 410 l 929 410 l 929 511 q 847 578 929 578 q 764 511 764 578 l 764 410 l 432 410 q 380 340 379 410 q 432 269 381 269 m 710 853 l 710 1031 q 691 1088 710 1063 q 622 1114 672 1114 l 121 1114 q 69 1044 68 1114 q 121 974 69 974 l 532 974 q 543 969 542 974 q 544 960 544 965 l 544 868 q 386 595 544 722 q 72 413 228 468 q 45 328 17 393 q 153 290 74 264 q 584 574 458 393 q 710 853 710 756 m 1156 558 l 1156 1079 q 1073 1146 1156 1146 q 990 1079 990 1146 l 990 558 q 1073 492 990 492 q 1156 558 1156 492 m 971 126 q 934 42 971 76 q 847 7 897 7 q 759 42 796 7 q 722 126 722 76 q 759 211 722 176 q 847 246 796 246 q 934 211 897 246 q 971 126 971 176 m 957 843 q 926 919 957 888 q 850 950 894 950 q 774 919 806 950 q 743 843 743 888 q 774 767 743 799 q 850 736 806 736 q 926 767 894 736 q 957 843 957 799 "},"게":{"ha":1354,"x_min":17,"x_max":1222,"o":"m 153 101 q 549 433 442 221 q 628 614 600 535 q 679 560 633 560 l 804 560 l 804 31 q 887 -36 804 -36 q 969 31 969 -36 l 969 1078 q 887 1144 969 1144 q 804 1078 804 1144 l 804 700 l 679 700 q 649 692 661 700 q 657 761 657 729 l 657 1031 q 638 1088 657 1063 q 569 1114 619 1114 l 121 1114 q 69 1044 68 1114 q 121 974 69 974 l 479 974 q 490 969 489 974 q 492 960 492 965 l 492 790 q 358 442 492 594 q 72 224 225 289 q 47 135 17 200 q 153 101 76 69 m 1222 31 l 1222 1078 q 1140 1144 1222 1144 q 1057 1078 1057 1144 l 1057 31 q 1140 -36 1057 -36 q 1222 31 1222 -36 "},"겐":{"ha":1389,"x_min":17,"x_max":1325,"o":"m 656 867 l 656 1031 q 637 1088 656 1063 q 568 1114 618 1114 l 121 1114 q 69 1044 68 1114 q 121 974 69 974 l 478 974 q 489 969 488 974 q 490 960 490 965 l 490 868 q 359 593 490 718 q 72 413 228 468 q 47 328 17 393 q 153 290 76 263 q 558 578 461 401 q 628 731 604 661 q 679 685 638 685 l 804 685 l 804 360 q 887 293 804 293 q 969 360 969 293 l 969 1078 q 887 1144 969 1144 q 804 1078 804 1144 l 804 825 l 679 825 q 651 818 663 825 q 656 867 656 844 m 585 -68 l 1272 -68 q 1324 2 1325 -68 q 1272 72 1324 72 l 675 72 q 664 76 665 72 q 663 86 663 81 l 663 358 q 580 425 663 425 q 497 358 497 425 l 497 15 q 516 -42 497 -17 q 585 -68 535 -68 m 1222 360 l 1222 1078 q 1140 1144 1222 1144 q 1057 1078 1057 1144 l 1057 360 q 1140 293 1057 293 q 1222 360 1222 293 "},"겔":{"ha":1389,"x_min":17,"x_max":1357,"o":"m 1321 208 l 1321 407 q 1302 465 1321 439 q 1233 490 1283 490 l 540 490 q 488 420 488 490 q 540 350 489 350 l 1143 350 q 1154 346 1153 350 q 1156 336 1156 342 l 1156 279 q 1154 269 1156 274 q 1143 265 1153 265 l 583 265 q 515 240 533 265 q 496 182 496 214 l 496 -17 q 515 -74 496 -49 q 583 -100 533 -100 l 1304 -100 q 1356 -30 1356 -100 q 1304 40 1357 40 l 674 40 q 663 44 664 40 q 661 54 661 49 l 661 111 q 663 121 661 117 q 674 125 664 125 l 1233 125 q 1302 151 1283 125 q 1321 208 1321 176 m 969 588 l 969 1078 q 887 1144 969 1144 q 804 1078 804 1144 l 804 908 l 693 908 q 656 893 668 908 l 656 1031 q 637 1088 656 1063 q 568 1114 618 1114 l 121 1114 q 69 1044 68 1114 q 121 974 69 974 l 478 974 q 489 969 488 974 q 490 960 490 965 l 490 868 q 359 593 490 718 q 72 413 228 468 q 47 328 17 393 q 153 290 76 263 q 558 579 461 401 q 647 797 628 707 q 693 768 658 768 l 804 768 l 804 588 q 887 521 804 521 q 969 588 969 521 m 1222 588 l 1222 1078 q 1140 1144 1222 1144 q 1057 1078 1057 1144 l 1057 588 q 1140 521 1057 521 q 1222 588 1222 521 "},"겜":{"ha":1389,"x_min":17,"x_max":1321,"o":"m 1321 15 l 1321 342 q 1302 399 1321 374 q 1233 425 1283 425 l 583 425 q 515 399 533 425 q 496 342 496 374 l 496 15 q 515 -42 496 -17 q 583 -68 533 -68 l 1233 -68 q 1302 -42 1283 -68 q 1321 15 1321 -17 m 969 524 l 969 1078 q 887 1144 969 1144 q 804 1078 804 1144 l 804 874 l 679 874 q 656 868 665 874 l 656 1031 q 637 1088 656 1063 q 568 1114 618 1114 l 121 1114 q 69 1044 68 1114 q 121 974 69 974 l 478 974 q 489 969 488 974 q 490 960 490 965 l 490 868 q 359 593 490 718 q 72 413 228 468 q 47 326 17 393 q 153 290 78 260 q 561 586 468 417 q 636 756 613 681 q 679 733 650 733 l 804 733 l 804 524 q 887 457 804 457 q 969 524 969 457 m 1222 524 l 1222 1078 q 1140 1144 1222 1144 q 1057 1078 1057 1144 l 1057 524 q 1140 457 1057 457 q 1222 524 1222 457 m 1156 271 l 1156 86 q 1154 76 1156 81 q 1143 72 1153 72 l 674 72 q 663 76 664 72 q 661 86 661 81 l 661 271 q 663 281 661 276 q 674 285 664 285 l 1143 285 q 1154 281 1153 285 q 1156 271 1156 276 "},"겝":{"ha":1389,"x_min":17,"x_max":1321,"o":"m 969 549 l 969 1078 q 887 1144 969 1144 q 804 1078 804 1144 l 804 881 l 679 881 q 656 875 665 881 l 656 1031 q 637 1088 656 1063 q 568 1114 618 1114 l 121 1114 q 69 1044 68 1114 q 121 974 69 974 l 478 974 q 489 969 488 974 q 490 960 490 965 l 490 868 q 359 593 490 718 q 72 413 228 468 q 47 327 17 393 q 153 290 78 261 q 558 578 461 410 q 639 758 615 676 q 679 740 651 740 l 804 740 l 804 549 q 887 482 804 482 q 969 549 969 482 m 1321 -1 l 1321 400 q 1238 467 1321 467 q 1156 400 1156 467 l 1156 319 l 735 319 q 683 249 682 319 q 735 179 683 179 l 1156 179 l 1156 69 q 1154 60 1156 64 q 1143 56 1153 56 l 674 56 q 663 60 664 56 q 661 69 661 64 l 661 400 q 578 467 661 467 q 496 400 496 467 l 496 -1 q 515 -59 496 -33 q 583 -85 533 -85 l 1233 -85 q 1301 -59 1283 -85 q 1321 -1 1319 -33 m 1222 549 l 1222 1078 q 1140 1144 1222 1144 q 1057 1078 1057 1144 l 1057 549 q 1140 482 1057 482 q 1222 549 1222 482 "},"겟":{"ha":1389,"x_min":17,"x_max":1382,"o":"m 656 861 l 656 867 l 656 1031 q 637 1088 656 1063 q 568 1114 618 1114 l 121 1114 q 69 1044 68 1114 q 121 974 69 974 l 478 974 q 489 969 488 974 q 490 960 490 965 l 490 868 q 359 593 490 718 q 72 413 228 468 q 47 326 17 393 q 153 290 78 260 q 561 588 468 417 q 635 751 611 678 q 679 726 649 726 l 804 726 l 804 517 q 887 450 804 450 q 969 517 969 450 l 969 1078 q 887 1144 969 1144 q 804 1078 804 1144 l 804 867 l 679 867 q 656 861 665 867 m 526 -64 l 865 271 l 1203 -64 q 1319 -63 1256 -114 q 1329 39 1382 -12 l 939 415 q 903 436 924 431 q 864 442 883 442 q 825 436 844 442 q 790 415 806 431 l 400 39 q 410 -62 346 -11 q 526 -64 475 -114 m 1222 461 l 1222 1078 q 1140 1144 1222 1144 q 1057 1078 1057 1144 l 1057 461 q 1140 394 1057 394 q 1222 461 1222 394 "},"겠":{"ha":1389,"x_min":17,"x_max":1397,"o":"m 969 551 l 969 1078 q 887 1144 969 1144 q 804 1078 804 1144 l 804 881 l 679 881 q 656 875 665 881 l 656 1031 q 637 1088 656 1063 q 568 1114 618 1114 l 121 1114 q 69 1044 68 1114 q 121 974 69 974 l 478 974 q 489 969 488 974 q 490 960 490 965 l 490 868 q 359 593 490 718 q 72 413 228 468 q 47 328 17 393 q 153 290 76 263 q 558 581 461 401 q 638 761 613 683 q 679 740 650 740 l 804 740 l 804 551 q 887 485 804 485 q 969 551 969 485 m 824 -85 q 861 -79 843 -86 q 889 -54 879 -72 l 1056 246 l 1221 -54 q 1324 -76 1250 -106 q 1357 25 1397 -47 l 1133 429 q 1100 464 1119 454 q 1054 474 1081 474 q 1010 464 1029 474 q 976 429 990 454 l 821 149 l 665 429 q 632 464 651 454 q 586 474 613 474 q 542 464 561 474 q 508 429 522 454 l 285 25 q 318 -76 244 -47 q 421 -54 392 -106 l 588 246 l 753 -54 q 783 -79 764 -72 q 824 -85 801 -86 m 1222 551 l 1222 1078 q 1140 1144 1222 1144 q 1057 1078 1057 1144 l 1057 551 q 1140 485 1057 485 q 1222 551 1222 485 "},"겡":{"ha":1389,"x_min":17,"x_max":1289,"o":"m 969 536 l 969 1078 q 887 1144 969 1144 q 804 1078 804 1144 l 804 881 l 679 881 q 656 875 665 881 l 656 1031 q 637 1088 656 1063 q 568 1114 618 1114 l 121 1114 q 69 1044 68 1114 q 121 974 69 974 l 478 974 q 489 969 488 974 q 490 960 490 965 l 490 868 q 359 593 490 718 q 72 413 228 468 q 47 327 17 393 q 153 290 76 261 q 558 585 461 408 q 638 761 613 685 q 679 740 650 740 l 804 740 l 804 536 q 887 469 804 469 q 969 536 969 469 m 1289 157 q 1193 362 1289 276 q 960 447 1097 447 q 724 363 821 447 q 628 157 628 278 q 724 -49 628 36 q 960 -133 821 -133 q 1193 -48 1097 -133 q 1289 157 1289 38 m 1222 515 l 1222 1078 q 1140 1144 1222 1144 q 1057 1078 1057 1144 l 1057 515 q 1140 449 1057 449 q 1222 515 1222 449 m 1124 157 q 1076 51 1124 94 q 960 8 1028 8 q 844 51 892 8 q 796 157 796 94 q 844 263 796 219 q 960 306 892 306 q 1076 263 1028 306 q 1124 157 1124 219 "},"겨":{"ha":1389,"x_min":17,"x_max":1156,"o":"m 957 815 q 926 891 957 860 q 850 922 894 922 q 774 891 806 922 q 743 815 743 860 q 774 740 743 771 q 850 708 806 708 q 926 740 894 708 q 957 815 957 771 m 1156 31 l 1156 1078 q 1073 1144 1156 1144 q 990 1078 990 1144 l 990 31 q 1073 -36 990 -36 q 1156 31 1156 -36 m 957 440 q 926 516 957 485 q 850 547 894 547 q 774 516 806 547 q 743 440 743 485 q 774 365 743 396 q 850 333 806 333 q 926 365 894 333 q 957 440 957 396 m 153 101 q 578 415 447 215 q 710 761 710 615 l 710 1031 q 691 1088 710 1063 q 622 1114 672 1114 l 121 1114 q 69 1044 68 1114 q 121 974 69 974 l 532 974 q 543 969 542 974 q 544 960 544 965 l 544 790 q 385 441 544 593 q 72 224 225 289 q 46 135 17 200 q 153 101 75 71 "},"격":{"ha":1321,"x_min":17,"x_max":1254,"o":"m 1254 -19 l 1254 342 q 1235 399 1254 374 q 1167 425 1217 425 l 465 425 q 413 355 413 425 q 465 285 414 285 l 1076 285 q 1088 281 1086 285 q 1089 271 1089 276 l 1089 -19 q 1172 -86 1089 -86 q 1254 -19 1254 -86 m 707 853 l 707 1031 q 688 1088 707 1063 q 619 1114 669 1114 l 121 1114 q 69 1044 68 1114 q 121 974 69 974 l 529 974 q 540 969 539 974 q 542 960 542 965 l 542 868 q 385 595 542 722 q 72 413 228 468 q 45 328 17 393 q 153 290 74 264 q 581 564 456 396 q 707 853 707 732 m 954 919 q 923 995 954 964 q 847 1026 892 1026 q 772 995 803 1026 q 740 919 740 964 q 772 844 740 875 q 847 813 803 813 q 923 844 892 813 q 954 919 954 875 m 1156 522 l 1156 1078 q 1073 1144 1156 1144 q 990 1078 990 1144 l 990 522 q 1073 456 990 456 q 1156 522 1156 456 m 954 635 q 923 710 954 679 q 847 742 892 742 q 772 710 803 742 q 740 635 740 679 q 772 559 740 590 q 847 528 803 528 q 923 559 892 528 q 954 635 954 590 "},"겪":{"ha":1389,"x_min":17,"x_max":1256,"o":"m 707 853 l 707 1031 q 688 1088 707 1063 q 619 1114 669 1114 l 121 1114 q 69 1044 68 1114 q 121 974 69 974 l 529 974 q 540 969 539 974 q 542 960 542 965 l 542 868 q 385 595 542 722 q 72 413 228 468 q 45 328 17 393 q 153 290 74 264 q 264 333 211 311 q 311 299 275 299 l 564 299 q 575 294 574 299 q 576 285 576 290 l 576 -19 q 659 -86 576 -86 q 742 -19 742 -86 l 742 356 q 723 413 742 388 q 654 439 704 439 l 451 439 q 581 564 531 496 q 707 853 707 732 m 1256 -19 l 1256 356 q 1237 413 1256 388 q 1168 439 1218 439 l 825 439 q 773 369 772 439 q 825 299 774 299 l 1078 299 q 1089 294 1088 299 q 1090 285 1090 290 l 1090 -19 q 1173 -86 1090 -86 q 1256 -19 1256 -86 m 1156 522 l 1156 1078 q 1073 1144 1156 1144 q 990 1078 990 1144 l 990 522 q 1073 456 990 456 q 1156 522 1156 456 m 954 919 q 923 995 954 964 q 847 1026 892 1026 q 772 995 803 1026 q 740 919 740 964 q 772 844 740 875 q 847 813 803 813 q 923 844 892 813 q 954 919 954 875 m 954 649 q 923 724 954 693 q 847 756 892 756 q 772 724 803 756 q 740 649 740 693 q 772 573 740 604 q 847 542 803 542 q 923 573 892 542 q 954 649 954 604 "},"견":{"ha":1321,"x_min":17,"x_max":1272,"o":"m 518 -68 l 1219 -68 q 1272 2 1272 -68 q 1219 72 1271 72 l 608 72 q 597 76 599 72 q 596 86 596 81 l 596 358 q 513 425 596 425 q 431 358 431 425 l 431 15 q 449 -42 431 -17 q 518 -68 468 -68 m 707 853 l 707 1031 q 688 1088 707 1063 q 619 1114 669 1114 l 121 1114 q 69 1044 68 1114 q 121 974 69 974 l 529 974 q 540 969 539 974 q 542 960 542 965 l 542 868 q 385 595 542 722 q 72 413 228 468 q 45 328 17 393 q 153 290 74 264 q 583 563 458 393 q 707 853 707 732 m 1156 358 l 1156 1078 q 1073 1144 1156 1144 q 990 1078 990 1144 l 990 358 q 1073 292 990 292 q 1156 358 1156 292 m 954 878 q 923 953 954 922 q 847 985 892 985 q 772 953 803 985 q 740 878 740 922 q 772 802 740 833 q 847 771 803 771 q 923 802 892 771 q 954 878 954 833 m 954 565 q 923 641 954 610 q 847 672 892 672 q 772 641 803 672 q 740 565 740 610 q 772 490 740 521 q 847 458 803 458 q 923 490 892 458 q 954 565 954 521 "},"겯":{"ha":1321,"x_min":17,"x_max":1292,"o":"m 518 -85 l 1236 -85 q 1290 -15 1292 -85 q 1236 56 1289 56 l 608 56 q 597 60 599 56 q 596 69 596 64 l 596 271 q 597 281 596 276 q 608 285 599 285 l 1204 285 q 1258 355 1260 285 q 1204 425 1257 425 l 518 425 q 449 399 468 425 q 431 342 431 374 l 431 -1 q 449 -59 431 -33 q 518 -85 468 -85 m 710 853 l 710 1031 q 691 1088 710 1063 q 622 1114 672 1114 l 121 1114 q 69 1044 68 1114 q 121 974 69 974 l 532 974 q 543 969 542 974 q 544 960 544 965 l 544 868 q 386 595 544 722 q 72 413 228 468 q 45 328 17 393 q 153 290 74 264 q 584 563 458 393 q 710 853 710 732 m 1156 521 l 1156 1078 q 1073 1144 1156 1144 q 990 1078 990 1144 l 990 521 q 1073 454 990 454 q 1156 521 1156 454 m 954 635 q 923 710 954 679 q 847 742 892 742 q 772 710 803 742 q 740 635 740 679 q 772 559 740 590 q 847 528 803 528 q 923 559 892 528 q 954 635 954 590 m 954 906 q 923 981 954 950 q 847 1013 892 1013 q 772 981 803 1013 q 740 906 740 950 q 772 830 740 861 q 847 799 803 799 q 923 830 892 799 q 954 906 954 861 "},"결":{"ha":1321,"x_min":17,"x_max":1292,"o":"m 710 853 l 710 1031 q 691 1088 710 1063 q 622 1114 672 1114 l 121 1114 q 69 1044 68 1114 q 121 974 69 974 l 532 974 q 543 969 542 974 q 544 960 544 965 l 544 868 q 386 595 544 722 q 72 413 228 468 q 45 328 17 393 q 153 290 74 263 q 422 419 311 346 q 475 350 424 350 l 1078 350 q 1089 346 1088 350 q 1090 336 1090 342 l 1090 279 q 1089 269 1090 274 q 1078 265 1088 265 l 518 265 q 449 240 468 265 q 431 182 431 214 l 431 -17 q 449 -74 431 -49 q 518 -100 468 -100 l 1239 -100 q 1291 -30 1290 -100 q 1239 40 1292 40 l 608 40 q 597 44 599 40 q 596 54 596 49 l 596 111 q 597 121 596 117 q 608 125 599 125 l 1168 125 q 1237 151 1218 125 q 1256 208 1256 176 l 1256 407 q 1237 465 1256 439 q 1168 490 1218 490 l 511 490 q 578 563 549 525 q 710 853 710 732 m 1156 581 l 1156 1079 q 1073 1146 1156 1146 q 990 1079 990 1146 l 990 581 q 1073 514 990 514 q 1156 581 1156 514 m 958 947 q 927 1023 958 992 q 851 1054 896 1054 q 776 1023 807 1054 q 744 947 744 992 q 776 872 744 903 q 851 840 807 840 q 927 872 896 840 q 958 947 958 903 m 958 683 q 927 759 958 728 q 851 790 896 790 q 776 759 807 790 q 744 683 744 728 q 776 608 744 639 q 851 576 807 576 q 927 608 896 576 q 958 683 958 639 "},"겸":{"ha":1321,"x_min":17,"x_max":1256,"o":"m 1256 1 l 1256 342 q 1237 399 1256 374 q 1168 425 1218 425 l 518 425 q 449 399 468 425 q 431 342 431 374 l 431 1 q 449 -56 431 -31 q 518 -82 468 -82 l 1168 -82 q 1237 -56 1218 -82 q 1256 1 1256 -31 m 1090 271 l 1090 72 q 1089 63 1090 67 q 1078 58 1088 58 l 608 58 q 597 63 599 58 q 596 72 596 67 l 596 271 q 597 281 596 276 q 608 285 599 285 l 1078 285 q 1089 281 1088 285 q 1090 271 1090 276 m 710 853 l 710 1031 q 691 1088 710 1063 q 622 1114 672 1114 l 121 1114 q 69 1044 68 1114 q 121 974 69 974 l 532 974 q 543 969 542 974 q 544 960 544 965 l 544 868 q 386 595 544 722 q 72 413 228 468 q 45 328 17 393 q 153 290 74 264 q 578 562 447 392 q 710 853 710 732 m 1156 521 l 1156 1078 q 1073 1144 1156 1144 q 990 1078 990 1144 l 990 521 q 1073 454 990 454 q 1156 521 1156 454 m 954 906 q 923 981 954 950 q 847 1013 892 1013 q 772 981 803 1013 q 740 906 740 950 q 772 830 740 861 q 847 799 803 799 q 923 830 892 799 q 954 906 954 861 m 954 635 q 923 710 954 679 q 847 742 892 742 q 772 710 803 742 q 740 635 740 679 q 772 559 740 590 q 847 528 803 528 q 923 559 892 528 q 954 635 954 590 "},"겹":{"ha":1321,"x_min":17,"x_max":1256,"o":"m 1256 -1 l 1256 400 q 1173 467 1256 467 q 1090 400 1090 467 l 1090 319 l 668 319 q 616 249 615 319 q 668 179 617 179 l 1090 179 l 1090 69 q 1089 60 1090 64 q 1078 56 1088 56 l 608 56 q 597 60 599 56 q 596 69 596 64 l 596 400 q 513 467 596 467 q 488 464 499 467 q 583 565 544 511 q 710 853 710 739 l 710 1031 q 691 1088 710 1063 q 622 1114 672 1114 l 121 1114 q 69 1044 68 1114 q 121 974 69 974 l 532 974 q 543 969 542 974 q 544 960 544 965 l 544 868 q 386 595 544 722 q 72 413 228 468 q 45 328 17 393 q 153 290 74 264 q 433 424 321 346 q 431 400 431 413 l 431 -1 q 449 -59 431 -33 q 518 -85 468 -85 l 1168 -85 q 1236 -59 1218 -85 q 1256 -1 1254 -33 m 1156 542 l 1156 1079 q 1073 1146 1156 1146 q 990 1079 990 1146 l 990 542 q 1073 475 990 475 q 1156 542 1156 475 m 954 947 q 923 1023 954 992 q 847 1054 892 1054 q 772 1023 803 1054 q 740 947 740 992 q 772 872 740 903 q 847 840 803 840 q 923 872 892 840 q 954 947 954 903 m 954 676 q 923 752 954 721 q 847 783 892 783 q 772 752 803 783 q 740 676 740 721 q 772 601 740 632 q 847 569 803 569 q 923 601 892 569 q 954 676 954 632 "},"겻":{"ha":1321,"x_min":17,"x_max":1343,"o":"m 710 853 l 710 1031 q 691 1088 710 1063 q 622 1114 672 1114 l 121 1114 q 69 1044 68 1114 q 121 974 69 974 l 532 974 q 543 969 542 974 q 544 960 544 965 l 544 868 q 386 595 544 722 q 72 413 228 468 q 45 328 17 393 q 153 290 74 264 q 584 569 458 393 q 710 853 710 744 m 488 -64 l 826 271 l 1164 -64 q 1280 -63 1217 -114 q 1290 39 1343 -12 l 900 415 q 865 436 885 431 q 825 442 844 442 q 786 436 806 442 q 751 415 767 431 l 361 39 q 372 -62 307 -11 q 488 -64 436 -114 m 1156 442 l 1156 1078 q 1073 1144 1156 1144 q 990 1078 990 1144 l 990 442 q 1073 375 990 375 q 1156 442 1156 375 m 954 919 q 923 995 954 964 q 847 1026 892 1026 q 772 995 803 1026 q 740 919 740 964 q 772 844 740 875 q 847 813 803 813 q 923 844 892 813 q 954 919 954 875 m 954 635 q 923 710 954 679 q 847 742 892 742 q 772 710 803 742 q 740 635 740 679 q 772 559 740 590 q 847 528 803 528 q 923 559 892 528 q 954 635 954 590 "},"겼":{"ha":1321,"x_min":17,"x_max":1339,"o":"m 710 894 l 710 1031 q 691 1088 710 1063 q 622 1114 672 1114 l 121 1114 q 69 1044 68 1114 q 121 974 69 974 l 532 974 q 543 969 542 974 q 544 960 544 965 l 544 910 q 386 658 544 764 q 72 496 228 551 q 45 412 17 476 q 153 374 74 347 q 584 628 458 476 q 710 894 710 781 m 1156 544 l 1156 1079 q 1073 1146 1156 1146 q 990 1079 990 1146 l 990 544 q 1073 478 990 478 q 1156 544 1156 478 m 765 -86 q 803 -81 785 -87 q 831 -56 821 -74 l 997 244 l 1163 -56 q 1265 -78 1192 -107 q 1299 24 1339 -49 l 1075 428 q 1042 463 1061 453 q 996 472 1022 472 q 951 463 971 472 q 918 428 932 453 l 763 147 l 607 428 q 574 463 593 453 q 528 472 554 472 q 483 463 503 472 q 450 428 464 453 l 226 24 q 260 -78 186 -49 q 363 -56 333 -107 l 529 244 l 694 -56 q 724 -81 706 -74 q 765 -86 743 -87 m 954 933 q 923 1009 954 978 q 847 1040 892 1040 q 772 1009 803 1040 q 740 933 740 978 q 772 858 740 889 q 847 826 803 826 q 923 858 892 826 q 954 933 954 889 m 954 663 q 923 738 954 707 q 847 769 892 769 q 772 738 803 769 q 740 663 740 707 q 772 587 740 618 q 847 556 803 556 q 923 587 892 556 q 954 663 954 618 "},"경":{"ha":1321,"x_min":17,"x_max":1222,"o":"m 710 853 l 710 1031 q 691 1088 710 1063 q 622 1114 672 1114 l 121 1114 q 69 1044 68 1114 q 121 974 69 974 l 532 974 q 543 969 542 974 q 544 960 544 965 l 544 868 q 386 595 544 722 q 72 413 228 468 q 45 328 17 393 q 153 290 74 264 q 584 568 458 393 q 710 853 710 743 m 1222 157 q 1126 362 1222 276 q 893 447 1031 447 q 658 363 754 447 q 561 157 561 278 q 658 -49 561 36 q 893 -133 754 -133 q 1126 -48 1031 -133 q 1222 157 1222 38 m 1057 157 q 1009 51 1057 94 q 893 8 961 8 q 777 51 825 8 q 729 157 729 94 q 777 263 729 219 q 893 306 825 306 q 1009 263 961 306 q 1057 157 1057 219 m 1156 519 l 1156 1078 q 1073 1144 1156 1144 q 990 1078 990 1144 l 990 519 q 1073 453 990 453 q 1156 519 1156 453 m 954 919 q 923 995 954 964 q 847 1026 892 1026 q 772 995 803 1026 q 740 919 740 964 q 772 844 740 875 q 847 813 803 813 q 923 844 892 813 q 954 919 954 875 m 954 635 q 923 710 954 679 q 847 742 892 742 q 772 710 803 742 q 740 635 740 679 q 772 559 740 590 q 847 528 803 528 q 923 559 892 528 q 954 635 954 590 "},"곁":{"ha":1321,"x_min":17,"x_max":1293,"o":"m 710 853 l 710 1031 q 691 1088 710 1063 q 622 1114 672 1114 l 121 1114 q 69 1044 68 1114 q 121 974 69 974 l 532 974 q 543 969 542 974 q 544 960 544 965 l 544 868 q 386 595 544 722 q 72 413 228 468 q 45 328 17 393 q 153 290 74 264 q 435 425 321 347 q 431 397 431 411 l 431 15 q 449 -42 431 -17 q 518 -68 468 -68 l 1238 -68 q 1292 2 1293 -68 q 1238 72 1290 72 l 608 72 q 597 76 599 72 q 596 86 596 81 l 596 142 l 1203 142 q 1255 212 1254 142 q 1203 282 1256 282 l 596 282 l 596 326 q 597 336 596 332 q 608 340 599 340 l 1206 340 q 1260 410 1261 340 q 1206 481 1258 481 l 518 481 q 504 479 511 481 q 583 568 550 521 q 710 853 710 743 m 1156 581 l 1156 1079 q 1073 1146 1156 1146 q 990 1079 990 1146 l 990 581 q 1073 514 990 514 q 1156 581 1156 514 m 958 947 q 927 1023 958 992 q 851 1054 896 1054 q 776 1023 807 1054 q 744 947 744 992 q 776 872 744 903 q 851 840 807 840 q 927 872 896 840 q 958 947 958 903 m 958 683 q 927 759 958 728 q 851 790 896 790 q 776 759 807 790 q 744 683 744 728 q 776 608 744 639 q 851 576 807 576 q 927 608 896 576 q 958 683 958 639 "},"계":{"ha":1354,"x_min":17,"x_max":1222,"o":"m 153 101 q 549 433 442 221 q 657 758 656 643 q 679 754 667 754 l 804 754 l 804 506 l 651 506 q 599 435 599 506 q 651 365 600 365 l 804 365 l 804 31 q 887 -36 804 -36 q 969 31 969 -36 l 969 1078 q 887 1144 969 1144 q 804 1078 804 1144 l 804 894 l 679 894 q 657 890 667 894 l 657 1031 q 638 1088 657 1063 q 569 1114 619 1114 l 121 1114 q 69 1044 68 1114 q 121 974 69 974 l 479 974 q 490 969 489 974 q 492 960 492 965 l 492 790 q 358 442 492 594 q 72 224 225 289 q 47 135 17 200 q 153 101 76 69 m 1222 31 l 1222 1078 q 1140 1144 1222 1144 q 1057 1078 1057 1144 l 1057 31 q 1140 -36 1057 -36 q 1222 31 1222 -36 "},"곈":{"ha":1389,"x_min":17,"x_max":1325,"o":"m 969 360 l 969 1078 q 887 1144 969 1144 q 804 1078 804 1144 l 804 950 l 686 950 q 656 942 667 950 l 656 1031 q 637 1088 656 1063 q 568 1114 618 1114 l 121 1114 q 69 1044 68 1114 q 121 974 69 974 l 478 974 q 489 969 488 974 q 490 960 490 965 l 490 868 q 359 593 490 718 q 72 413 228 468 q 47 328 17 393 q 153 290 76 263 q 558 578 461 401 q 651 821 638 721 q 686 810 664 810 l 804 810 l 804 658 l 672 658 q 620 588 619 658 q 672 518 621 518 l 804 518 l 804 360 q 887 293 804 293 q 969 360 969 293 m 585 -68 l 1272 -68 q 1324 2 1325 -68 q 1272 72 1324 72 l 675 72 q 664 76 665 72 q 663 86 663 81 l 663 358 q 580 425 663 425 q 497 358 497 425 l 497 15 q 516 -42 497 -17 q 585 -68 535 -68 m 1222 360 l 1222 1078 q 1140 1144 1222 1144 q 1057 1078 1057 1144 l 1057 360 q 1140 293 1057 293 q 1222 360 1222 293 "},"곌":{"ha":1389,"x_min":17,"x_max":1357,"o":"m 1321 208 l 1321 407 q 1302 465 1321 439 q 1233 490 1283 490 l 540 490 q 488 420 488 490 q 540 350 489 350 l 1143 350 q 1154 346 1153 350 q 1156 336 1156 342 l 1156 279 q 1154 269 1156 274 q 1143 265 1153 265 l 583 265 q 515 240 533 265 q 496 182 496 214 l 496 -17 q 515 -74 496 -49 q 583 -100 533 -100 l 1304 -100 q 1356 -30 1356 -100 q 1304 40 1357 40 l 674 40 q 663 44 664 40 q 661 54 661 49 l 661 111 q 663 121 661 117 q 674 125 664 125 l 1233 125 q 1302 151 1283 125 q 1321 208 1321 176 m 656 867 l 656 888 q 693 872 668 872 l 804 872 l 804 769 l 693 769 q 641 699 640 769 q 693 629 642 629 l 804 629 l 804 588 q 887 521 804 521 q 969 588 969 521 l 969 1078 q 887 1144 969 1144 q 804 1078 804 1144 l 804 1013 l 693 1013 q 656 997 668 1013 l 656 1031 q 637 1088 656 1063 q 568 1114 618 1114 l 121 1114 q 69 1044 68 1114 q 121 974 69 974 l 478 974 q 489 969 488 974 q 490 960 490 965 l 490 868 q 359 593 490 718 q 72 413 228 468 q 47 328 17 393 q 153 290 76 263 q 558 580 461 401 q 656 867 656 758 m 1222 588 l 1222 1078 q 1140 1144 1222 1144 q 1057 1078 1057 1144 l 1057 588 q 1140 521 1057 521 q 1222 588 1222 521 "},"곕":{"ha":1389,"x_min":17,"x_max":1321,"o":"m 656 867 l 656 874 q 693 858 668 858 l 804 858 l 804 756 l 693 756 q 641 685 640 756 q 693 615 642 615 l 804 615 l 804 549 q 887 482 804 482 q 969 549 969 482 l 969 1078 q 887 1144 969 1144 q 804 1078 804 1144 l 804 999 l 693 999 q 656 983 668 999 l 656 1031 q 637 1088 656 1063 q 568 1114 618 1114 l 121 1114 q 69 1044 68 1114 q 121 974 69 974 l 478 974 q 489 969 488 974 q 490 960 490 965 l 490 868 q 359 593 490 718 q 72 413 228 468 q 47 327 17 393 q 153 290 78 261 q 558 578 461 410 q 656 867 656 746 m 1321 -1 l 1321 400 q 1238 467 1321 467 q 1156 400 1156 467 l 1156 319 l 735 319 q 683 249 682 319 q 735 179 683 179 l 1156 179 l 1156 69 q 1154 60 1156 64 q 1143 56 1153 56 l 674 56 q 663 60 664 56 q 661 69 661 64 l 661 400 q 578 467 661 467 q 496 400 496 467 l 496 -1 q 515 -59 496 -33 q 583 -85 533 -85 l 1233 -85 q 1301 -59 1283 -85 q 1321 -1 1319 -33 m 1222 549 l 1222 1078 q 1140 1144 1222 1144 q 1057 1078 1057 1144 l 1057 549 q 1140 482 1057 482 q 1222 549 1222 482 "},"곗":{"ha":1389,"x_min":17,"x_max":1382,"o":"m 969 517 l 969 1078 q 887 1144 969 1144 q 804 1078 804 1144 l 804 985 l 693 985 q 656 969 668 985 l 656 1031 q 637 1088 656 1063 q 568 1114 618 1114 l 121 1114 q 69 1044 68 1114 q 121 974 69 974 l 478 974 q 489 969 488 974 q 490 960 490 965 l 490 868 q 359 593 490 718 q 72 413 228 468 q 47 326 17 393 q 153 290 78 260 q 561 588 468 417 q 656 860 653 753 q 693 844 668 844 l 804 844 l 804 736 l 693 736 q 641 666 640 736 q 693 596 642 596 l 804 596 l 804 517 q 887 450 804 450 q 969 517 969 450 m 526 -61 l 865 274 l 1203 -61 q 1319 -60 1256 -111 q 1329 42 1382 -10 l 939 418 q 903 439 924 433 q 864 444 883 444 q 825 439 844 444 q 790 418 806 433 l 400 42 q 410 -60 346 -8 q 526 -61 475 -111 m 1222 461 l 1222 1078 q 1140 1144 1222 1144 q 1057 1078 1057 1144 l 1057 461 q 1140 394 1057 394 q 1222 461 1222 394 "},"고":{"ha":1090,"x_min":21,"x_max":978,"o":"m 597 181 l 597 658 q 515 725 597 725 q 432 658 432 725 l 432 251 q 431 242 432 246 q 419 238 429 238 l 74 238 q 22 167 22 238 q 74 97 21 97 l 510 97 q 578 123 560 97 q 597 181 597 149 m 978 243 l 978 1031 q 959 1088 978 1063 q 890 1114 940 1114 l 178 1114 q 126 1044 125 1114 q 178 974 126 974 l 800 974 q 811 969 810 974 q 813 960 813 965 l 813 243 q 895 176 813 176 q 978 243 978 176 "},"곡":{"ha":1189,"x_min":21,"x_max":1092,"o":"m 611 586 l 611 819 q 528 886 611 886 q 446 819 446 886 l 446 657 q 444 647 446 651 q 433 643 443 643 l 74 643 q 22 573 22 643 q 74 503 21 503 l 524 503 q 592 528 574 503 q 611 586 611 554 m 992 590 l 992 1031 q 973 1088 992 1063 q 904 1114 954 1114 l 178 1114 q 126 1044 125 1114 q 178 974 126 974 l 814 974 q 825 969 824 974 q 826 960 826 965 l 826 590 q 909 524 826 524 q 992 590 992 524 m 1092 -17 l 1092 328 q 1073 385 1092 360 q 1004 411 1054 411 l 313 411 q 260 341 260 411 q 313 271 261 271 l 914 271 q 925 267 924 271 q 926 257 926 263 l 926 -17 q 1009 -83 926 -83 q 1092 -17 1092 -83 "},"곤":{"ha":1189,"x_min":21,"x_max":1094,"o":"m 611 544 l 611 833 q 528 900 611 900 q 446 833 446 900 l 446 615 q 444 606 446 610 q 433 601 443 601 l 74 601 q 22 531 22 601 q 74 461 21 461 l 524 461 q 592 487 574 461 q 611 544 611 513 m 992 576 l 992 1031 q 973 1088 992 1063 q 904 1114 954 1114 l 178 1114 q 126 1044 125 1114 q 178 974 126 974 l 814 974 q 825 969 824 974 q 826 960 826 965 l 826 576 q 909 510 826 510 q 992 576 992 510 m 353 -68 l 1039 -68 q 1093 2 1092 -68 q 1040 72 1094 72 l 443 72 q 432 76 433 72 q 431 86 431 81 l 431 331 q 348 397 431 397 q 265 331 265 397 l 265 15 q 284 -42 265 -17 q 353 -68 303 -68 "},"곧":{"ha":1189,"x_min":21,"x_max":1128,"o":"m 611 589 l 611 833 q 528 900 611 900 q 446 833 446 900 l 446 660 q 444 650 446 654 q 433 646 443 646 l 74 646 q 22 576 22 646 q 74 506 21 506 l 524 506 q 592 531 574 506 q 611 589 611 557 m 992 593 l 992 1031 q 973 1088 992 1063 q 904 1114 954 1114 l 178 1114 q 126 1044 125 1114 q 178 974 126 974 l 814 974 q 825 969 824 974 q 826 960 826 965 l 826 593 q 909 526 826 526 q 992 593 992 526 m 353 -82 l 1072 -82 q 1126 -12 1128 -82 q 1072 58 1125 58 l 443 58 q 432 63 433 58 q 431 72 431 67 l 431 243 q 432 253 431 249 q 443 257 433 257 l 1040 257 q 1094 327 1096 257 q 1040 397 1093 397 l 353 397 q 284 372 303 397 q 265 314 265 346 l 265 1 q 284 -56 265 -31 q 353 -82 303 -82 "},"골":{"ha":1189,"x_min":21,"x_max":1126,"o":"m 611 617 l 611 847 q 528 914 611 914 q 446 847 446 914 l 446 688 q 444 678 446 682 q 433 674 443 674 l 74 674 q 22 603 22 674 q 74 533 21 533 l 524 533 q 592 559 574 533 q 611 617 611 585 m 992 621 l 992 1031 q 973 1088 992 1063 q 904 1114 954 1114 l 178 1114 q 126 1044 125 1114 q 178 974 126 974 l 814 974 q 825 969 824 974 q 826 960 826 965 l 826 621 q 909 554 826 554 q 992 621 992 554 m 1090 194 l 1090 379 q 1072 437 1090 411 q 1003 463 1053 463 l 317 463 q 265 392 264 463 q 317 322 265 322 l 913 322 q 924 318 922 322 q 925 308 925 314 l 925 265 q 924 256 925 260 q 913 251 922 251 l 353 251 q 284 226 303 251 q 265 168 265 200 l 265 -17 q 284 -74 265 -49 q 353 -100 303 -100 l 1074 -100 q 1126 -30 1125 -100 q 1074 40 1126 40 l 443 40 q 432 44 433 40 q 431 54 431 49 l 431 97 q 432 107 431 103 q 443 111 433 111 l 1003 111 q 1072 137 1053 111 q 1090 194 1090 163 "},"곪":{"ha":1189,"x_min":21,"x_max":1124,"o":"m 611 624 l 611 854 q 528 921 611 921 q 446 854 446 921 l 446 694 q 444 685 446 689 q 433 681 443 681 l 74 681 q 22 610 22 681 q 74 540 21 540 l 524 540 q 592 566 574 540 q 611 624 611 592 m 992 621 l 992 1031 q 973 1088 992 1063 q 904 1114 954 1114 l 178 1114 q 126 1044 125 1114 q 178 974 126 974 l 814 974 q 825 969 824 974 q 826 960 826 965 l 826 621 q 909 554 826 554 q 992 621 992 554 m 610 188 l 610 379 q 591 437 610 411 q 522 463 572 463 l 185 463 q 133 392 132 463 q 185 322 133 322 l 432 322 q 443 318 442 322 q 444 308 444 314 l 444 258 q 443 249 444 253 q 432 244 442 244 l 228 244 q 159 219 178 244 q 140 161 140 193 l 140 -31 q 159 -88 140 -62 q 228 -114 178 -114 l 593 -114 q 645 -44 644 -114 q 593 26 646 26 l 318 26 q 307 31 308 26 q 306 40 306 35 l 306 90 q 307 100 306 96 q 318 104 308 104 l 522 104 q 591 130 572 104 q 610 188 610 156 m 1124 -31 l 1124 379 q 1105 437 1124 411 q 1036 463 1086 463 l 753 463 q 684 437 703 463 q 665 379 665 411 l 665 -31 q 684 -88 665 -62 q 753 -114 703 -114 l 1036 -114 q 1105 -88 1086 -114 q 1124 -31 1124 -62 m 958 308 l 958 40 q 957 31 958 35 q 946 26 956 26 l 843 26 q 832 31 833 26 q 831 40 831 35 l 831 308 q 832 318 831 314 q 843 322 833 322 l 946 322 q 957 318 956 322 q 958 308 958 314 "},"곬":{"ha":1189,"x_min":21,"x_max":1203,"o":"m 1163 0 l 954 428 q 950 435 953 432 l 946 446 q 874 486 918 494 q 803 446 829 494 l 800 440 q 793 425 796 433 l 599 26 l 593 26 l 318 26 q 307 31 308 26 q 306 40 306 35 l 306 90 q 307 100 306 96 q 318 104 308 104 l 522 104 q 591 130 572 104 q 610 188 610 156 l 610 379 q 591 437 610 411 q 522 463 572 463 l 185 463 q 133 392 132 463 q 185 322 133 322 l 432 322 q 443 318 442 322 q 444 308 444 314 l 444 258 q 443 249 444 253 q 432 244 442 244 l 228 244 q 159 219 178 244 q 140 161 140 193 l 140 -31 q 159 -88 140 -62 q 228 -114 178 -114 l 593 -114 q 625 -103 613 -114 q 722 -79 694 -128 l 874 228 l 1026 -79 q 1129 -101 1056 -131 q 1163 0 1203 -72 m 992 621 l 992 1031 q 973 1088 992 1063 q 904 1114 954 1114 l 178 1114 q 126 1044 125 1114 q 178 974 126 974 l 814 974 q 825 969 824 974 q 826 960 826 965 l 826 621 q 909 554 826 554 q 992 621 992 554 m 611 624 l 611 854 q 528 921 611 921 q 446 854 446 921 l 446 694 q 444 685 446 689 q 433 681 443 681 l 74 681 q 22 610 22 681 q 74 540 21 540 l 524 540 q 592 566 574 540 q 611 624 611 592 "},"곯":{"ha":1189,"x_min":21,"x_max":1181,"o":"m 610 188 l 610 264 q 635 258 619 258 l 697 258 q 638 106 638 193 q 710 -60 638 8 q 883 -128 782 -128 q 1055 -59 983 -128 q 1126 106 1126 10 q 1067 258 1126 193 l 1126 258 q 1180 328 1179 258 q 1126 399 1181 399 l 965 399 l 965 469 q 883 536 965 536 q 800 469 800 536 l 800 399 l 635 399 q 608 393 619 399 q 590 436 606 417 q 522 463 572 463 l 185 463 q 133 392 132 463 q 185 322 133 322 l 432 322 q 443 318 442 322 q 444 308 444 314 l 444 258 q 443 249 444 253 q 432 244 442 244 l 228 244 q 159 219 178 244 q 140 161 140 193 l 140 -31 q 159 -88 140 -62 q 228 -114 178 -114 l 593 -114 q 645 -44 644 -114 q 593 26 646 26 l 318 26 q 307 31 308 26 q 306 40 306 35 l 306 90 q 307 100 306 96 q 318 104 308 104 l 522 104 q 591 130 572 104 q 610 188 610 156 m 992 635 l 992 1031 q 973 1088 992 1063 q 904 1114 954 1114 l 178 1114 q 126 1044 125 1114 q 178 974 126 974 l 814 974 q 825 969 824 974 q 826 960 826 965 l 826 635 q 909 568 826 568 q 992 635 992 568 m 611 624 l 611 854 q 528 921 611 921 q 446 854 446 921 l 446 694 q 444 685 446 689 q 433 681 443 681 l 74 681 q 22 610 22 681 q 74 540 21 540 l 524 540 q 592 566 574 540 q 611 624 611 592 m 961 106 q 938 39 961 67 q 883 11 915 11 q 828 39 851 11 q 804 106 804 67 q 828 173 804 146 q 883 200 851 200 q 938 173 915 200 q 961 106 961 146 "},"곰":{"ha":1189,"x_min":21,"x_max":1090,"o":"m 611 589 l 611 833 q 528 900 611 900 q 446 833 446 900 l 446 660 q 444 650 446 654 q 433 646 443 646 l 74 646 q 22 576 22 646 q 74 506 21 506 l 524 506 q 592 531 574 506 q 611 589 611 557 m 992 593 l 992 1031 q 973 1088 992 1063 q 904 1114 954 1114 l 178 1114 q 126 1044 125 1114 q 178 974 126 974 l 814 974 q 825 969 824 974 q 826 960 826 965 l 826 593 q 909 526 826 526 q 992 593 992 526 m 1090 1 l 1090 314 q 1072 372 1090 346 q 1003 397 1053 397 l 353 397 q 284 372 303 397 q 265 314 265 346 l 265 1 q 284 -56 265 -31 q 353 -82 303 -82 l 1003 -82 q 1072 -56 1053 -82 q 1090 1 1090 -31 m 925 243 l 925 72 q 924 63 925 67 q 913 58 922 58 l 443 58 q 432 63 433 58 q 431 72 431 67 l 431 243 q 432 253 431 249 q 443 257 433 257 l 913 257 q 924 253 922 257 q 925 243 925 249 "},"곱":{"ha":1189,"x_min":21,"x_max":1090,"o":"m 1090 -1 l 1090 396 q 1008 463 1090 463 q 925 396 925 463 l 925 317 l 504 317 q 452 247 451 317 q 504 176 453 176 l 925 176 l 925 69 q 924 60 925 64 q 913 56 922 56 l 443 56 q 432 60 433 56 q 431 69 431 64 l 431 396 q 348 463 431 463 q 265 396 265 463 l 265 -1 q 284 -59 265 -33 q 353 -85 303 -85 l 1003 -85 q 1071 -59 1053 -85 q 1090 -1 1089 -33 m 992 607 l 992 1031 q 973 1088 992 1063 q 904 1114 954 1114 l 178 1114 q 126 1044 125 1114 q 178 974 126 974 l 814 974 q 825 969 824 974 q 826 960 826 965 l 826 607 q 909 540 826 540 q 992 607 992 540 m 611 603 l 611 847 q 528 914 611 914 q 446 847 446 914 l 446 674 q 444 664 446 668 q 433 660 443 660 l 74 660 q 22 590 22 660 q 74 519 21 519 l 524 519 q 592 545 574 519 q 611 603 611 571 "},"곳":{"ha":1189,"x_min":21,"x_max":1193,"o":"m 611 575 l 611 833 q 528 900 611 900 q 446 833 446 900 l 446 646 q 444 636 446 640 q 433 632 443 632 l 74 632 q 22 562 22 632 q 74 492 21 492 l 524 492 q 592 517 574 492 q 611 575 611 543 m 992 579 l 992 1031 q 973 1088 992 1063 q 904 1114 954 1114 l 178 1114 q 126 1044 125 1114 q 178 974 126 974 l 814 974 q 825 969 824 974 q 826 960 826 965 l 826 579 q 909 513 826 513 q 992 579 992 513 m 338 -64 l 676 271 l 1014 -64 q 1130 -63 1067 -114 q 1140 39 1193 -12 l 750 415 q 715 436 735 431 q 675 442 694 442 q 636 436 656 442 q 601 415 617 431 l 211 39 q 220 -64 157 -11 q 338 -64 283 -117 "},"공":{"ha":1189,"x_min":21,"x_max":1008,"o":"m 611 575 l 611 833 q 528 900 611 900 q 446 833 446 900 l 446 646 q 444 636 446 640 q 433 632 443 632 l 74 632 q 22 562 22 632 q 74 492 21 492 l 524 492 q 592 517 574 492 q 611 575 611 543 m 992 579 l 992 1031 q 973 1088 992 1063 q 904 1114 954 1114 l 178 1114 q 126 1044 125 1114 q 178 974 126 974 l 814 974 q 825 969 824 974 q 826 960 826 965 l 826 579 q 909 513 826 513 q 992 579 992 513 m 1008 157 q 913 362 1008 276 q 679 447 817 447 q 444 363 540 447 q 347 157 347 278 q 444 -49 347 36 q 679 -133 540 -133 q 913 -48 817 -133 q 1008 157 1008 38 m 843 157 q 795 51 843 94 q 679 8 747 8 q 563 51 611 8 q 515 157 515 94 q 563 263 515 219 q 679 306 611 306 q 795 263 747 306 q 843 157 843 219 "},"곶":{"ha":1189,"x_min":21,"x_max":1190,"o":"m 267 301 l 550 301 l 222 39 q 228 -59 168 -4 q 349 -64 288 -114 l 678 207 l 1011 -64 q 1131 -58 1072 -112 q 1138 39 1190 -3 l 804 301 l 1092 301 q 1145 372 1144 301 q 1092 442 1146 442 l 267 442 q 215 372 214 442 q 267 301 215 301 m 992 607 l 992 1031 q 973 1088 992 1063 q 904 1114 954 1114 l 178 1114 q 126 1044 125 1114 q 178 974 126 974 l 814 974 q 825 969 824 974 q 826 960 826 965 l 826 607 q 909 540 826 540 q 992 607 992 540 m 611 600 l 611 847 q 528 914 611 914 q 446 847 446 914 l 446 671 q 444 661 446 665 q 433 657 443 657 l 74 657 q 22 587 22 657 q 74 517 21 517 l 524 517 q 592 542 574 517 q 611 600 611 568 "},"과":{"ha":1354,"x_min":21,"x_max":1328,"o":"m 1328 649 q 1297 724 1328 693 q 1221 756 1265 756 q 1145 724 1176 756 q 1114 649 1114 693 q 1145 573 1114 604 q 1221 542 1176 542 q 1297 573 1265 542 q 1328 649 1328 604 m 1068 31 l 1068 1078 q 985 1144 1068 1144 q 903 1078 903 1144 l 903 31 q 985 -36 903 -36 q 1068 31 1068 -36 m 793 261 l 793 1031 q 774 1088 793 1063 q 706 1114 756 1114 l 144 1114 q 92 1044 92 1114 q 144 974 93 974 l 615 974 q 626 969 625 974 q 628 960 628 965 l 628 261 q 710 194 628 194 q 793 261 793 194 m 500 215 l 500 706 q 417 772 500 772 q 335 706 335 772 l 335 286 q 333 276 335 281 q 322 272 332 272 l 74 272 q 22 202 22 272 q 74 132 21 132 l 413 132 q 481 158 463 132 q 500 215 500 183 "},"곽":{"ha":1389,"x_min":21,"x_max":1328,"o":"m 1321 -17 l 1321 342 q 1302 399 1321 374 q 1233 425 1283 425 l 532 425 q 480 355 479 425 q 532 285 481 285 l 1143 285 q 1154 281 1153 285 q 1156 271 1156 276 l 1156 -17 q 1238 -83 1156 -83 q 1321 -17 1321 -83 m 1328 818 q 1297 894 1328 863 q 1221 925 1265 925 q 1145 894 1176 925 q 1114 818 1114 863 q 1145 742 1114 774 q 1221 711 1176 711 q 1297 742 1265 711 q 1328 818 1328 774 m 1068 521 l 1068 1078 q 985 1144 1068 1144 q 903 1078 903 1144 l 903 521 q 985 454 903 454 q 1068 521 1068 454 m 793 529 l 793 1031 q 774 1088 793 1063 q 706 1114 756 1114 l 144 1114 q 92 1044 92 1114 q 144 974 93 974 l 615 974 q 626 969 625 974 q 628 960 628 965 l 628 529 q 710 463 628 463 q 793 529 793 463 m 500 482 l 500 778 q 417 844 500 844 q 335 778 335 844 l 335 553 q 333 543 335 547 q 322 539 332 539 l 74 539 q 22 469 22 539 q 74 399 21 399 l 413 399 q 481 424 463 399 q 500 482 500 450 "},"관":{"ha":1389,"x_min":21,"x_max":1328,"o":"m 793 515 l 793 1031 q 774 1088 793 1063 q 706 1114 756 1114 l 144 1114 q 92 1044 92 1114 q 144 974 93 974 l 615 974 q 626 969 625 974 q 628 960 628 965 l 628 515 q 710 449 628 449 q 793 515 793 449 m 500 468 l 500 778 q 417 844 500 844 q 335 778 335 844 l 335 539 q 333 529 335 533 q 322 525 332 525 l 74 525 q 22 455 22 525 q 74 385 21 385 l 413 385 q 481 410 463 385 q 500 468 500 436 m 585 -68 l 1272 -68 q 1324 2 1325 -68 q 1272 72 1324 72 l 675 72 q 664 76 665 72 q 663 86 663 81 l 663 344 q 580 411 663 411 q 497 344 497 411 l 497 15 q 516 -42 497 -17 q 585 -68 535 -68 m 1328 760 q 1297 835 1328 804 q 1221 867 1265 867 q 1145 835 1176 867 q 1114 760 1114 804 q 1145 684 1114 715 q 1221 653 1176 653 q 1297 684 1265 653 q 1328 760 1328 715 m 1068 344 l 1068 1078 q 985 1144 1068 1144 q 903 1078 903 1144 l 903 344 q 985 278 903 278 q 1068 344 1068 278 "},"괄":{"ha":1389,"x_min":21,"x_max":1357,"o":"m 793 590 l 793 1031 q 774 1088 793 1063 q 706 1114 756 1114 l 144 1114 q 92 1044 92 1114 q 144 974 93 974 l 615 974 q 626 969 625 974 q 628 960 628 965 l 628 590 q 710 524 628 524 q 793 590 793 524 m 500 543 l 500 792 q 417 858 500 858 q 335 792 335 858 l 335 614 q 333 604 335 608 q 322 600 332 600 l 74 600 q 22 530 22 600 q 74 460 21 460 l 413 460 q 481 485 463 460 q 500 543 500 511 m 1328 857 q 1297 933 1328 901 q 1221 964 1265 964 q 1145 933 1176 964 q 1114 857 1114 901 q 1145 781 1114 813 q 1221 750 1176 750 q 1297 781 1265 750 q 1328 857 1328 813 m 1068 581 l 1068 1079 q 985 1146 1068 1146 q 903 1079 903 1146 l 903 581 q 985 514 903 514 q 1068 581 1068 514 m 1321 208 l 1321 407 q 1302 465 1321 439 q 1233 490 1283 490 l 547 490 q 495 420 494 490 q 547 350 496 350 l 1143 350 q 1154 346 1153 350 q 1156 336 1156 342 l 1156 279 q 1154 269 1156 274 q 1143 265 1153 265 l 583 265 q 515 240 533 265 q 496 182 496 214 l 496 -17 q 515 -74 496 -49 q 583 -100 533 -100 l 1304 -100 q 1356 -30 1356 -100 q 1304 40 1357 40 l 674 40 q 663 44 664 40 q 661 54 661 49 l 661 111 q 663 121 661 117 q 674 125 664 125 l 1233 125 q 1302 151 1283 125 q 1321 208 1321 176 "},"괆":{"ha":1389,"x_min":21,"x_max":1328,"o":"m 500 543 l 500 792 q 417 858 500 858 q 335 792 335 858 l 335 614 q 333 604 335 608 q 322 600 332 600 l 74 600 q 22 530 22 600 q 74 460 21 460 l 307 460 q 274 392 274 449 q 326 322 275 322 l 596 322 q 607 318 606 322 q 608 308 608 314 l 608 265 q 607 256 608 260 q 596 251 606 251 l 369 251 q 301 226 319 251 q 282 168 282 200 l 282 -17 q 301 -74 282 -49 q 369 -100 319 -100 l 757 -100 q 809 -30 808 -100 q 757 40 810 40 l 460 40 q 449 44 450 40 q 447 54 447 49 l 447 97 q 449 107 447 103 q 460 111 450 111 l 686 111 q 755 137 736 111 q 774 194 774 163 l 774 379 q 755 437 774 411 q 686 463 736 463 l 443 463 q 481 485 468 468 q 500 543 500 511 m 1321 -17 l 1321 379 q 1302 437 1321 411 q 1233 463 1283 463 l 917 463 q 848 437 867 463 q 829 379 829 411 l 829 -17 q 848 -74 829 -49 q 917 -100 867 -100 l 1233 -100 q 1302 -74 1283 -100 q 1321 -17 1321 -49 m 793 574 l 793 1031 q 774 1088 793 1063 q 706 1114 756 1114 l 144 1114 q 92 1044 92 1114 q 144 974 93 974 l 615 974 q 626 969 625 974 q 628 960 628 965 l 628 574 q 710 507 628 507 q 793 574 793 507 m 1068 564 l 1068 1079 q 985 1146 1068 1146 q 903 1079 903 1146 l 903 564 q 985 497 903 497 q 1068 564 1068 497 m 1156 308 l 1156 54 q 1154 44 1156 49 q 1143 40 1153 40 l 1007 40 q 996 44 997 40 q 994 54 994 49 l 994 308 q 996 318 994 314 q 1007 322 997 322 l 1143 322 q 1154 318 1153 322 q 1156 308 1156 314 m 1328 843 q 1297 919 1328 888 q 1221 950 1265 950 q 1145 919 1176 950 q 1114 843 1114 888 q 1145 767 1114 799 q 1221 736 1176 736 q 1297 767 1265 736 q 1328 843 1328 799 "},"괌":{"ha":1389,"x_min":21,"x_max":1328,"o":"m 1328 832 q 1297 908 1328 876 q 1221 939 1265 939 q 1145 908 1176 939 q 1114 832 1114 876 q 1145 756 1114 788 q 1221 725 1176 725 q 1297 756 1265 725 q 1328 832 1328 788 m 1068 507 l 1068 1078 q 985 1144 1068 1144 q 903 1078 903 1144 l 903 507 q 985 440 903 440 q 1068 507 1068 440 m 793 507 l 793 1031 q 774 1088 793 1063 q 706 1114 756 1114 l 144 1114 q 92 1044 92 1114 q 144 974 93 974 l 615 974 q 626 969 625 974 q 628 960 628 965 l 628 507 q 710 440 628 440 q 793 507 793 440 m 500 482 l 500 778 q 417 844 500 844 q 335 778 335 844 l 335 553 q 333 543 335 547 q 322 539 332 539 l 74 539 q 22 469 22 539 q 74 399 21 399 l 413 399 q 481 424 463 399 q 500 482 500 450 m 1321 -1 l 1321 325 q 1302 383 1321 357 q 1233 408 1283 408 l 583 408 q 515 383 533 408 q 496 325 496 357 l 496 -1 q 515 -59 496 -33 q 583 -85 533 -85 l 1233 -85 q 1302 -59 1283 -85 q 1321 -1 1321 -33 m 1156 254 l 1156 69 q 1154 60 1156 64 q 1143 56 1153 56 l 674 56 q 663 60 664 56 q 661 69 661 64 l 661 254 q 663 264 661 260 q 674 268 664 268 l 1143 268 q 1154 264 1153 268 q 1156 254 1156 260 "},"괍":{"ha":1389,"x_min":21,"x_max":1328,"o":"m 1321 -1 l 1321 417 q 1238 483 1321 483 q 1156 417 1156 483 l 1156 329 l 735 329 q 683 259 682 329 q 735 189 683 189 l 1156 189 l 1156 69 q 1154 60 1156 64 q 1143 56 1153 56 l 674 56 q 663 60 664 56 q 661 69 661 64 l 661 417 q 578 483 661 483 q 496 417 496 483 l 496 -1 q 515 -59 496 -33 q 583 -85 533 -85 l 1233 -85 q 1301 -59 1283 -85 q 1321 -1 1319 -33 m 793 557 l 793 1031 q 774 1088 793 1063 q 706 1114 756 1114 l 144 1114 q 92 1044 92 1114 q 144 974 93 974 l 615 974 q 626 969 625 974 q 628 960 628 965 l 628 557 q 710 490 628 490 q 793 557 793 490 m 1068 513 l 1068 1078 q 985 1144 1068 1144 q 903 1078 903 1144 l 903 513 q 985 446 903 446 q 1068 513 1068 446 m 500 524 l 500 806 q 417 872 500 872 q 335 806 335 872 l 335 594 q 333 585 335 589 q 322 581 332 581 l 74 581 q 22 510 22 581 q 74 440 21 440 l 413 440 q 481 466 463 440 q 500 524 500 492 m 1328 818 q 1297 894 1328 863 q 1221 925 1265 925 q 1145 894 1176 925 q 1114 818 1114 863 q 1145 742 1114 774 q 1221 711 1176 711 q 1297 742 1265 711 q 1328 818 1328 774 "},"괏":{"ha":1389,"x_min":21,"x_max":1328,"o":"m 793 524 l 793 1031 q 774 1088 793 1063 q 706 1114 756 1114 l 144 1114 q 92 1044 92 1114 q 144 974 93 974 l 615 974 q 626 969 625 974 q 628 960 628 965 l 628 524 q 710 457 628 457 q 793 524 793 457 m 500 482 l 500 806 q 417 872 500 872 q 335 806 335 872 l 335 553 q 333 543 335 547 q 322 539 332 539 l 74 539 q 22 469 22 539 q 74 399 21 399 l 413 399 q 481 424 463 399 q 500 482 500 450 m 1068 475 l 1068 1078 q 985 1144 1068 1144 q 903 1078 903 1144 l 903 475 q 985 408 903 408 q 1068 475 1068 408 m 457 -64 l 796 271 l 1133 -64 q 1249 -63 1186 -114 q 1260 39 1313 -12 l 869 415 q 834 436 854 431 q 794 442 814 442 q 756 436 775 442 q 721 415 736 431 l 331 39 q 341 -62 276 -11 q 457 -64 406 -114 m 1328 801 q 1297 877 1328 846 q 1221 908 1265 908 q 1145 877 1176 908 q 1114 801 1114 846 q 1145 726 1114 757 q 1221 694 1176 694 q 1297 726 1265 694 q 1328 801 1328 757 "},"광":{"ha":1389,"x_min":21,"x_max":1328,"o":"m 793 554 l 793 1031 q 774 1088 793 1063 q 706 1114 756 1114 l 144 1114 q 92 1044 92 1114 q 144 974 93 974 l 615 974 q 626 969 625 974 q 628 960 628 965 l 628 554 q 710 488 628 488 q 793 554 793 488 m 500 482 l 500 806 q 417 872 500 872 q 335 806 335 872 l 335 553 q 333 543 335 547 q 322 539 332 539 l 74 539 q 22 469 22 539 q 74 399 21 399 l 413 399 q 481 424 463 399 q 500 482 500 450 m 1068 533 l 1068 1078 q 985 1144 1068 1144 q 903 1078 903 1144 l 903 533 q 985 467 903 467 q 1068 533 1068 467 m 1328 846 q 1297 922 1328 890 q 1221 953 1265 953 q 1145 922 1176 953 q 1114 846 1114 890 q 1145 770 1114 801 q 1221 739 1176 739 q 1297 770 1265 739 q 1328 846 1328 801 m 1289 157 q 1193 362 1289 276 q 960 447 1097 447 q 724 363 821 447 q 628 157 628 278 q 724 -49 628 36 q 960 -133 821 -133 q 1193 -48 1097 -133 q 1289 157 1289 38 m 1124 157 q 1076 51 1124 94 q 960 8 1028 8 q 844 51 892 8 q 796 157 796 94 q 844 263 796 219 q 960 306 892 306 q 1076 263 1028 306 q 1124 157 1124 219 "},"괘":{"ha":1389,"x_min":21,"x_max":1243,"o":"m 972 31 l 972 551 l 1044 551 q 1078 563 1065 551 l 1078 31 q 1160 -36 1078 -36 q 1243 31 1243 -36 l 1243 1078 q 1160 1144 1243 1144 q 1078 1078 1078 1144 l 1078 681 q 1044 692 1065 692 l 972 692 l 972 1078 q 891 1144 972 1144 q 810 1078 810 1144 l 810 31 q 891 -36 810 -36 q 972 31 972 -36 m 704 233 l 704 1031 q 685 1088 704 1063 q 617 1114 667 1114 l 121 1114 q 69 1044 68 1114 q 121 974 69 974 l 529 974 q 540 969 539 974 q 542 960 542 965 l 542 233 q 621 167 542 167 q 704 233 700 167 m 438 214 l 438 764 q 356 831 438 831 q 275 764 275 831 l 275 285 q 274 275 275 279 q 263 271 272 271 l 74 271 q 22 201 22 271 q 74 131 21 131 l 350 131 q 419 156 400 131 q 438 214 438 182 "},"괜":{"ha":1389,"x_min":21,"x_max":1325,"o":"m 972 346 l 972 663 l 1051 663 q 1078 668 1067 663 l 1078 346 q 1160 279 1078 279 q 1243 346 1243 279 l 1243 1078 q 1160 1144 1243 1144 q 1078 1078 1078 1144 l 1078 796 q 1051 803 1067 803 l 972 803 l 972 1078 q 891 1144 972 1144 q 810 1078 810 1144 l 810 346 q 891 279 810 279 q 972 346 972 279 m 704 492 l 704 1031 q 685 1088 704 1063 q 617 1114 667 1114 l 121 1114 q 69 1044 68 1114 q 121 974 69 974 l 529 974 q 540 969 539 974 q 542 960 542 965 l 542 492 q 621 425 542 425 q 704 492 700 425 m 585 -68 l 1272 -68 q 1324 2 1325 -68 q 1272 72 1324 72 l 675 72 q 664 76 665 72 q 663 86 663 81 l 663 344 q 580 411 663 411 q 497 344 497 411 l 497 15 q 516 -42 497 -17 q 585 -68 535 -68 m 438 444 l 438 806 q 356 872 438 872 q 275 806 275 872 l 275 515 q 274 506 275 510 q 263 501 272 501 l 74 501 q 22 431 22 501 q 74 361 21 361 l 350 361 q 419 387 400 361 q 438 444 438 413 "},"괠":{"ha":1389,"x_min":21,"x_max":1357,"o":"m 1321 208 l 1321 407 q 1302 465 1321 439 q 1233 490 1283 490 l 547 490 q 495 420 494 490 q 547 350 496 350 l 1143 350 q 1154 346 1153 350 q 1156 336 1156 342 l 1156 279 q 1154 269 1156 274 q 1143 265 1153 265 l 583 265 q 515 240 533 265 q 496 182 496 214 l 496 -17 q 515 -74 496 -49 q 583 -100 533 -100 l 1304 -100 q 1356 -30 1356 -100 q 1304 40 1357 40 l 674 40 q 663 44 664 40 q 661 54 661 49 l 661 111 q 663 121 661 117 q 674 125 664 125 l 1233 125 q 1302 151 1283 125 q 1321 208 1321 176 m 972 582 l 972 774 l 1044 774 q 1078 785 1065 774 l 1078 582 q 1160 515 1078 515 q 1243 582 1243 515 l 1243 1078 q 1160 1144 1243 1144 q 1078 1078 1078 1144 l 1078 903 q 1044 914 1065 914 l 972 914 l 972 1078 q 891 1144 972 1144 q 810 1078 810 1144 l 810 582 q 891 515 810 515 q 972 582 972 515 m 704 589 l 704 1031 q 685 1088 704 1063 q 617 1114 667 1114 l 121 1114 q 69 1044 68 1114 q 121 974 69 974 l 529 974 q 540 969 539 974 q 542 960 542 965 l 542 589 q 621 522 542 522 q 704 589 700 522 m 438 542 l 438 819 q 356 886 438 886 q 275 819 275 886 l 275 613 q 274 603 275 607 q 263 599 272 599 l 74 599 q 22 528 22 599 q 74 458 21 458 l 350 458 q 419 484 400 458 q 438 542 438 510 "},"괩":{"ha":1389,"x_min":21,"x_max":1321,"o":"m 1321 -1 l 1321 417 q 1238 483 1321 483 q 1156 417 1156 483 l 1156 329 l 735 329 q 683 259 682 329 q 735 189 683 189 l 1156 189 l 1156 69 q 1154 60 1156 64 q 1143 56 1153 56 l 674 56 q 663 60 664 56 q 661 69 661 64 l 661 417 q 578 483 661 483 q 496 417 496 483 l 496 -1 q 515 -59 496 -33 q 583 -85 533 -85 l 1233 -85 q 1301 -59 1283 -85 q 1321 -1 1319 -33 m 972 568 l 972 767 l 1044 767 q 1078 778 1065 767 l 1078 568 q 1160 501 1078 501 q 1243 568 1243 501 l 1243 1078 q 1160 1144 1243 1144 q 1078 1078 1078 1144 l 1078 896 q 1044 907 1065 907 l 972 907 l 972 1078 q 891 1144 972 1144 q 810 1078 810 1144 l 810 568 q 891 501 810 501 q 972 568 972 501 m 704 575 l 704 1031 q 685 1088 704 1063 q 617 1114 667 1114 l 121 1114 q 69 1044 68 1114 q 121 974 69 974 l 529 974 q 540 969 539 974 q 542 960 542 965 l 542 575 q 621 508 542 508 q 704 575 700 508 m 438 542 l 438 819 q 356 886 438 886 q 275 819 275 886 l 275 613 q 274 603 275 607 q 263 599 272 599 l 74 599 q 22 528 22 599 q 74 458 21 458 l 350 458 q 419 484 400 458 q 438 542 438 510 "},"괬":{"ha":1389,"x_min":21,"x_max":1397,"o":"m 824 -83 q 861 -78 843 -85 q 889 -53 879 -71 l 1056 247 l 1221 -53 q 1324 -75 1250 -104 q 1357 26 1397 -46 l 1133 431 q 1100 465 1119 456 q 1054 475 1081 475 q 1010 465 1029 475 q 976 431 990 456 l 821 150 l 665 431 q 632 465 651 456 q 586 475 613 475 q 542 465 561 475 q 508 431 522 456 l 285 26 q 318 -75 244 -46 q 421 -53 392 -104 l 588 247 l 753 -53 q 783 -78 764 -71 q 824 -83 801 -85 m 972 540 l 972 753 l 1044 753 q 1078 764 1065 753 l 1078 540 q 1160 474 1078 474 q 1243 540 1243 474 l 1243 1078 q 1160 1144 1243 1144 q 1078 1078 1078 1144 l 1078 882 q 1044 893 1065 893 l 972 893 l 972 1078 q 891 1144 972 1144 q 810 1078 810 1144 l 810 540 q 891 474 810 474 q 972 540 972 474 m 704 561 l 704 1031 q 685 1088 704 1063 q 617 1114 667 1114 l 121 1114 q 69 1044 68 1114 q 121 974 69 974 l 529 974 q 540 969 539 974 q 542 960 542 965 l 542 561 q 621 494 542 494 q 704 561 700 494 m 438 528 l 438 806 q 356 872 438 872 q 275 806 275 872 l 275 599 q 274 589 275 593 q 263 585 272 585 l 74 585 q 22 515 22 585 q 74 444 21 444 l 350 444 q 419 470 400 444 q 438 528 438 496 "},"괭":{"ha":1389,"x_min":21,"x_max":1289,"o":"m 1289 157 q 1193 362 1289 276 q 960 447 1097 447 q 724 363 821 447 q 628 157 628 278 q 724 -49 628 36 q 960 -133 821 -133 q 1193 -48 1097 -133 q 1289 157 1289 38 m 972 529 l 972 747 l 1044 747 q 1078 758 1065 747 l 1078 515 q 1160 449 1078 449 q 1243 515 1243 449 l 1243 1078 q 1160 1144 1243 1144 q 1078 1078 1078 1144 l 1078 876 q 1044 888 1065 888 l 972 888 l 972 1078 q 891 1144 972 1144 q 810 1078 810 1144 l 810 529 q 891 463 810 463 q 972 529 972 463 m 704 501 l 704 1031 q 685 1088 704 1063 q 617 1114 667 1114 l 121 1114 q 69 1044 68 1114 q 121 974 69 974 l 529 974 q 540 969 539 974 q 542 960 542 965 l 542 501 q 621 435 542 435 q 704 501 700 435 m 438 440 l 438 792 q 356 858 438 858 q 275 792 275 858 l 275 511 q 274 501 275 506 q 263 497 272 497 l 74 497 q 22 427 22 497 q 74 357 21 357 l 350 357 q 419 383 400 357 q 438 440 438 408 m 1124 157 q 1076 51 1124 94 q 960 8 1028 8 q 844 51 892 8 q 796 157 796 94 q 844 263 796 219 q 960 306 892 306 q 1076 263 1028 306 q 1124 157 1124 219 "},"괴":{"ha":1321,"x_min":21,"x_max":1156,"o":"m 1156 31 l 1156 1078 q 1073 1144 1156 1144 q 990 1078 990 1144 l 990 31 q 1073 -36 990 -36 q 1156 31 1156 -36 m 826 261 l 826 1031 q 808 1088 826 1063 q 739 1114 789 1114 l 144 1114 q 92 1044 92 1114 q 144 974 93 974 l 649 974 q 660 969 658 974 q 661 960 661 965 l 661 261 q 744 194 661 194 q 826 261 826 194 m 500 215 l 500 706 q 417 772 500 772 q 335 706 335 772 l 335 286 q 333 276 335 281 q 322 272 332 272 l 74 272 q 22 202 22 272 q 74 132 21 132 l 413 132 q 481 158 463 132 q 500 215 500 183 "},"괵":{"ha":1321,"x_min":21,"x_max":1256,"o":"m 500 496 l 500 792 q 417 858 500 858 q 335 792 335 858 l 335 567 q 333 557 335 561 q 322 553 332 553 l 74 553 q 22 483 22 553 q 74 413 21 413 l 413 413 q 436 414 425 413 q 414 351 414 397 q 467 282 415 282 l 1078 282 q 1089 278 1088 282 q 1090 268 1090 274 l 1090 -19 q 1173 -86 1090 -86 q 1256 -19 1256 -86 l 1256 339 q 1237 397 1256 371 q 1168 422 1218 422 l 467 422 l 463 422 q 481 438 474 428 q 500 496 500 464 m 826 526 l 826 1031 q 808 1088 826 1063 q 739 1114 789 1114 l 144 1114 q 92 1044 92 1114 q 144 974 93 974 l 649 974 q 660 969 658 974 q 661 960 661 965 l 661 526 q 744 460 661 460 q 826 526 826 460 m 1156 518 l 1156 1078 q 1073 1144 1156 1144 q 990 1078 990 1144 l 990 518 q 1073 451 990 451 q 1156 518 1156 451 "},"괸":{"ha":1321,"x_min":21,"x_max":1272,"o":"m 518 -68 l 1219 -68 q 1272 2 1272 -68 q 1219 72 1271 72 l 608 72 q 597 76 599 72 q 596 86 596 81 l 596 358 q 513 425 596 425 q 479 421 494 425 q 481 424 479 422 q 500 482 500 450 l 500 792 q 417 858 500 858 q 335 792 335 858 l 335 553 q 333 543 335 547 q 322 539 332 539 l 74 539 q 22 469 22 539 q 74 399 21 399 l 413 399 q 443 401 429 399 q 431 358 431 385 l 431 15 q 449 -42 431 -17 q 518 -68 468 -68 m 826 529 l 826 1031 q 808 1088 826 1063 q 739 1114 789 1114 l 144 1114 q 92 1044 92 1114 q 144 974 93 974 l 649 974 q 660 969 658 974 q 661 960 661 965 l 661 529 q 744 463 661 463 q 826 529 826 463 m 1156 358 l 1156 1078 q 1073 1144 1156 1144 q 990 1078 990 1144 l 990 358 q 1073 292 990 292 q 1156 358 1156 292 "},"괼":{"ha":1321,"x_min":21,"x_max":1292,"o":"m 1256 208 l 1256 407 q 1237 465 1256 439 q 1168 490 1218 490 l 485 490 q 500 543 500 514 l 500 806 q 417 872 500 872 q 335 806 335 872 l 335 614 q 333 604 335 608 q 322 600 332 600 l 74 600 q 22 530 22 600 q 74 460 21 460 l 413 460 q 436 461 425 460 q 429 419 429 444 q 482 350 431 350 l 1078 350 q 1089 346 1088 350 q 1090 336 1090 342 l 1090 279 q 1089 269 1090 274 q 1078 265 1088 265 l 518 265 q 449 240 468 265 q 431 182 431 214 l 431 -17 q 449 -74 431 -49 q 518 -100 468 -100 l 1239 -100 q 1291 -30 1290 -100 q 1239 40 1292 40 l 608 40 q 597 44 599 40 q 596 54 596 49 l 596 111 q 597 121 596 117 q 608 125 599 125 l 1168 125 q 1237 151 1218 125 q 1256 208 1256 176 m 826 590 l 826 1031 q 808 1088 826 1063 q 739 1114 789 1114 l 144 1114 q 92 1044 92 1114 q 144 974 93 974 l 649 974 q 660 969 658 974 q 661 960 661 965 l 661 590 q 744 524 661 524 q 826 590 826 524 m 1156 581 l 1156 1079 q 1073 1146 1156 1146 q 990 1079 990 1146 l 990 581 q 1073 514 990 514 q 1156 581 1156 514 "},"굄":{"ha":1321,"x_min":21,"x_max":1256,"o":"m 1256 -1 l 1256 356 q 1237 413 1256 388 q 1168 439 1218 439 l 518 439 q 476 432 493 439 l 481 438 q 500 496 500 464 l 500 806 q 417 872 500 872 q 335 806 335 872 l 335 567 q 333 557 335 561 q 322 553 332 553 l 74 553 q 22 483 22 553 q 74 413 21 413 l 413 413 q 453 418 436 413 q 449 413 451 415 q 431 356 431 388 l 431 -1 q 449 -59 431 -33 q 518 -85 468 -85 l 1168 -85 q 1237 -59 1218 -85 q 1256 -1 1256 -33 m 826 538 l 826 1031 q 808 1088 826 1063 q 739 1114 789 1114 l 144 1114 q 92 1044 92 1114 q 144 974 93 974 l 649 974 q 660 969 658 974 q 661 960 661 965 l 661 538 q 744 471 661 471 q 826 538 826 471 m 1090 285 l 1090 69 q 1089 60 1090 64 q 1078 56 1088 56 l 608 56 q 597 60 599 56 q 596 69 596 64 l 596 285 q 597 294 596 290 q 608 299 599 299 l 1078 299 q 1089 294 1088 299 q 1090 285 1090 290 m 1156 538 l 1156 1078 q 1073 1144 1156 1144 q 990 1078 990 1144 l 990 538 q 1073 471 990 471 q 1156 538 1156 471 "},"굅":{"ha":1321,"x_min":21,"x_max":1256,"o":"m 500 538 l 500 819 q 417 886 500 886 q 335 819 335 886 l 335 608 q 333 599 335 603 q 322 594 332 594 l 74 594 q 22 524 22 594 q 74 454 21 454 l 413 454 q 442 456 428 454 q 431 417 431 440 l 431 -1 q 449 -59 431 -33 q 518 -85 468 -85 l 1168 -85 q 1236 -59 1218 -85 q 1256 -1 1254 -33 l 1256 417 q 1173 483 1256 483 q 1090 417 1090 483 l 1090 329 l 669 329 q 617 259 617 329 q 669 189 618 189 l 1090 189 l 1090 69 q 1089 60 1090 64 q 1078 56 1088 56 l 608 56 q 597 60 599 56 q 596 69 596 64 l 596 417 q 513 483 596 483 q 481 479 494 483 q 500 538 500 506 m 826 571 l 826 1031 q 808 1088 826 1063 q 739 1114 789 1114 l 144 1114 q 92 1044 92 1114 q 144 974 93 974 l 649 974 q 660 969 658 974 q 661 960 661 965 l 661 571 q 744 504 661 504 q 826 571 826 504 m 1156 554 l 1156 1078 q 1073 1144 1156 1144 q 990 1078 990 1144 l 990 554 q 1073 488 990 488 q 1156 554 1156 488 "},"굇":{"ha":1321,"x_min":21,"x_max":1326,"o":"m 826 524 l 826 1031 q 808 1088 826 1063 q 739 1114 789 1114 l 144 1114 q 92 1044 92 1114 q 144 974 93 974 l 649 974 q 660 969 658 974 q 661 960 661 965 l 661 524 q 744 457 661 457 q 826 524 826 457 m 500 482 l 500 806 q 417 872 500 872 q 335 806 335 872 l 335 553 q 333 543 335 547 q 322 539 332 539 l 74 539 q 22 469 22 539 q 74 399 21 399 l 413 399 q 481 424 463 399 q 500 482 500 450 m 1156 444 l 1156 1078 q 1073 1144 1156 1144 q 990 1078 990 1144 l 990 444 q 1073 378 990 378 q 1156 444 1156 378 m 471 -64 l 810 271 l 1147 -64 q 1263 -63 1200 -114 q 1274 39 1326 -12 l 883 415 q 848 436 868 431 q 808 442 828 442 q 769 436 789 442 q 735 415 750 431 l 344 39 q 355 -62 290 -11 q 471 -64 419 -114 "},"굉":{"ha":1321,"x_min":21,"x_max":1225,"o":"m 826 554 l 826 1031 q 808 1088 826 1063 q 739 1114 789 1114 l 144 1114 q 92 1044 92 1114 q 144 974 93 974 l 649 974 q 660 969 658 974 q 661 960 661 965 l 661 554 q 744 488 661 488 q 826 554 826 488 m 500 482 l 500 806 q 417 872 500 872 q 335 806 335 872 l 335 553 q 333 543 335 547 q 322 539 332 539 l 74 539 q 22 469 22 539 q 74 399 21 399 l 413 399 q 481 424 463 399 q 500 482 500 450 m 1156 519 l 1156 1078 q 1073 1144 1156 1144 q 990 1078 990 1144 l 990 519 q 1073 453 990 453 q 1156 519 1156 453 m 1225 157 q 1129 362 1225 276 q 896 447 1033 447 q 660 363 757 447 q 564 157 564 278 q 660 -49 564 36 q 896 -133 757 -133 q 1129 -48 1033 -133 q 1225 157 1225 38 m 1060 157 q 1012 51 1060 94 q 896 8 964 8 q 780 51 828 8 q 732 157 732 94 q 780 263 732 219 q 896 306 828 306 q 1012 263 964 306 q 1060 157 1060 219 "},"교":{"ha":1090,"x_min":21,"x_max":992,"o":"m 992 243 l 992 1031 q 973 1088 992 1063 q 904 1114 954 1114 l 178 1114 q 126 1044 125 1114 q 178 974 126 974 l 814 974 q 825 969 824 974 q 826 960 826 965 l 826 243 q 909 176 826 176 q 992 243 992 176 m 449 181 l 449 686 q 366 753 449 753 q 283 686 283 753 l 283 251 q 282 242 283 246 q 271 238 281 238 l 74 238 q 22 167 22 238 q 74 97 21 97 l 361 97 q 430 123 411 97 q 449 181 449 149 m 724 160 l 724 686 q 641 753 724 753 q 558 686 558 753 l 558 160 q 641 93 558 93 q 724 160 724 93 "},"굔":{"ha":1189,"x_min":21,"x_max":1094,"o":"m 992 564 l 992 1031 q 973 1088 992 1063 q 904 1114 954 1114 l 186 1114 q 134 1044 133 1114 q 186 974 135 974 l 814 974 q 825 969 824 974 q 826 960 826 965 l 826 564 q 909 497 826 497 q 992 564 992 497 m 449 514 l 449 811 q 366 878 449 878 q 283 811 283 878 l 283 585 q 282 575 283 579 q 271 571 281 571 l 74 571 q 22 501 22 571 q 74 431 21 431 l 361 431 q 430 456 411 431 q 449 514 449 482 m 724 493 l 724 811 q 641 878 724 878 q 558 811 558 878 l 558 493 q 641 426 558 426 q 724 493 724 426 m 354 -68 l 1042 -68 q 1094 2 1094 -68 q 1042 72 1093 72 l 444 72 q 433 76 435 72 q 432 86 432 81 l 432 317 q 349 383 432 383 q 267 317 267 383 l 267 15 q 285 -42 267 -17 q 354 -68 304 -68 "},"굘":{"ha":1189,"x_min":21,"x_max":1126,"o":"m 1090 194 l 1090 379 q 1072 437 1090 411 q 1003 463 1053 463 l 317 463 q 265 392 264 463 q 317 322 265 322 l 913 322 q 924 318 922 322 q 925 308 925 314 l 925 265 q 924 256 925 260 q 913 251 922 251 l 353 251 q 284 226 303 251 q 265 168 265 200 l 265 -17 q 284 -74 265 -49 q 353 -100 303 -100 l 1074 -100 q 1126 -30 1125 -100 q 1074 40 1126 40 l 443 40 q 432 44 433 40 q 431 54 431 49 l 431 97 q 432 107 431 103 q 443 111 433 111 l 1003 111 q 1072 137 1053 111 q 1090 194 1090 163 m 992 657 l 992 1031 q 973 1088 992 1063 q 904 1114 954 1114 l 186 1114 q 134 1044 133 1114 q 186 974 135 974 l 814 974 q 825 969 824 974 q 826 960 826 965 l 826 657 q 909 590 826 590 q 992 657 992 590 m 449 607 l 449 839 q 366 906 449 906 q 283 839 283 906 l 283 678 q 282 668 283 672 q 271 664 281 664 l 74 664 q 22 594 22 664 q 74 524 21 524 l 361 524 q 430 549 411 524 q 449 607 449 575 m 724 586 l 724 839 q 641 906 724 906 q 558 839 558 906 l 558 586 q 641 519 558 519 q 724 586 724 519 "},"굡":{"ha":1189,"x_min":21,"x_max":1090,"o":"m 1090 -1 l 1090 410 q 1008 476 1090 476 q 925 410 925 476 l 925 321 l 504 321 q 452 251 451 321 q 504 181 453 181 l 925 181 l 925 69 q 924 60 925 64 q 913 56 922 56 l 443 56 q 432 60 433 56 q 431 69 431 64 l 431 410 q 348 476 431 476 q 265 410 265 476 l 265 -1 q 284 -59 265 -33 q 353 -85 303 -85 l 1003 -85 q 1071 -59 1053 -85 q 1090 -1 1089 -33 m 992 650 l 992 1031 q 973 1088 992 1063 q 904 1114 954 1114 l 186 1114 q 134 1044 133 1114 q 186 974 135 974 l 814 974 q 825 969 824 974 q 826 960 826 965 l 826 650 q 909 583 826 583 q 992 650 992 583 m 449 600 l 449 839 q 366 906 449 906 q 283 839 283 906 l 283 671 q 282 661 283 665 q 271 657 281 657 l 74 657 q 22 587 22 657 q 74 517 21 517 l 361 517 q 430 542 411 517 q 449 600 449 568 m 724 579 l 724 839 q 641 906 724 906 q 558 839 558 906 l 558 579 q 641 513 558 513 q 724 579 724 513 "},"굣":{"ha":1189,"x_min":21,"x_max":1194,"o":"m 992 599 l 992 1031 q 973 1088 992 1063 q 904 1114 954 1114 l 186 1114 q 134 1044 133 1114 q 186 974 135 974 l 814 974 q 825 969 824 974 q 826 960 826 965 l 826 599 q 909 532 826 532 q 992 599 992 532 m 449 549 l 449 839 q 366 906 449 906 q 283 839 283 906 l 283 619 q 282 610 283 614 q 271 606 281 606 l 74 606 q 22 535 22 606 q 74 465 21 465 l 361 465 q 430 491 411 465 q 449 549 449 517 m 724 542 l 724 839 q 641 906 724 906 q 558 839 558 906 l 558 542 q 641 475 558 475 q 724 542 724 475 m 339 -64 l 678 271 l 1015 -64 q 1131 -63 1068 -114 q 1142 39 1194 -12 l 751 415 q 716 436 736 431 q 676 442 696 442 q 638 436 657 442 q 603 415 618 431 l 213 39 q 223 -62 158 -11 q 339 -64 288 -114 "},"구":{"ha":1090,"x_min":21,"x_max":992,"o":"m 714 31 l 714 513 q 695 570 714 544 q 626 596 676 596 l 74 596 q 22 526 21 596 q 74 456 22 456 l 536 456 q 547 451 546 456 q 549 442 549 447 l 549 31 q 631 -36 549 -36 q 714 31 714 -36 m 992 576 l 992 1031 q 973 1088 992 1063 q 904 1114 954 1114 l 217 1114 q 165 1044 164 1114 q 217 974 165 974 l 814 974 q 825 969 824 974 q 826 960 826 965 l 826 576 q 909 510 826 510 q 992 576 992 510 "},"국":{"ha":1189,"x_min":21,"x_max":1092,"o":"m 1092 -17 l 1092 314 q 1073 372 1092 346 q 1004 397 1054 397 l 750 397 l 750 606 q 731 663 750 638 q 663 689 713 689 l 74 689 q 22 619 21 689 q 74 549 22 549 l 572 549 q 583 544 582 549 q 585 535 585 540 l 585 397 l 313 397 q 260 327 260 397 q 313 257 261 257 l 914 257 q 925 253 924 257 q 926 243 926 249 l 926 -17 q 1009 -83 926 -83 q 1092 -17 1092 -83 m 992 660 l 992 1031 q 973 1088 992 1063 q 904 1114 954 1114 l 217 1114 q 165 1044 164 1114 q 217 974 165 974 l 814 974 q 825 969 824 974 q 826 960 826 965 l 826 660 q 909 593 826 593 q 992 660 992 593 "},"군":{"ha":1189,"x_min":21,"x_max":1093,"o":"m 756 286 l 756 564 q 737 622 756 596 q 668 647 718 647 l 74 647 q 22 577 21 647 q 74 507 22 507 l 578 507 q 589 503 588 507 q 590 493 590 499 l 590 286 q 673 219 590 219 q 756 286 756 219 m 992 660 l 992 1031 q 973 1088 992 1063 q 904 1114 954 1114 l 217 1114 q 165 1044 164 1114 q 217 974 165 974 l 814 974 q 825 969 824 974 q 826 960 826 965 l 826 660 q 909 593 826 593 q 992 660 992 593 m 353 -68 l 1040 -68 q 1092 2 1093 -68 q 1040 72 1092 72 l 443 72 q 432 76 433 72 q 431 86 431 81 l 431 331 q 348 397 431 397 q 265 331 265 397 l 265 15 q 284 -42 265 -17 q 353 -68 303 -68 "},"굳":{"ha":1189,"x_min":21,"x_max":1128,"o":"m 353 -82 l 1072 -82 q 1126 -12 1128 -82 q 1072 58 1125 58 l 443 58 q 432 63 433 58 q 431 72 431 67 l 431 243 q 432 253 431 249 q 443 257 433 257 l 1040 257 q 1094 327 1096 257 q 1040 397 1093 397 l 756 397 l 756 592 q 737 649 756 624 q 668 675 718 675 l 74 675 q 22 605 21 675 q 74 535 22 535 l 578 535 q 589 531 588 535 q 590 521 590 526 l 590 397 l 353 397 q 284 372 303 397 q 265 314 265 346 l 265 1 q 284 -56 265 -31 q 353 -82 303 -82 m 992 660 l 992 1031 q 973 1088 992 1063 q 904 1114 954 1114 l 217 1114 q 165 1044 164 1114 q 217 974 165 974 l 814 974 q 825 969 824 974 q 826 960 826 965 l 826 660 q 909 593 826 593 q 992 660 992 593 "},"굴":{"ha":1189,"x_min":21,"x_max":1126,"o":"m 1090 201 l 1090 393 q 1072 451 1090 425 q 1003 476 1053 476 l 756 476 l 756 633 q 737 691 756 665 q 668 717 718 717 l 74 717 q 22 647 21 717 q 74 576 22 576 l 578 576 q 589 572 588 576 q 590 563 590 568 l 590 476 l 317 476 q 265 406 264 476 q 317 336 265 336 l 913 336 q 924 332 922 336 q 925 322 925 328 l 925 272 q 924 263 925 267 q 913 258 922 258 l 353 258 q 284 233 303 258 q 265 175 265 207 l 265 -17 q 284 -74 265 -49 q 353 -100 303 -100 l 1074 -100 q 1126 -30 1125 -100 q 1074 40 1126 40 l 443 40 q 432 44 433 40 q 431 54 431 49 l 431 104 q 432 114 431 110 q 443 118 433 118 l 1003 118 q 1072 144 1053 118 q 1090 201 1090 169 m 992 701 l 992 1031 q 973 1088 992 1063 q 904 1114 954 1114 l 217 1114 q 165 1044 164 1114 q 217 974 165 974 l 814 974 q 825 969 824 974 q 826 960 826 965 l 826 701 q 909 635 826 635 q 992 701 992 635 "},"굵":{"ha":1189,"x_min":21,"x_max":1124,"o":"m 632 197 l 632 358 l 640 358 q 654 358 647 358 q 701 328 667 328 l 946 328 q 957 324 956 328 q 958 314 958 319 l 958 -39 q 1041 -106 958 -106 q 1124 -39 1124 -106 l 1124 385 q 1105 442 1124 417 q 1036 468 1086 468 l 724 468 l 724 633 q 705 691 724 665 q 636 717 686 717 l 74 717 q 22 647 21 717 q 74 576 22 576 l 546 576 q 557 572 556 576 q 558 563 558 568 l 558 467 q 544 468 551 468 l 185 468 q 133 398 132 468 q 185 328 133 328 l 454 328 q 465 324 464 328 q 467 314 467 319 l 467 268 q 465 258 467 263 q 454 254 464 254 l 228 254 q 159 228 178 254 q 140 171 140 203 l 140 -17 q 159 -74 140 -49 q 228 -100 178 -100 l 615 -100 q 667 -30 667 -100 q 615 40 668 40 l 318 40 q 307 44 308 40 q 306 54 306 49 l 306 100 q 307 110 306 106 q 318 114 308 114 l 544 114 q 613 140 594 114 q 632 197 632 165 m 992 701 l 992 1031 q 973 1088 992 1063 q 904 1114 954 1114 l 217 1114 q 165 1044 164 1114 q 217 974 165 974 l 814 974 q 825 969 824 974 q 826 960 826 965 l 826 701 q 909 635 826 635 q 992 701 992 635 "},"굶":{"ha":1189,"x_min":21,"x_max":1124,"o":"m 610 188 l 610 379 q 607 403 610 392 q 639 400 621 400 q 668 403 656 400 q 665 379 665 392 l 665 -31 q 684 -88 665 -62 q 753 -114 703 -114 l 1036 -114 q 1105 -88 1086 -114 q 1124 -31 1124 -62 l 1124 379 q 1105 437 1124 411 q 1036 463 1086 463 l 753 463 q 722 460 735 463 l 722 467 l 722 633 q 703 691 722 665 q 635 717 685 717 l 74 717 q 22 647 21 717 q 74 576 22 576 l 544 576 q 556 572 554 576 q 557 563 557 568 l 557 467 l 557 458 q 522 463 542 463 l 185 463 q 133 392 132 463 q 185 322 133 322 l 432 322 q 443 318 442 322 q 444 308 444 314 l 444 258 q 443 249 444 253 q 432 244 442 244 l 228 244 q 159 219 178 244 q 140 161 140 193 l 140 -31 q 159 -88 140 -62 q 228 -114 178 -114 l 593 -114 q 645 -44 644 -114 q 593 26 646 26 l 318 26 q 307 31 308 26 q 306 40 306 35 l 306 90 q 307 100 306 96 q 318 104 308 104 l 522 104 q 591 130 572 104 q 610 188 610 156 m 992 701 l 992 1031 q 973 1088 992 1063 q 904 1114 954 1114 l 217 1114 q 165 1044 164 1114 q 217 974 165 974 l 814 974 q 825 969 824 974 q 826 960 826 965 l 826 701 q 909 635 826 635 q 992 701 992 635 m 958 308 l 958 40 q 957 31 958 35 q 946 26 956 26 l 843 26 q 832 31 833 26 q 831 40 831 35 l 831 308 q 832 318 831 314 q 843 322 833 322 l 946 322 q 957 318 956 322 q 958 308 958 314 "},"굻":{"ha":1189,"x_min":21,"x_max":1181,"o":"m 722 499 l 722 633 q 703 691 722 665 q 635 717 685 717 l 74 717 q 22 647 21 717 q 74 576 22 576 l 544 576 q 556 572 554 576 q 557 563 557 568 l 557 499 q 574 451 557 468 q 522 463 554 463 l 185 463 q 133 392 132 463 q 185 322 133 322 l 432 322 q 443 318 442 322 q 444 308 444 314 l 444 258 q 443 249 444 253 q 432 244 442 244 l 228 244 q 159 219 178 244 q 140 161 140 193 l 140 -31 q 159 -88 140 -62 q 228 -114 178 -114 l 593 -114 q 645 -44 644 -114 q 593 26 646 26 l 318 26 q 307 31 308 26 q 306 40 306 35 l 306 90 q 307 100 306 96 q 318 104 308 104 l 522 104 q 591 130 572 104 q 610 188 610 156 l 610 264 q 635 258 619 258 l 697 258 q 638 106 638 193 q 710 -60 638 8 q 883 -128 782 -128 q 1055 -59 983 -128 q 1126 106 1126 10 q 1067 258 1126 193 l 1126 258 q 1180 328 1179 258 q 1126 399 1181 399 l 965 399 l 965 469 q 883 536 965 536 q 800 469 800 536 l 800 399 l 635 399 q 608 393 619 399 q 590 436 606 417 q 585 443 588 440 q 639 432 606 432 q 722 499 722 432 m 992 701 l 992 1031 q 973 1088 992 1063 q 904 1114 954 1114 l 217 1114 q 165 1044 164 1114 q 217 974 165 974 l 814 974 q 825 969 824 974 q 826 960 826 965 l 826 701 q 909 635 826 635 q 992 701 992 635 m 961 106 q 938 39 961 67 q 883 11 915 11 q 828 39 851 11 q 804 106 804 67 q 828 173 804 146 q 883 200 851 200 q 938 173 915 200 q 961 106 961 146 "},"굼":{"ha":1189,"x_min":21,"x_max":1090,"o":"m 1090 1 l 1090 328 q 1072 385 1090 360 q 1003 411 1053 411 l 756 411 l 756 592 q 737 649 756 624 q 668 675 718 675 l 74 675 q 22 605 21 675 q 74 535 22 535 l 578 535 q 589 531 588 535 q 590 521 590 526 l 590 411 l 353 411 q 284 385 303 411 q 265 328 265 360 l 265 1 q 284 -56 265 -31 q 353 -82 303 -82 l 1003 -82 q 1072 -56 1053 -82 q 1090 1 1090 -31 m 992 660 l 992 1031 q 973 1088 992 1063 q 904 1114 954 1114 l 217 1114 q 165 1044 164 1114 q 217 974 165 974 l 814 974 q 825 969 824 974 q 826 960 826 965 l 826 660 q 909 593 826 593 q 992 660 992 593 m 925 257 l 925 72 q 924 63 925 67 q 913 58 922 58 l 443 58 q 432 63 433 58 q 431 72 431 67 l 431 257 q 432 267 431 263 q 443 271 433 271 l 913 271 q 924 267 922 271 q 925 257 925 263 "},"굽":{"ha":1189,"x_min":21,"x_max":1090,"o":"m 1090 -1 l 1090 410 q 1008 476 1090 476 q 925 410 925 476 l 925 321 l 504 321 q 452 251 451 321 q 504 181 453 181 l 925 181 l 925 69 q 924 60 925 64 q 913 56 922 56 l 443 56 q 432 60 433 56 q 431 69 431 64 l 431 410 q 348 476 431 476 q 265 410 265 476 l 265 -1 q 284 -59 265 -33 q 353 -85 303 -85 l 1003 -85 q 1071 -59 1053 -85 q 1090 -1 1089 -33 m 992 688 l 992 1031 q 973 1088 992 1063 q 904 1114 954 1114 l 217 1114 q 165 1044 164 1114 q 217 974 165 974 l 814 974 q 825 969 824 974 q 826 960 826 965 l 826 688 q 909 621 826 621 q 992 688 992 621 m 761 444 l 761 633 q 742 691 761 665 q 674 717 724 717 l 74 717 q 22 647 21 717 q 74 576 22 576 l 583 576 q 594 572 593 576 q 596 563 596 568 l 596 444 q 678 378 596 378 q 761 444 761 378 "},"굿":{"ha":1189,"x_min":21,"x_max":1193,"o":"m 338 -64 l 676 271 l 1014 -64 q 1130 -63 1067 -114 q 1140 39 1193 -12 l 756 410 l 756 582 q 737 640 756 614 q 668 665 718 665 l 74 665 q 22 595 21 665 q 74 525 22 525 l 578 525 q 589 521 588 525 q 590 511 590 517 l 590 404 l 211 39 q 220 -64 157 -11 q 338 -64 283 -117 m 992 643 l 992 1031 q 973 1088 992 1063 q 904 1114 954 1114 l 217 1114 q 165 1044 164 1114 q 217 974 165 974 l 814 974 q 825 969 824 974 q 826 960 826 965 l 826 643 q 909 576 826 576 q 992 643 992 576 "},"궁":{"ha":1189,"x_min":21,"x_max":1008,"o":"m 1008 157 q 913 361 1008 276 q 756 440 844 422 l 756 603 q 737 660 756 635 q 668 686 718 686 l 74 686 q 22 616 21 686 q 74 546 22 546 l 578 546 q 589 542 588 546 q 590 532 590 538 l 590 438 q 443 363 507 418 q 347 157 347 278 q 444 -49 347 36 q 679 -133 540 -133 q 913 -48 817 -133 q 1008 157 1008 38 m 992 674 l 992 1031 q 973 1088 992 1063 q 904 1114 954 1114 l 217 1114 q 165 1044 164 1114 q 217 974 165 974 l 814 974 q 825 969 824 974 q 826 960 826 965 l 826 674 q 909 607 826 607 q 992 674 992 607 m 843 157 q 795 51 843 94 q 679 8 747 8 q 563 51 611 8 q 515 157 515 94 q 563 263 515 219 q 679 306 611 306 q 795 263 747 306 q 843 157 843 219 "},"궂":{"ha":1189,"x_min":21,"x_max":1190,"o":"m 761 442 l 761 450 l 761 640 q 742 698 761 672 q 674 724 724 724 l 74 724 q 22 653 21 724 q 74 583 22 583 l 583 583 q 594 579 593 583 q 596 569 596 575 l 596 450 l 596 442 l 267 442 q 215 372 214 442 q 267 301 215 301 l 550 301 l 222 39 q 228 -59 168 -4 q 349 -64 288 -114 l 678 207 l 1011 -64 q 1131 -58 1072 -112 q 1138 39 1190 -3 l 804 301 l 1092 301 q 1145 372 1144 301 q 1092 442 1146 442 l 761 442 m 992 688 l 992 1031 q 973 1088 992 1063 q 904 1114 954 1114 l 217 1114 q 165 1044 164 1114 q 217 974 165 974 l 814 974 q 825 969 824 974 q 826 960 826 965 l 826 688 q 909 621 826 621 q 992 688 992 621 "},"궈":{"ha":1321,"x_min":21,"x_max":1156,"o":"m 938 357 q 906 433 938 401 q 831 464 875 464 q 755 433 786 464 q 724 357 724 401 q 755 281 724 313 q 831 250 786 250 q 906 281 875 250 q 938 357 938 313 m 1156 31 l 1156 1078 q 1073 1144 1156 1144 q 990 1078 990 1144 l 990 31 q 1073 -36 990 -36 q 1156 31 1156 -36 m 554 31 l 554 540 q 535 598 554 572 q 467 624 517 624 l 74 624 q 22 553 21 624 q 74 483 22 483 l 376 483 q 388 479 386 483 q 389 469 389 475 l 389 31 q 472 -36 389 -36 q 554 31 554 -36 m 793 618 l 793 1031 q 774 1088 793 1063 q 706 1114 756 1114 l 153 1114 q 101 1044 100 1114 q 153 974 101 974 l 615 974 q 626 969 625 974 q 628 960 628 965 l 628 618 q 710 551 628 551 q 793 618 793 551 "},"궉":{"ha":1321,"x_min":21,"x_max":1254,"o":"m 1254 -19 l 1254 325 q 1235 383 1254 357 q 1167 408 1217 408 l 532 408 q 557 461 557 425 l 557 651 q 538 709 557 683 q 469 735 519 735 l 74 735 q 22 665 21 735 q 74 594 22 594 l 379 594 q 390 590 389 594 q 392 581 392 586 l 392 461 q 433 399 392 413 q 413 338 413 383 q 465 268 414 268 l 1076 268 q 1088 264 1086 268 q 1089 254 1089 260 l 1089 -19 q 1172 -86 1089 -86 q 1254 -19 1254 -86 m 782 785 l 782 1031 q 763 1088 782 1063 q 694 1114 744 1114 l 153 1114 q 101 1044 100 1114 q 153 974 101 974 l 604 974 q 615 969 614 974 q 617 960 617 965 l 617 785 q 699 718 617 718 q 782 785 782 718 m 1156 493 l 1156 1078 q 1073 1144 1156 1144 q 990 1078 990 1144 l 990 493 q 1073 426 990 426 q 1156 493 1156 426 m 940 607 q 909 683 940 651 q 833 714 878 714 q 758 683 789 714 q 726 607 726 651 q 758 531 726 563 q 833 500 789 500 q 909 531 878 500 q 940 607 940 563 "},"권":{"ha":1321,"x_min":21,"x_max":1258,"o":"m 518 -68 l 1206 -68 q 1258 2 1258 -68 q 1206 72 1257 72 l 608 72 q 597 76 599 72 q 596 86 596 81 l 596 317 q 529 382 596 376 l 529 610 q 510 667 529 642 q 442 693 492 693 l 74 693 q 22 623 21 693 q 74 553 22 553 l 351 553 q 363 549 361 553 q 364 539 364 544 l 364 350 q 431 283 364 290 l 431 15 q 449 -42 431 -17 q 518 -68 468 -68 m 796 688 l 796 1031 q 777 1088 796 1063 q 708 1114 758 1114 l 153 1114 q 101 1044 100 1114 q 153 974 101 974 l 618 974 q 629 969 628 974 q 631 960 631 965 l 631 688 q 713 621 631 621 q 796 688 796 621 m 1156 336 l 1156 1078 q 1073 1144 1156 1144 q 990 1078 990 1144 l 990 336 q 1073 269 990 269 q 1156 336 1156 269 m 940 482 q 909 558 940 526 q 833 589 878 589 q 758 558 789 589 q 726 482 726 526 q 758 406 726 438 q 833 375 789 375 q 909 406 878 375 q 940 482 940 438 "},"궐":{"ha":1321,"x_min":21,"x_max":1290,"o":"m 1254 194 l 1254 379 q 1235 437 1254 411 q 1167 463 1217 463 l 528 463 q 529 475 529 468 l 529 665 q 510 723 529 697 q 442 749 492 749 l 74 749 q 22 678 21 749 q 74 608 22 608 l 351 608 q 363 604 361 608 q 364 594 364 600 l 364 475 q 422 410 364 418 q 421 392 421 401 q 474 322 422 322 l 1076 322 q 1088 318 1086 322 q 1089 308 1089 314 l 1089 265 q 1088 256 1089 260 q 1076 251 1086 251 l 517 251 q 448 226 467 251 q 429 168 429 200 l 429 -17 q 448 -74 429 -49 q 517 -100 467 -100 l 1238 -100 q 1290 -30 1289 -100 q 1238 40 1290 40 l 607 40 q 596 44 597 40 q 594 54 594 49 l 594 97 q 596 107 594 103 q 607 111 597 111 l 1167 111 q 1235 137 1217 111 q 1254 194 1254 163 m 782 799 l 782 1031 q 763 1088 782 1063 q 694 1114 744 1114 l 153 1114 q 101 1044 100 1114 q 153 974 101 974 l 604 974 q 615 969 614 974 q 617 960 617 965 l 617 799 q 699 732 617 732 q 782 799 782 732 m 1156 551 l 1156 1078 q 1073 1144 1156 1144 q 990 1078 990 1144 l 990 551 q 1073 485 990 485 q 1156 551 1156 485 m 940 607 q 909 683 940 651 q 833 714 878 714 q 758 683 789 714 q 726 607 726 651 q 758 531 726 563 q 833 500 789 500 q 909 531 878 500 q 940 607 940 563 "},"궜":{"ha":1321,"x_min":21,"x_max":1331,"o":"m 757 -83 q 794 -78 776 -85 q 822 -53 813 -71 l 989 233 l 1154 -53 q 1257 -75 1183 -104 q 1290 26 1331 -46 l 1067 417 q 1033 451 1053 442 q 988 461 1014 461 q 943 451 963 461 q 910 417 924 442 l 754 144 l 599 417 q 565 451 585 442 q 557 454 561 453 l 557 461 l 557 651 q 538 709 557 683 q 469 735 519 735 l 74 735 q 22 665 21 735 q 74 594 22 594 l 379 594 q 390 590 389 594 q 392 581 392 586 l 392 461 q 432 400 392 414 l 218 26 q 251 -75 178 -46 q 354 -53 325 -104 l 521 233 l 686 -53 q 716 -78 697 -71 q 757 -83 735 -85 m 782 785 l 782 1031 q 763 1088 782 1063 q 694 1114 744 1114 l 153 1114 q 101 1044 100 1114 q 153 974 101 974 l 604 974 q 615 969 614 974 q 617 960 617 965 l 617 785 q 699 718 617 718 q 782 785 782 718 m 1156 538 l 1156 1078 q 1073 1144 1156 1144 q 990 1078 990 1144 l 990 538 q 1073 471 990 471 q 1156 538 1156 471 m 940 607 q 909 683 940 651 q 833 714 878 714 q 758 683 789 714 q 726 607 726 651 q 758 531 726 563 q 833 500 789 500 q 909 531 878 500 q 940 607 940 563 "},"궝":{"ha":1321,"x_min":21,"x_max":1222,"o":"m 940 607 q 909 683 940 651 q 833 714 878 714 q 758 683 789 714 q 726 607 726 651 q 758 531 726 563 q 833 500 789 500 q 909 531 878 500 q 940 607 940 563 m 1156 517 l 1156 1078 q 1073 1144 1156 1144 q 990 1078 990 1144 l 990 517 q 1073 450 990 450 q 1156 517 1156 450 m 557 419 l 557 651 q 538 709 557 683 q 469 735 519 735 l 74 735 q 22 665 21 735 q 74 594 22 594 l 379 594 q 390 590 389 594 q 392 581 392 586 l 392 419 q 474 353 392 353 q 557 419 557 353 m 782 785 l 782 1031 q 763 1088 782 1063 q 694 1114 744 1114 l 153 1114 q 101 1044 100 1114 q 153 974 101 974 l 604 974 q 615 969 614 974 q 617 960 617 965 l 617 785 q 699 718 617 718 q 782 785 782 718 m 1222 157 q 1126 362 1222 276 q 893 447 1031 447 q 658 363 754 447 q 561 157 561 278 q 658 -49 561 36 q 893 -133 754 -133 q 1126 -48 1031 -133 q 1222 157 1222 38 m 1057 157 q 1009 51 1057 94 q 893 8 961 8 q 777 51 825 8 q 729 157 729 94 q 777 263 729 219 q 893 306 825 306 q 1009 263 961 306 q 1057 157 1057 219 "},"궤":{"ha":1354,"x_min":21,"x_max":1222,"o":"m 1222 31 l 1222 1078 q 1140 1144 1222 1144 q 1057 1078 1057 1144 l 1057 31 q 1140 -36 1057 -36 q 1222 31 1222 -36 m 975 31 l 975 1078 q 892 1144 975 1144 q 810 1078 810 1144 l 810 31 q 892 -36 810 -36 q 975 31 975 -36 m 492 58 l 492 540 q 473 598 492 572 q 404 624 454 624 l 74 624 q 22 553 21 624 q 74 483 22 483 l 314 483 q 325 479 324 483 q 326 469 326 475 l 326 58 q 409 -8 326 -8 q 492 58 492 -8 m 710 618 l 710 1031 q 691 1088 710 1063 q 622 1114 672 1114 l 153 1114 q 101 1044 100 1114 q 153 974 101 974 l 532 974 q 543 969 542 974 q 544 960 544 965 l 544 618 q 627 551 544 551 q 710 618 710 551 m 771 357 q 740 433 771 401 q 664 464 708 464 q 588 433 619 464 q 557 357 557 401 q 588 281 557 313 q 664 250 619 250 q 740 281 708 250 q 771 357 771 313 "},"궷":{"ha":1389,"x_min":21,"x_max":1382,"o":"m 526 -64 l 865 271 l 1203 -64 q 1319 -63 1256 -114 q 1329 39 1382 -12 l 939 415 l 938 415 q 975 475 975 431 l 975 1078 q 892 1144 975 1144 q 810 1078 810 1144 l 810 475 q 821 435 810 450 q 790 415 804 429 l 400 39 q 410 -62 346 -11 q 526 -64 475 -114 m 1222 419 l 1222 1078 q 1140 1144 1222 1144 q 1057 1078 1057 1144 l 1057 419 q 1140 353 1057 353 q 1222 419 1222 353 m 710 771 l 710 1031 q 691 1088 710 1063 q 622 1114 672 1114 l 153 1114 q 101 1044 100 1114 q 153 974 101 974 l 532 974 q 543 969 542 974 q 544 960 544 965 l 544 771 q 627 704 544 704 q 710 771 710 704 m 513 392 l 513 651 q 494 709 513 683 q 425 735 475 735 l 74 735 q 22 665 21 735 q 74 594 22 594 l 335 594 q 346 590 344 594 q 347 581 347 586 l 347 392 q 430 325 347 325 q 513 392 513 325 m 779 565 q 750 638 779 608 q 678 667 721 667 q 606 638 635 667 q 576 565 576 608 q 606 493 576 522 q 678 464 635 464 q 750 493 721 464 q 779 565 779 522 "},"귀":{"ha":1321,"x_min":21,"x_max":1156,"o":"m 1156 31 l 1156 1078 q 1073 1144 1156 1144 q 990 1078 990 1144 l 990 31 q 1073 -36 990 -36 q 1156 31 1156 -36 m 554 31 l 554 526 q 535 584 554 558 q 467 610 517 610 l 74 610 q 22 540 21 610 q 74 469 22 469 l 376 469 q 388 465 386 469 q 389 456 389 461 l 389 31 q 472 -36 389 -36 q 554 31 554 -36 m 807 604 l 807 1031 q 788 1088 807 1063 q 719 1114 769 1114 l 153 1114 q 101 1044 100 1114 q 153 974 101 974 l 629 974 q 640 969 639 974 q 642 960 642 965 l 642 604 q 724 538 642 538 q 807 604 807 538 "},"귁":{"ha":1321,"x_min":21,"x_max":1256,"o":"m 1256 -17 l 1256 342 q 1237 399 1256 374 q 1168 425 1218 425 l 529 425 l 529 624 q 510 681 529 656 q 442 707 492 707 l 74 707 q 22 637 21 707 q 74 567 22 567 l 351 567 q 363 563 361 567 q 364 553 364 558 l 364 406 q 414 342 364 353 q 467 285 419 285 l 1078 285 q 1089 281 1088 285 q 1090 271 1090 276 l 1090 -17 q 1173 -83 1090 -83 q 1256 -17 1256 -83 m 807 646 l 807 1031 q 788 1088 807 1063 q 719 1114 769 1114 l 153 1114 q 101 1044 100 1114 q 153 974 101 974 l 629 974 q 640 969 639 974 q 642 960 642 965 l 642 646 q 724 579 642 579 q 807 646 807 579 m 1156 531 l 1156 1078 q 1073 1144 1156 1144 q 990 1078 990 1144 l 990 531 q 1073 464 990 464 q 1156 531 1156 464 "},"귄":{"ha":1321,"x_min":21,"x_max":1297,"o":"m 585 -68 l 1244 -68 q 1297 2 1297 -68 q 1244 72 1296 72 l 675 72 q 664 76 665 72 q 663 86 663 81 l 663 317 q 579 383 663 383 q 529 374 549 383 l 529 596 q 510 653 529 628 q 442 679 492 679 l 74 679 q 22 609 21 679 q 74 539 22 539 l 351 539 q 363 535 361 539 q 364 525 364 531 l 364 350 q 446 283 364 283 q 497 293 478 283 l 497 15 q 516 -42 497 -17 q 585 -68 535 -68 m 807 646 l 807 1031 q 788 1088 807 1063 q 719 1114 769 1114 l 153 1114 q 101 1044 100 1114 q 153 974 101 974 l 629 974 q 640 969 639 974 q 642 960 642 965 l 642 646 q 724 579 642 579 q 807 646 807 579 m 1156 336 l 1156 1078 q 1073 1144 1156 1144 q 990 1078 990 1144 l 990 336 q 1073 269 990 269 q 1156 336 1156 269 "},"귈":{"ha":1321,"x_min":21,"x_max":1292,"o":"m 1256 208 l 1256 407 q 1237 465 1256 439 q 1168 490 1218 490 l 529 490 l 529 651 q 510 709 529 683 q 442 735 492 735 l 74 735 q 22 665 21 735 q 74 594 22 594 l 351 594 q 363 590 361 594 q 364 581 364 586 l 364 461 q 432 394 364 400 q 482 350 440 350 l 1078 350 q 1089 346 1088 350 q 1090 336 1090 342 l 1090 279 q 1089 269 1090 274 q 1078 265 1088 265 l 518 265 q 449 240 468 265 q 431 182 431 214 l 431 -17 q 449 -74 431 -49 q 518 -100 468 -100 l 1239 -100 q 1291 -30 1290 -100 q 1239 40 1292 40 l 608 40 q 597 44 599 40 q 596 54 596 49 l 596 111 q 597 121 596 117 q 608 125 599 125 l 1168 125 q 1237 151 1218 125 q 1256 208 1256 176 m 807 660 l 807 1031 q 788 1088 807 1063 q 719 1114 769 1114 l 153 1114 q 101 1044 100 1114 q 153 974 101 974 l 629 974 q 640 969 639 974 q 642 960 642 965 l 642 660 q 724 593 642 593 q 807 660 807 593 m 1156 586 l 1156 1078 q 1073 1144 1156 1144 q 990 1078 990 1144 l 990 586 q 1073 519 990 519 q 1156 586 1156 519 "},"귐":{"ha":1321,"x_min":21,"x_max":1256,"o":"m 1256 1 l 1256 342 q 1237 399 1256 374 q 1168 425 1218 425 l 529 425 l 529 624 q 510 681 529 656 q 442 707 492 707 l 74 707 q 22 637 21 707 q 74 567 22 567 l 351 567 q 363 563 361 567 q 364 553 364 558 l 364 392 q 431 325 364 332 l 431 1 q 449 -56 431 -31 q 518 -82 468 -82 l 1168 -82 q 1237 -56 1218 -82 q 1256 1 1256 -31 m 807 646 l 807 1031 q 788 1088 807 1063 q 719 1114 769 1114 l 153 1114 q 101 1044 100 1114 q 153 974 101 974 l 629 974 q 640 969 639 974 q 642 960 642 965 l 642 646 q 724 579 642 579 q 807 646 807 579 m 1090 271 l 1090 72 q 1089 63 1090 67 q 1078 58 1088 58 l 608 58 q 597 63 599 58 q 596 72 596 67 l 596 271 q 597 281 596 276 q 608 285 599 285 l 1078 285 q 1089 281 1088 285 q 1090 271 1090 276 m 1156 531 l 1156 1078 q 1073 1144 1156 1144 q 990 1078 990 1144 l 990 531 q 1073 464 990 464 q 1156 531 1156 464 "},"귑":{"ha":1321,"x_min":21,"x_max":1256,"o":"m 1256 -1 l 1256 386 q 1173 453 1256 453 q 1090 386 1090 453 l 1090 313 l 669 313 q 617 242 617 313 q 669 172 618 172 l 1090 172 l 1090 69 q 1089 60 1090 64 q 1078 56 1088 56 l 608 56 q 597 60 599 56 q 596 69 596 64 l 596 386 q 529 451 596 446 l 529 638 q 510 695 529 669 q 442 721 492 721 l 74 721 q 22 651 21 721 q 74 581 22 581 l 351 581 q 363 576 361 581 q 364 567 364 572 l 364 447 q 431 381 364 388 l 431 -1 q 449 -59 431 -33 q 518 -85 468 -85 l 1168 -85 q 1236 -59 1218 -85 q 1256 -1 1254 -33 m 807 660 l 807 1031 q 788 1088 807 1063 q 719 1114 769 1114 l 153 1114 q 101 1044 100 1114 q 153 974 101 974 l 629 974 q 640 969 639 974 q 642 960 642 965 l 642 660 q 724 593 642 593 q 807 660 807 593 m 1156 514 l 1156 1078 q 1073 1144 1156 1144 q 990 1078 990 1144 l 990 514 q 1073 447 990 447 q 1156 514 1156 447 "},"귓":{"ha":1321,"x_min":21,"x_max":1326,"o":"m 1156 406 l 1156 1078 q 1073 1144 1156 1144 q 990 1078 990 1144 l 990 406 q 1073 339 990 339 q 1156 406 1156 339 m 529 364 l 529 624 q 510 681 529 656 q 442 707 492 707 l 74 707 q 22 637 21 707 q 74 567 22 567 l 351 567 q 363 563 361 567 q 364 553 364 558 l 364 364 q 447 297 364 297 q 529 364 529 297 m 807 646 l 807 1031 q 788 1088 807 1063 q 719 1114 769 1114 l 153 1114 q 101 1044 100 1114 q 153 974 101 974 l 629 974 q 640 969 639 974 q 642 960 642 965 l 642 646 q 724 579 642 579 q 807 646 807 579 m 471 -61 l 810 274 l 1147 -61 q 1263 -60 1200 -111 q 1274 42 1326 -10 l 883 418 q 848 439 868 433 q 808 444 828 444 q 769 439 789 444 q 735 418 750 433 l 344 42 q 355 -60 290 -8 q 471 -61 419 -111 "},"규":{"ha":1090,"x_min":21,"x_max":992,"o":"m 510 31 l 510 499 q 491 556 510 531 q 422 582 472 582 l 74 582 q 22 512 21 582 q 74 442 22 442 l 332 442 q 343 438 342 442 q 344 428 344 433 l 344 31 q 427 -36 344 -36 q 510 31 510 -36 m 856 31 l 856 508 q 773 575 856 575 q 690 508 690 575 l 690 31 q 773 -36 690 -36 q 856 31 856 -36 m 992 632 l 992 1031 q 973 1088 992 1063 q 904 1114 954 1114 l 217 1114 q 165 1044 164 1114 q 217 974 165 974 l 814 974 q 825 969 824 974 q 826 960 826 965 l 826 632 q 909 565 826 565 q 992 632 992 565 "},"균":{"ha":1189,"x_min":21,"x_max":1093,"o":"m 621 308 l 621 568 q 602 626 621 600 q 533 651 583 651 l 74 651 q 22 581 21 651 q 74 511 22 511 l 443 511 q 454 507 453 511 q 456 497 456 503 l 456 308 q 538 242 456 242 q 621 308 621 242 m 907 308 l 907 585 q 824 651 907 651 q 742 585 742 651 l 742 308 q 824 242 742 242 q 907 308 907 242 m 992 715 l 992 1031 q 973 1088 992 1063 q 904 1114 954 1114 l 217 1114 q 165 1044 164 1114 q 217 974 165 974 l 814 974 q 825 969 824 974 q 826 960 826 965 l 826 715 q 909 649 826 649 q 992 715 992 649 m 353 -68 l 1040 -68 q 1092 2 1093 -68 q 1040 72 1092 72 l 443 72 q 432 76 433 72 q 431 86 431 81 l 431 303 q 348 369 431 369 q 265 303 265 369 l 265 15 q 284 -42 265 -17 q 353 -68 303 -68 "},"귤":{"ha":1189,"x_min":21,"x_max":1126,"o":"m 1090 201 l 1090 393 q 1072 451 1090 425 q 1003 476 1053 476 l 875 476 l 875 654 q 792 721 875 721 q 710 654 710 721 l 710 476 l 568 476 l 568 638 q 549 695 568 669 q 481 721 531 721 l 74 721 q 22 651 21 721 q 74 581 22 581 l 390 581 q 401 576 400 581 q 403 567 403 572 l 403 476 l 317 476 q 265 406 264 476 q 317 336 265 336 l 913 336 q 924 332 922 336 q 925 322 925 328 l 925 272 q 924 263 925 267 q 913 258 922 258 l 353 258 q 284 233 303 258 q 265 175 265 207 l 265 -17 q 284 -74 265 -49 q 353 -100 303 -100 l 1074 -100 q 1126 -30 1125 -100 q 1074 40 1126 40 l 443 40 q 432 44 433 40 q 431 54 431 49 l 431 104 q 432 114 431 110 q 443 118 433 118 l 1003 118 q 1072 144 1053 118 q 1090 201 1090 169 m 992 771 l 992 1031 q 973 1088 992 1063 q 904 1114 954 1114 l 217 1114 q 165 1044 164 1114 q 217 974 165 974 l 814 974 q 825 969 824 974 q 826 960 826 965 l 826 771 q 909 704 826 704 q 992 771 992 704 "},"그":{"ha":1090,"x_min":21,"x_max":1075,"o":"m 958 368 l 958 1031 q 940 1088 958 1063 q 871 1114 921 1114 l 178 1114 q 126 1044 125 1114 q 178 974 126 974 l 781 974 q 792 969 790 974 q 793 960 793 965 l 793 368 q 876 301 793 301 q 958 368 958 301 m 74 97 l 1021 97 q 1074 167 1074 97 q 1021 238 1075 238 l 74 238 q 22 167 21 238 q 74 97 22 97 "},"극":{"ha":1189,"x_min":21,"x_max":1171,"o":"m 74 535 l 1117 535 q 1170 605 1169 535 q 1117 675 1171 675 l 992 675 l 992 1031 q 973 1088 992 1063 q 904 1114 954 1114 l 217 1114 q 165 1044 164 1114 q 217 974 165 974 l 814 974 q 825 969 824 974 q 826 960 826 965 l 826 675 l 74 675 q 22 605 21 675 q 74 535 22 535 m 1092 -17 l 1092 328 q 1073 385 1092 360 q 1004 411 1054 411 l 313 411 q 260 341 260 411 q 313 271 261 271 l 914 271 q 925 267 924 271 q 926 257 926 263 l 926 -17 q 1009 -83 926 -83 q 1092 -17 1092 -83 "},"근":{"ha":1189,"x_min":21,"x_max":1171,"o":"m 74 488 l 1117 488 q 1170 558 1169 488 q 1117 628 1171 628 l 992 628 l 992 1031 q 973 1088 992 1063 q 904 1114 954 1114 l 217 1114 q 165 1044 164 1114 q 217 974 165 974 l 814 974 q 825 969 824 974 q 826 960 826 965 l 826 628 l 74 628 q 22 558 21 628 q 74 488 22 488 m 353 -68 l 1054 -68 q 1106 2 1107 -68 q 1054 72 1106 72 l 443 72 q 432 76 433 72 q 431 86 431 81 l 431 344 q 348 411 431 411 q 265 344 265 411 l 265 15 q 284 -42 265 -17 q 353 -68 303 -68 "},"귿":{"ha":1189,"x_min":21,"x_max":1171,"o":"m 74 543 l 1117 543 q 1170 613 1169 543 q 1117 683 1171 683 l 992 683 l 992 1031 q 973 1088 992 1063 q 904 1114 954 1114 l 217 1114 q 165 1044 164 1114 q 217 974 165 974 l 814 974 q 825 969 824 974 q 826 960 826 965 l 826 683 l 74 683 q 22 613 21 683 q 74 543 22 543 m 353 -82 l 1072 -82 q 1126 -12 1128 -82 q 1072 58 1125 58 l 443 58 q 432 63 433 58 q 431 72 431 67 l 431 257 q 432 267 431 263 q 443 271 433 271 l 1040 271 q 1094 341 1096 271 q 1040 411 1093 411 l 353 411 q 284 385 303 411 q 265 328 265 360 l 265 1 q 284 -56 265 -31 q 353 -82 303 -82 "},"글":{"ha":1189,"x_min":21,"x_max":1171,"o":"m 1090 201 l 1090 393 q 1072 451 1090 425 q 1003 476 1053 476 l 317 476 q 265 406 264 476 q 317 336 265 336 l 913 336 q 924 332 922 336 q 925 322 925 328 l 925 272 q 924 263 925 267 q 913 258 922 258 l 353 258 q 284 233 303 258 q 265 175 265 207 l 265 -17 q 284 -74 265 -49 q 353 -100 303 -100 l 1074 -100 q 1126 -30 1125 -100 q 1074 40 1126 40 l 443 40 q 432 44 433 40 q 431 54 431 49 l 431 104 q 432 114 431 110 q 443 118 433 118 l 1003 118 q 1072 144 1053 118 q 1090 201 1090 169 m 74 556 l 1117 556 q 1170 626 1169 556 q 1117 696 1171 696 l 992 696 l 992 1031 q 973 1088 992 1063 q 904 1114 954 1114 l 215 1114 q 163 1044 163 1114 q 215 974 164 974 l 814 974 q 825 969 824 974 q 826 960 826 965 l 826 696 l 74 696 q 22 626 21 696 q 74 556 22 556 "},"긁":{"ha":1189,"x_min":21,"x_max":1171,"o":"m 74 556 l 1117 556 q 1170 626 1169 556 q 1117 696 1171 696 l 992 696 l 992 1031 q 973 1088 992 1063 q 904 1114 954 1114 l 215 1114 q 163 1044 163 1114 q 215 974 164 974 l 814 974 q 825 969 824 974 q 826 960 826 965 l 826 696 l 74 696 q 22 626 21 696 q 74 556 22 556 m 632 197 l 632 385 q 613 442 632 417 q 544 468 594 468 l 185 468 q 133 398 132 468 q 185 328 133 328 l 454 328 q 465 324 464 328 q 467 314 467 319 l 467 268 q 465 258 467 263 q 454 254 464 254 l 228 254 q 159 228 178 254 q 140 171 140 203 l 140 -17 q 159 -74 140 -49 q 228 -100 178 -100 l 615 -100 q 667 -30 667 -100 q 615 40 668 40 l 318 40 q 307 44 308 40 q 306 54 306 49 l 306 100 q 307 110 306 106 q 318 114 308 114 l 544 114 q 613 140 594 114 q 632 197 632 165 m 1124 -39 l 1124 385 q 1105 442 1124 417 q 1036 468 1086 468 l 701 468 q 649 398 649 468 q 701 328 650 328 l 946 328 q 957 324 956 328 q 958 314 958 319 l 958 -39 q 1041 -106 958 -106 q 1124 -39 1124 -106 "},"금":{"ha":1189,"x_min":21,"x_max":1171,"o":"m 1090 1 l 1090 314 q 1072 372 1090 346 q 1003 397 1053 397 l 353 397 q 284 372 303 397 q 265 314 265 346 l 265 1 q 284 -56 265 -31 q 353 -82 303 -82 l 1003 -82 q 1072 -56 1053 -82 q 1090 1 1090 -31 m 74 529 l 1117 529 q 1170 599 1169 529 q 1117 669 1171 669 l 992 669 l 992 1031 q 973 1088 992 1063 q 904 1114 954 1114 l 217 1114 q 165 1044 164 1114 q 217 974 165 974 l 814 974 q 825 969 824 974 q 826 960 826 965 l 826 669 l 74 669 q 22 599 21 669 q 74 529 22 529 m 925 243 l 925 72 q 924 63 925 67 q 913 58 922 58 l 443 58 q 432 63 433 58 q 431 72 431 67 l 431 243 q 432 253 431 249 q 443 257 433 257 l 913 257 q 924 253 922 257 q 925 243 925 249 "},"급":{"ha":1189,"x_min":21,"x_max":1171,"o":"m 74 529 l 1117 529 q 1170 599 1169 529 q 1117 669 1171 669 l 992 669 l 992 1031 q 973 1088 992 1063 q 904 1114 954 1114 l 217 1114 q 165 1044 164 1114 q 217 974 165 974 l 814 974 q 825 969 824 974 q 826 960 826 965 l 826 669 l 74 669 q 22 599 21 669 q 74 529 22 529 m 1090 -1 l 1090 410 q 1008 476 1090 476 q 925 410 925 476 l 925 322 l 504 322 q 452 252 451 322 q 504 182 453 182 l 925 182 l 925 69 q 924 60 925 64 q 913 56 922 56 l 443 56 q 432 60 433 56 q 431 69 431 64 l 431 410 q 348 476 431 476 q 265 410 265 476 l 265 -1 q 284 -59 265 -33 q 353 -85 303 -85 l 1003 -85 q 1071 -59 1053 -85 q 1090 -1 1089 -33 "},"긋":{"ha":1189,"x_min":21,"x_max":1193,"o":"m 74 506 l 1117 506 q 1170 576 1169 506 q 1117 646 1171 646 l 992 646 l 992 1031 q 973 1088 992 1063 q 904 1114 954 1114 l 217 1114 q 165 1044 164 1114 q 217 974 165 974 l 814 974 q 825 969 824 974 q 826 960 826 965 l 826 646 l 74 646 q 22 576 21 646 q 74 506 22 506 m 338 -61 l 676 274 l 1014 -61 q 1130 -60 1067 -111 q 1140 42 1193 -10 l 750 418 q 715 439 735 433 q 675 444 694 444 q 636 439 656 444 q 601 418 617 433 l 211 42 q 220 -61 157 -8 q 338 -61 283 -114 "},"긍":{"ha":1189,"x_min":21,"x_max":1171,"o":"m 74 529 l 1117 529 q 1170 599 1169 529 q 1117 669 1171 669 l 992 669 l 992 1031 q 973 1088 992 1063 q 904 1114 954 1114 l 217 1114 q 165 1044 164 1114 q 217 974 165 974 l 814 974 q 825 969 824 974 q 826 960 826 965 l 826 669 l 74 669 q 22 599 21 669 q 74 529 22 529 m 1008 157 q 913 362 1008 276 q 679 447 817 447 q 444 363 540 447 q 347 157 347 278 q 444 -49 347 36 q 679 -133 540 -133 q 913 -48 817 -133 q 1008 157 1008 38 m 843 157 q 795 51 843 94 q 679 8 747 8 q 563 51 611 8 q 515 157 515 94 q 563 263 515 219 q 679 306 611 306 q 795 263 747 306 q 843 157 843 219 "},"긔":{"ha":1321,"x_min":21,"x_max":1156,"o":"m 1156 31 l 1156 1078 q 1073 1144 1156 1144 q 990 1078 990 1144 l 990 31 q 1073 -36 990 -36 q 1156 31 1156 -36 m 799 456 l 799 1031 q 780 1088 799 1063 q 711 1114 761 1114 l 131 1114 q 78 1044 78 1114 q 131 974 79 974 l 621 974 q 632 969 631 974 q 633 960 633 965 l 633 456 q 716 389 633 389 q 799 456 799 389 m 74 132 l 888 132 q 941 202 940 132 q 888 272 942 272 l 74 272 q 22 202 21 272 q 74 132 22 132 "},"기":{"ha":1289,"x_min":17,"x_max":1124,"o":"m 1124 31 l 1124 1078 q 1041 1144 1124 1144 q 958 1078 958 1144 l 958 31 q 1041 -36 958 -36 q 1124 31 1124 -36 m 153 101 q 598 405 447 208 q 749 747 749 601 l 749 1031 q 730 1088 749 1063 q 661 1114 711 1114 l 121 1114 q 69 1044 68 1114 q 121 974 69 974 l 571 974 q 582 969 581 974 q 583 960 583 965 l 583 790 q 404 441 583 593 q 72 224 225 289 q 45 136 17 200 q 153 101 74 72 "},"긱":{"ha":1321,"x_min":17,"x_max":1256,"o":"m 1256 -17 l 1256 342 q 1237 399 1256 374 q 1168 425 1218 425 l 467 425 q 415 355 414 425 q 467 285 415 285 l 1078 285 q 1089 281 1088 285 q 1090 271 1090 276 l 1090 -17 q 1173 -83 1090 -83 q 1256 -17 1256 -83 m 1156 521 l 1156 1078 q 1073 1144 1156 1144 q 990 1078 990 1144 l 990 521 q 1073 454 990 454 q 1156 521 1156 454 m 749 853 l 749 1031 q 730 1088 749 1063 q 661 1114 711 1114 l 121 1114 q 69 1044 68 1114 q 121 974 69 974 l 571 974 q 582 969 581 974 q 583 960 583 965 l 583 868 q 406 595 583 722 q 72 413 228 468 q 45 328 17 393 q 153 290 74 264 q 603 563 458 393 q 749 853 749 732 "},"긴":{"ha":1321,"x_min":17,"x_max":1258,"o":"m 518 -68 l 1206 -68 q 1258 2 1258 -68 q 1206 72 1257 72 l 608 72 q 597 76 599 72 q 596 86 596 81 l 596 358 q 513 425 596 425 q 431 358 431 425 l 431 15 q 449 -42 431 -17 q 518 -68 468 -68 m 749 853 l 749 1031 q 730 1088 749 1063 q 661 1114 711 1114 l 121 1114 q 69 1044 68 1114 q 121 974 69 974 l 571 974 q 582 969 581 974 q 583 960 583 965 l 583 868 q 406 595 583 722 q 72 413 228 468 q 45 328 17 393 q 153 290 74 264 q 603 563 458 393 q 749 853 749 732 m 1156 358 l 1156 1078 q 1073 1144 1156 1144 q 990 1078 990 1144 l 990 358 q 1073 292 990 292 q 1156 358 1156 292 "},"긷":{"ha":1321,"x_min":17,"x_max":1293,"o":"m 518 -82 l 1238 -82 q 1292 -12 1293 -82 q 1238 58 1290 58 l 608 58 q 597 63 599 58 q 596 72 596 67 l 596 271 q 597 281 596 276 q 608 285 599 285 l 1206 285 q 1260 355 1261 285 q 1206 425 1258 425 l 518 425 q 449 399 468 425 q 431 342 431 374 l 431 1 q 449 -56 431 -31 q 518 -82 468 -82 m 749 853 l 749 1031 q 730 1088 749 1063 q 661 1114 711 1114 l 121 1114 q 69 1044 68 1114 q 121 974 69 974 l 571 974 q 582 969 581 974 q 583 960 583 965 l 583 868 q 406 595 583 722 q 72 413 228 468 q 45 328 17 393 q 153 290 74 264 q 603 563 458 393 q 749 853 749 732 m 1156 521 l 1156 1078 q 1073 1144 1156 1144 q 990 1078 990 1144 l 990 521 q 1073 454 990 454 q 1156 521 1156 454 "},"길":{"ha":1321,"x_min":17,"x_max":1292,"o":"m 749 853 l 749 1031 q 730 1088 749 1063 q 661 1114 711 1114 l 121 1114 q 69 1044 68 1114 q 121 974 69 974 l 571 974 q 582 969 581 974 q 583 960 583 965 l 583 868 q 406 595 583 722 q 72 413 228 468 q 45 328 17 393 q 153 290 74 264 q 429 417 314 344 q 482 350 432 350 l 1078 350 q 1089 346 1088 350 q 1090 336 1090 342 l 1090 279 q 1089 269 1090 274 q 1078 265 1088 265 l 518 265 q 449 240 468 265 q 431 182 431 214 l 431 -17 q 449 -74 431 -49 q 518 -100 468 -100 l 1239 -100 q 1291 -30 1290 -100 q 1239 40 1292 40 l 608 40 q 597 44 599 40 q 596 54 596 49 l 596 111 q 597 121 596 117 q 608 125 599 125 l 1168 125 q 1237 151 1218 125 q 1256 208 1256 176 l 1256 407 q 1237 465 1256 439 q 1168 490 1218 490 l 531 490 q 603 563 571 525 q 749 853 749 732 m 1156 581 l 1156 1079 q 1073 1146 1156 1146 q 990 1079 990 1146 l 990 581 q 1073 514 990 514 q 1156 581 1156 514 "},"긺":{"ha":1321,"x_min":17,"x_max":1256,"o":"m 708 208 l 708 407 q 690 465 708 439 q 621 490 671 490 l 422 490 q 603 625 532 551 q 749 894 749 774 l 749 1031 q 730 1088 749 1063 q 661 1114 711 1114 l 121 1114 q 69 1044 68 1114 q 121 974 69 974 l 571 974 q 582 969 581 974 q 583 960 583 965 l 583 910 q 406 658 583 764 q 72 496 228 551 q 45 412 17 476 q 153 374 74 347 q 211 393 182 383 q 261 350 219 350 l 531 350 q 542 346 540 350 q 543 336 543 342 l 543 279 q 542 269 543 274 q 531 265 540 265 l 304 265 q 235 240 254 265 q 217 182 217 214 l 217 -17 q 235 -74 217 -49 q 304 -100 254 -100 l 692 -100 q 744 -30 743 -100 q 692 40 744 40 l 394 40 q 383 44 385 40 q 382 54 382 49 l 382 111 q 383 121 382 117 q 394 125 385 125 l 621 125 q 690 151 671 125 q 708 208 708 176 m 1256 -17 l 1256 407 q 1237 465 1256 439 q 1168 490 1218 490 l 851 490 q 783 465 801 490 q 764 407 764 439 l 764 -17 q 783 -74 764 -49 q 851 -100 801 -100 l 1168 -100 q 1237 -74 1218 -100 q 1256 -17 1256 -49 m 1156 581 l 1156 1079 q 1073 1146 1156 1146 q 990 1079 990 1146 l 990 581 q 1073 514 990 514 q 1156 581 1156 514 m 1090 336 l 1090 54 q 1089 44 1090 49 q 1078 40 1088 40 l 942 40 q 931 44 932 40 q 929 54 929 49 l 929 336 q 931 346 929 342 q 942 350 932 350 l 1078 350 q 1089 346 1088 350 q 1090 336 1090 342 "},"김":{"ha":1321,"x_min":17,"x_max":1256,"o":"m 1156 521 l 1156 1078 q 1073 1144 1156 1144 q 990 1078 990 1144 l 990 521 q 1073 454 990 454 q 1156 521 1156 454 m 1256 1 l 1256 342 q 1237 399 1256 374 q 1168 425 1218 425 l 518 425 q 449 399 468 425 q 431 342 431 374 l 431 1 q 449 -56 431 -31 q 518 -82 468 -82 l 1168 -82 q 1237 -56 1218 -82 q 1256 1 1256 -31 m 1090 271 l 1090 72 q 1089 63 1090 67 q 1078 58 1088 58 l 608 58 q 597 63 599 58 q 596 72 596 67 l 596 271 q 597 281 596 276 q 608 285 599 285 l 1078 285 q 1089 281 1088 285 q 1090 271 1090 276 m 749 853 l 749 1031 q 730 1088 749 1063 q 661 1114 711 1114 l 121 1114 q 69 1044 68 1114 q 121 974 69 974 l 571 974 q 582 969 581 974 q 583 960 583 965 l 583 868 q 406 595 583 722 q 72 413 228 468 q 45 328 17 393 q 153 290 74 264 q 603 563 458 393 q 749 853 749 732 "},"깁":{"ha":1321,"x_min":17,"x_max":1256,"o":"m 1256 -1 l 1256 417 q 1173 483 1256 483 q 1090 417 1090 483 l 1090 329 l 669 329 q 617 259 617 329 q 669 189 618 189 l 1090 189 l 1090 69 q 1089 60 1090 64 q 1078 56 1088 56 l 608 56 q 597 60 599 56 q 596 69 596 64 l 596 417 q 522 483 596 479 q 603 563 568 521 q 749 853 749 732 l 749 1031 q 730 1088 749 1063 q 661 1114 711 1114 l 121 1114 q 69 1044 68 1114 q 121 974 69 974 l 571 974 q 582 969 581 974 q 583 960 583 965 l 583 868 q 406 595 583 722 q 72 413 228 468 q 45 328 17 393 q 153 290 74 264 q 431 417 314 344 l 431 -1 q 449 -59 431 -33 q 518 -85 468 -85 l 1168 -85 q 1236 -59 1218 -85 q 1256 -1 1254 -33 m 1156 554 l 1156 1078 q 1073 1144 1156 1144 q 990 1078 990 1144 l 990 554 q 1073 488 990 488 q 1156 554 1156 488 "},"깃":{"ha":1321,"x_min":17,"x_max":1354,"o":"m 1156 458 l 1156 1078 q 1073 1144 1156 1144 q 990 1078 990 1144 l 990 458 q 1073 392 990 392 q 1156 458 1156 392 m 749 853 l 749 1031 q 730 1088 749 1063 q 661 1114 711 1114 l 121 1114 q 69 1044 68 1114 q 121 974 69 974 l 571 974 q 582 969 581 974 q 583 960 583 965 l 583 868 q 406 595 583 722 q 72 413 228 468 q 45 328 17 393 q 153 290 74 264 q 603 563 458 393 q 749 853 749 732 m 499 -64 l 838 271 l 1175 -64 q 1291 -63 1228 -114 q 1301 39 1354 -12 l 911 415 q 876 436 896 431 q 836 442 856 442 q 797 436 817 442 q 763 415 778 431 l 372 39 q 383 -62 318 -11 q 499 -64 447 -114 "},"깅":{"ha":1321,"x_min":17,"x_max":1224,"o":"m 1156 533 l 1156 1078 q 1073 1144 1156 1144 q 990 1078 990 1144 l 990 533 q 1073 467 990 467 q 1156 533 1156 467 m 749 853 l 749 1031 q 730 1088 749 1063 q 661 1114 711 1114 l 121 1114 q 69 1044 68 1114 q 121 974 69 974 l 571 974 q 582 969 581 974 q 583 960 583 965 l 583 868 q 406 595 583 722 q 72 413 228 468 q 45 328 17 393 q 153 290 74 264 q 603 563 458 393 q 749 853 749 732 m 1224 157 q 1128 362 1224 276 q 894 447 1032 447 q 659 363 756 447 q 563 157 563 278 q 659 -49 563 36 q 894 -133 756 -133 q 1128 -48 1032 -133 q 1224 157 1224 38 m 1058 157 q 1010 51 1058 94 q 894 8 963 8 q 778 51 826 8 q 731 157 731 94 q 778 263 731 219 q 894 306 826 306 q 1010 263 963 306 q 1058 157 1058 219 "},"깆":{"ha":1321,"x_min":17,"x_max":1332,"o":"m 447 304 l 653 304 l 390 42 q 401 -60 336 -8 q 517 -61 465 -111 l 833 261 l 1151 -61 q 1268 -60 1204 -111 q 1278 42 1332 -8 l 1015 304 l 1231 304 q 1284 374 1283 304 q 1231 444 1285 444 l 861 444 q 836 447 849 449 q 807 444 821 450 l 471 444 q 603 563 549 499 q 749 853 749 732 l 749 1031 q 730 1088 749 1063 q 661 1114 711 1114 l 121 1114 q 69 1044 68 1114 q 121 974 69 974 l 571 974 q 582 969 581 974 q 583 960 583 965 l 583 868 q 406 595 583 722 q 72 413 228 468 q 45 328 17 393 q 153 290 74 264 q 396 396 290 336 q 394 374 394 386 q 447 304 396 304 m 1156 540 l 1156 1078 q 1073 1144 1156 1144 q 990 1078 990 1144 l 990 540 q 1073 474 990 474 q 1156 540 1156 474 "},"깊":{"ha":1321,"x_min":17,"x_max":1336,"o":"m 443 318 l 1240 318 q 1294 388 1293 318 q 1240 458 1294 458 l 490 458 q 603 563 556 507 q 749 853 749 732 l 749 1031 q 730 1088 749 1063 q 661 1114 711 1114 l 121 1114 q 69 1044 68 1114 q 121 974 69 974 l 571 974 q 582 969 581 974 q 583 960 583 965 l 583 868 q 406 595 583 722 q 72 413 228 468 q 45 328 17 393 q 153 290 74 264 q 390 393 288 335 l 390 388 q 443 318 392 318 m 401 -85 l 1282 -85 q 1335 -15 1335 -85 q 1282 56 1336 56 l 1124 56 l 1124 239 q 1041 306 1124 306 q 958 239 958 306 l 958 56 l 728 56 l 728 239 q 645 306 728 306 q 563 239 563 306 l 563 56 l 401 56 q 349 -15 349 56 q 401 -85 350 -85 m 1156 554 l 1156 1078 q 1073 1144 1156 1144 q 990 1078 990 1144 l 990 554 q 1073 488 990 488 q 1156 554 1156 488 "},"까":{"ha":1354,"x_min":-6,"x_max":1328,"o":"m 776 163 l 776 1031 q 758 1088 776 1063 q 689 1114 739 1114 l 482 1114 q 435 1082 446 1114 q 431 1088 433 1085 q 363 1114 413 1114 l 107 1114 q 55 1044 54 1114 q 107 974 56 974 l 272 974 q 283 969 282 974 q 285 960 285 965 l 285 790 q 223 456 285 593 q 40 217 161 318 q 35 121 -6 178 q 142 111 76 64 q 396 440 342 260 q 450 775 450 619 l 450 983 q 482 974 463 974 l 599 974 q 610 969 608 974 q 611 960 611 965 l 611 163 q 694 96 611 96 q 776 163 776 96 m 1068 31 l 1068 1078 q 985 1144 1068 1144 q 903 1078 903 1144 l 903 31 q 985 -36 903 -36 q 1068 31 1068 -36 m 1328 649 q 1297 724 1328 693 q 1221 756 1265 756 q 1145 724 1176 756 q 1114 649 1114 693 q 1145 573 1114 604 q 1221 542 1176 542 q 1297 573 1265 542 q 1328 649 1328 604 "},"깍":{"ha":1389,"x_min":-4,"x_max":1328,"o":"m 776 521 l 776 1031 q 758 1088 776 1063 q 689 1114 739 1114 l 482 1114 q 435 1082 446 1114 q 431 1088 433 1085 q 363 1114 413 1114 l 107 1114 q 55 1044 54 1114 q 107 974 56 974 l 272 974 q 283 969 282 974 q 285 960 285 965 l 285 832 q 221 596 285 693 q 40 397 157 499 q 36 301 -4 358 q 142 292 76 244 q 392 572 333 431 q 450 817 450 713 l 450 983 q 482 974 463 974 l 599 974 q 610 969 608 974 q 611 960 611 965 l 611 521 q 694 454 611 454 q 776 521 776 454 m 1321 -17 l 1321 342 q 1302 399 1321 374 q 1233 425 1283 425 l 532 425 q 480 355 479 425 q 532 285 481 285 l 1143 285 q 1154 281 1153 285 q 1156 271 1156 276 l 1156 -17 q 1238 -83 1156 -83 q 1321 -17 1321 -83 m 1068 521 l 1068 1078 q 985 1144 1068 1144 q 903 1078 903 1144 l 903 521 q 985 454 903 454 q 1068 521 1068 454 m 1328 818 q 1297 894 1328 863 q 1221 925 1265 925 q 1145 894 1176 925 q 1114 818 1114 863 q 1145 742 1114 774 q 1221 711 1176 711 q 1297 742 1265 711 q 1328 818 1328 774 "},"깎":{"ha":1389,"x_min":-4,"x_max":1328,"o":"m 776 521 l 776 1031 q 758 1088 776 1063 q 689 1114 739 1114 l 482 1114 q 435 1082 446 1114 q 431 1088 433 1085 q 363 1114 413 1114 l 107 1114 q 55 1044 54 1114 q 107 974 56 974 l 272 974 q 283 969 282 974 q 285 960 285 965 l 285 832 q 221 596 285 693 q 40 397 157 499 q 36 301 -4 358 q 142 292 76 244 q 392 572 333 431 q 450 817 450 713 l 450 983 q 482 974 463 974 l 599 974 q 610 969 608 974 q 611 960 611 965 l 611 521 q 694 454 611 454 q 776 521 776 454 m 1068 521 l 1068 1078 q 985 1144 1068 1144 q 903 1078 903 1144 l 903 521 q 985 454 903 454 q 1068 521 1068 454 m 1328 832 q 1297 908 1328 876 q 1221 939 1265 939 q 1145 908 1176 939 q 1114 832 1114 876 q 1145 756 1114 788 q 1221 725 1176 725 q 1297 756 1265 725 q 1328 832 1328 788 m 1325 -17 l 1325 339 q 1306 397 1325 371 q 1238 422 1288 422 l 894 422 q 842 352 842 422 q 894 282 843 282 l 1147 282 q 1158 278 1157 282 q 1160 268 1160 274 l 1160 -17 q 1242 -83 1160 -83 q 1325 -17 1325 -83 m 811 -17 l 811 339 q 792 397 811 371 q 724 422 774 422 l 381 422 q 328 352 328 422 q 381 282 329 282 l 633 282 q 644 278 643 282 q 646 268 646 274 l 646 -17 q 728 -83 646 -83 q 811 -17 811 -83 "},"깐":{"ha":1389,"x_min":-4,"x_max":1328,"o":"m 776 507 l 776 1031 q 758 1088 776 1063 q 689 1114 739 1114 l 482 1114 q 435 1082 446 1114 q 431 1088 433 1085 q 363 1114 413 1114 l 107 1114 q 55 1044 54 1114 q 107 974 56 974 l 272 974 q 283 969 282 974 q 285 960 285 965 l 285 832 q 221 596 285 693 q 40 397 157 499 q 36 301 -4 358 q 142 292 76 244 q 392 572 333 431 q 450 817 450 713 l 450 983 q 482 974 463 974 l 599 974 q 610 969 608 974 q 611 960 611 965 l 611 507 q 694 440 611 440 q 776 507 776 440 m 585 -68 l 1272 -68 q 1324 2 1325 -68 q 1272 72 1324 72 l 675 72 q 664 76 665 72 q 663 86 663 81 l 663 358 q 580 425 663 425 q 497 358 497 425 l 497 15 q 516 -42 497 -17 q 585 -68 535 -68 m 1068 358 l 1068 1078 q 985 1144 1068 1144 q 903 1078 903 1144 l 903 358 q 985 292 903 292 q 1068 358 1068 292 m 1328 760 q 1297 835 1328 804 q 1221 867 1265 867 q 1145 835 1176 867 q 1114 760 1114 804 q 1145 684 1114 715 q 1221 653 1176 653 q 1297 684 1265 653 q 1328 760 1328 715 "}}}
